<svg width="91" height="26" viewBox="0 0 91 26" fill="none" xmlns="http://www.w3.org/2000/svg">
<path d="M7.01072 8.58701C5.02088 7.82817 3.89821 7.04152 3.89821 5.60132C3.89821 4.55443 4.63763 3.74195 6.16872 3.74195C7.90306 3.74195 8.64441 5.07688 8.69473 6.49126H12.0879C12.0105 3.55721 10.251 0.782074 6.11646 0.782074C2.7736 0.782074 0.375344 2.58978 0.375344 5.86353C0.375344 8.61284 1.98386 10.3689 5.63255 11.5211C7.98048 12.3852 9.00056 13.1977 9.00056 14.7154C9.00056 16.0781 8.05597 16.8369 6.55004 16.8369C4.73828 16.8369 3.6911 15.6589 3.59045 13.9029H0.170166C0.323082 17.3077 2.31292 19.769 6.52488 19.769C10.7368 19.769 12.5215 17.3852 12.5215 14.479C12.5215 11.5727 11.1182 10.1047 7.00879 8.58701H7.01072Z" fill="#079292"/>
<path d="M26.9304 9.97359C26.6246 7.87784 25.7052 5.75824 23.4598 5.75824C20.6532 5.75824 18.6614 8.40426 18.6614 12.8024C18.6614 16.5727 20.6512 19.0618 23.3572 19.0618C25.0935 19.0618 26.522 17.4905 26.9304 14.8981L26.9556 18.9843C26.9556 21.4992 26.191 22.5461 24.5051 22.5461C23.2043 22.5461 22.3101 21.5509 22.2597 19.9796H19.1724C19.3253 23.148 21.1874 25.218 24.5302 25.218C28.7151 25.218 30.3488 22.4686 30.3488 18.3566V6.0741H26.9285V9.97558L26.9304 9.97359ZM26.9053 12.8818C26.9053 14.7412 25.9355 16.4178 24.6077 16.4178C23.0514 16.4178 22.132 14.769 22.132 12.5163C22.132 10.0809 23.1269 8.53537 24.6077 8.53537C26.0884 8.53537 26.9053 10.4464 26.9053 11.7833V12.8838V12.8818Z" fill="#079292"/>
<path d="M38.7436 5.75824C36.4731 5.75824 35.3756 7.9573 35.0427 10.1583V6.07211H31.5972V19.4551H35.0427V11.9382C35.0427 10.2894 35.7821 8.69031 37.288 8.69031C38.7939 8.69031 39.2527 9.97359 39.2527 11.6502V19.4551H42.6981V11.2052C42.6981 7.43484 41.0644 5.75824 38.7436 5.75824Z" fill="#079292"/>
<path d="M50.0457 16.4694H43.8188V19.4551H50.0457V16.4694Z" fill="#FFA602"/>
<path d="M17.4032 1.2012H13.9578V4.18691H17.4032V1.2012Z" fill="#079292"/>
<path d="M17.4032 6.07205H13.9578V19.4551H17.4032V6.07205Z" fill="#079292"/>
<path d="M74.3517 5.74435C72.0812 5.74435 70.9837 7.9434 70.6508 10.1444V6.05822H67.2053V19.4412H70.6508V11.9243C70.6508 10.2756 71.3902 8.67642 72.8961 8.67642C74.402 8.67642 74.8608 9.9597 74.8608 11.6363V19.4412H78.3062V11.1913C78.3062 7.42096 76.6725 5.74435 74.3517 5.74435Z" fill="#079292"/>
<path d="M54.4998 1.10983H51.0563V19.4412H61.1603V16.4555H54.4998V1.10983Z" fill="#079292"/>
<path d="M65.7883 1.18735H62.3429V4.17305H65.7883V1.18735Z" fill="#079292"/>
<path d="M65.7883 6.0582H62.3429V19.4412H65.7883V6.0582Z" fill="#079292"/>
<path d="M85.9055 12.7368L90.5491 6.05819H86.7475L83.0214 11.5846V1.10983H79.5759V19.4412H83.0214V14.2306L86.7475 19.4412H90.8298L85.9055 12.7368Z" fill="#079292"/>
</svg>
