<svg width="18" height="10" viewBox="0 0 18 10" fill="none" xmlns="http://www.w3.org/2000/svg">
<g clip-path="url(#clip0_24_37345)">
<path d="M1.72634 1.05205C1.59886 0.754617 1.2544 0.616828 0.956962 0.744304C0.659524 0.871781 0.521735 1.21624 0.649211 1.51368L1.72634 1.05205ZM6.68891 6.54669C6.8654 6.27552 6.78859 5.91255 6.51734 5.73607C6.2461 5.55959 5.88315 5.63638 5.70666 5.90763L6.68891 6.54669ZM4.6029 7.60396C4.42641 7.87513 4.50322 8.2381 4.77446 8.41459C5.0457 8.59107 5.40866 8.51427 5.58515 8.24302L4.6029 7.60396ZM17.3514 1.51368C17.4788 1.21624 17.3411 0.871781 17.0436 0.744304C16.7461 0.616828 16.4017 0.754617 16.2742 1.05205L17.3514 1.51368ZM15.2266 6.09474C15.4554 6.32357 15.8264 6.32357 16.0552 6.09474C16.284 5.86591 16.284 5.4949 16.0552 5.26607L15.2266 6.09474ZM8.41434 8.70474C8.41434 9.02834 8.67668 9.29068 9.00027 9.29068C9.32387 9.29068 9.58621 9.02834 9.58621 8.70474H8.41434ZM12.4154 8.24302C12.5919 8.51427 12.9549 8.59107 13.2261 8.41459C13.4973 8.2381 13.5741 7.87513 13.3976 7.60396L12.4154 8.24302ZM3.94584 4.92287C4.17466 4.69404 4.17466 4.32302 3.94584 4.09419C3.71702 3.86537 3.34602 3.86537 3.1172 4.09419L3.94584 4.92287ZM1.94533 5.26607C1.71651 5.4949 1.71651 5.86591 1.94533 6.09474C2.17415 6.32357 2.54515 6.32357 2.77397 6.09474L1.94533 5.26607ZM9.00027 6.16568C6.48161 6.16568 4.67319 4.91146 3.47262 3.61854C2.8725 2.97227 2.4325 2.32415 2.14292 1.83766C1.99847 1.59498 1.89236 1.39405 1.82324 1.25581C1.7887 1.18674 1.76347 1.13345 1.74737 1.09858C1.73931 1.08115 1.73355 1.06834 1.73005 1.06047C1.7283 1.05654 1.72695 1.05347 1.72634 1.05205C1.72602 1.05135 1.72637 1.05212 1.72634 1.05205C1.72641 1.05223 1.72634 1.05205 1.18777 1.28287C0.649212 1.51368 0.649094 1.51341 0.649211 1.51368C0.64911 1.51344 0.649258 1.5138 0.649211 1.51368C0.649407 1.51414 0.650141 1.51584 0.650415 1.51646C0.650954 1.51773 0.651649 1.51932 0.652485 1.52124C0.654165 1.52508 0.65643 1.53023 0.659282 1.53664C0.664985 1.54947 0.673047 1.56736 0.683501 1.58998C0.704391 1.63523 0.734852 1.69943 0.775087 1.77989C0.855501 1.94073 0.975227 2.16705 1.13595 2.43705C1.45672 2.97596 1.94445 3.69505 2.61387 4.41591C3.95236 5.8574 6.05019 7.33755 9.00027 7.33755V6.16568ZM11.5882 5.68193C10.83 5.98037 9.97035 6.16568 9.00027 6.16568V7.33755C10.1239 7.33755 11.1289 7.12209 12.0174 6.7724L11.5882 5.68193ZM5.70666 5.90763L4.6029 7.60396L5.58515 8.24302L6.68891 6.54669L5.70666 5.90763ZM16.8128 1.28287C16.2742 1.05205 16.2741 1.05216 16.2742 1.05205C16.2733 1.05398 16.2714 1.05845 16.2691 1.06352C16.2646 1.07367 16.2572 1.08997 16.247 1.11197C16.2264 1.15597 16.1945 1.22267 16.1507 1.30839C16.0632 1.47995 15.9292 1.72686 15.7467 2.01974C15.3807 2.60721 14.8255 3.37034 14.068 4.0813L14.87 4.93576C15.7208 4.13716 16.3375 3.28745 16.7413 2.63948C16.9437 2.31465 17.094 2.03818 17.1947 1.8408C17.245 1.74205 17.2831 1.66289 17.3091 1.60714C17.3221 1.57927 17.3321 1.55723 17.3391 1.54149C17.3426 1.53362 17.3454 1.52734 17.3475 1.52268C17.3485 1.52035 17.3493 1.51844 17.35 1.51693C17.3503 1.51618 17.3505 1.51553 17.3507 1.51499C17.3509 1.51472 17.3513 1.5139 17.3514 1.51368C17.3514 1.51373 17.3514 1.51357 17.3514 1.51368C17.3514 1.51355 17.3514 1.51368 16.8128 1.28287ZM14.068 4.0813C13.3969 4.71115 12.5736 5.29404 11.5882 5.68193L12.0174 6.7724C13.1686 6.31927 14.1148 5.64459 14.87 4.93576L14.068 4.0813ZM14.0547 4.92287L15.2266 6.09474L16.0552 5.26607L14.8833 4.09419L14.0547 4.92287ZM8.41434 6.75162V8.70474H9.58621V6.75162H8.41434ZM11.3117 6.54669L12.4154 8.24302L13.3976 7.60396L12.2939 5.90763L11.3117 6.54669ZM3.1172 4.09419L1.94533 5.26607L2.77397 6.09474L3.94584 4.92287L3.1172 4.09419Z" fill="#6B6B6B"/>
</g>
<defs>
<clipPath id="clip0_24_37345">
<rect y="0.522461" width="18" height="9" rx="4.5" fill="white"/>
</clipPath>
</defs>
</svg>
