<svg width="16" height="14" viewBox="0 0 16 14" fill="none" xmlns="http://www.w3.org/2000/svg">
<mask id="path-1-outside-1_26_18392" maskUnits="userSpaceOnUse" x="0" y="-1" width="16" height="16" fill="black">
<rect fill="white" y="-1" width="16" height="16"/>
<path d="M4.01847 0.0704502C4.69512 0.459019 5.039 1.22699 5.37548 1.93851C5.39462 1.97887 5.39462 1.97887 5.41414 2.02005C5.59045 2.39378 5.59045 2.39378 5.59045 2.47827C5.61747 2.47821 5.61747 2.47821 5.64504 2.47815C6.71315 2.47589 7.78127 2.47415 8.84938 2.4731C8.97769 2.47297 9.106 2.47284 9.23431 2.47271C9.25985 2.47268 9.2854 2.47266 9.31171 2.47263C9.72507 2.47219 10.1384 2.47139 10.5518 2.47046C10.9761 2.46951 11.4003 2.46895 11.8246 2.46875C12.0863 2.46861 12.348 2.46817 12.6097 2.46735C12.7893 2.46681 12.9689 2.46665 13.1485 2.46678C13.252 2.46685 13.3555 2.46669 13.4591 2.4662C13.5715 2.4657 13.684 2.46582 13.7964 2.4661C13.8289 2.4658 13.8613 2.46551 13.8947 2.4652C14.2135 2.46731 14.499 2.54645 14.7421 2.78188C14.9365 3.03282 14.9973 3.28799 14.9958 3.61182C14.9959 3.64018 14.9961 3.66855 14.9962 3.69777C14.9965 3.79237 14.9964 3.88696 14.9963 3.98156C14.9964 4.04956 14.9965 4.11757 14.9967 4.18558C14.9971 4.37001 14.9972 4.55443 14.9971 4.73886C14.997 4.89295 14.9972 5.04703 14.9973 5.20111C14.9977 5.5647 14.9977 5.92828 14.9975 6.29186C14.9973 6.66666 14.9977 7.04146 14.9984 7.41626C14.9989 7.73832 14.9991 8.06037 14.999 8.38243C14.9989 8.57466 14.999 8.76689 14.9994 8.95912C14.9998 9.13993 14.9998 9.32074 14.9994 9.50155C14.9993 9.56779 14.9994 9.63403 14.9996 9.70027C15 9.79094 14.9997 9.88158 14.9993 9.97225C14.9995 9.99824 14.9998 10.0242 15 10.051C14.9971 10.3789 14.8979 10.6031 14.6934 10.8387C14.5235 11.0066 14.3335 11.0843 14.1065 11.0856C14.0776 11.0858 14.0487 11.0861 14.0189 11.0863C13.9874 11.0864 13.956 11.0865 13.9235 11.0866C13.8902 11.0868 13.8569 11.087 13.8226 11.0873C13.7123 11.0879 13.602 11.0883 13.4918 11.0887C13.4353 11.0889 13.4353 11.0889 13.3777 11.0891C13.1991 11.0897 13.0205 11.0902 12.842 11.0905C12.6565 11.0908 12.471 11.0914 12.2856 11.0927C12.0865 11.094 11.8875 11.0946 11.6884 11.0947C11.6125 11.0949 11.5366 11.0953 11.4607 11.0959C11.3546 11.0967 11.2485 11.0967 11.1424 11.0965C11.111 11.0969 11.0796 11.0973 11.0472 11.0978C10.9113 11.0967 10.8335 11.0957 10.7157 11.0162C10.6285 10.9103 10.6018 10.8176 10.5962 10.6758C10.6288 10.5476 10.6561 10.4696 10.7493 10.3832C10.8846 10.3179 11.0094 10.3245 11.1557 10.3255C11.203 10.3252 11.203 10.3252 11.2513 10.3249C11.3196 10.3246 11.388 10.3245 11.4563 10.3246C11.5645 10.3248 11.6726 10.3243 11.7808 10.3237C12.0494 10.3222 12.318 10.3218 12.5866 10.3214C12.8136 10.321 13.0407 10.3202 13.2677 10.3189C13.3743 10.3184 13.4809 10.3186 13.5874 10.3187C13.6528 10.3184 13.7181 10.3181 13.7834 10.3177C13.813 10.3179 13.8427 10.3181 13.8732 10.3183C13.9006 10.3181 13.928 10.3178 13.9562 10.3175C13.9917 10.3175 13.9917 10.3175 14.0279 10.3174C14.1241 10.2998 14.1765 10.2739 14.2508 10.2035C14.2662 10.1131 14.2709 10.0437 14.2692 9.95315C14.2694 9.92744 14.2695 9.90173 14.2696 9.87524C14.2699 9.78882 14.269 9.70246 14.2682 9.61604C14.2682 9.55421 14.2682 9.49238 14.2683 9.43054C14.2683 9.26243 14.2674 9.09434 14.2663 8.92623C14.2654 8.75064 14.2653 8.57505 14.2651 8.39946C14.2646 8.06684 14.2634 7.73423 14.2618 7.40161C14.2601 7.02299 14.2593 6.64437 14.2585 6.26574C14.2569 5.48678 14.2542 4.70782 14.2508 3.92886C14.2254 3.95213 14.2001 3.97539 14.174 3.99936C14.1404 4.03014 14.1068 4.06091 14.0733 4.09168C14.0566 4.10699 14.0399 4.12229 14.0228 4.13806C13.9124 4.23918 13.801 4.33747 13.6865 4.43278C13.6529 4.46087 13.6194 4.48898 13.5858 4.51711C13.569 4.53125 13.5521 4.54538 13.5347 4.55994C13.4459 4.63484 13.3579 4.7109 13.27 4.78699C13.2521 4.80243 13.2343 4.81786 13.2159 4.83376C13.1797 4.86507 13.1435 4.89639 13.1073 4.92771C13.0176 5.0053 12.9279 5.08273 12.8381 5.16018C12.8023 5.1911 12.7664 5.22203 12.7306 5.25295C12.0857 5.80958 11.4408 6.3662 10.7959 6.92282C10.7692 6.9458 10.7692 6.9458 10.7421 6.96924C10.7064 7.00007 10.6706 7.03088 10.6349 7.06168C10.5436 7.1404 10.4525 7.21933 10.3616 7.29865C9.56464 7.99341 9.56464 7.99341 9.09143 7.97703C8.66614 7.91879 8.3684 7.63079 8.04788 7.34411C7.92242 7.23227 7.79413 7.12483 7.66532 7.0177C7.46943 6.85439 7.27761 6.68642 7.08737 6.51526C6.93061 6.37449 6.77119 6.23824 6.61025 6.1033C6.45083 5.96955 6.29362 5.83265 6.13606 5.69626C6.06424 5.63412 5.99235 5.57208 5.92045 5.51006C5.88487 5.47935 5.84932 5.44862 5.81379 5.41786C5.7208 5.33742 5.62748 5.25752 5.53359 5.17837C5.51419 5.16191 5.4948 5.14545 5.47481 5.12849C5.4379 5.09718 5.40087 5.06603 5.36372 5.03506C5.25962 4.94646 5.17705 4.85505 5.09909 4.7385C5.08189 4.74956 5.0647 4.76063 5.04699 4.77203C4.96907 4.82209 4.89109 4.87201 4.8131 4.92193C4.78604 4.93935 4.75898 4.95676 4.7311 4.97471C4.69206 4.99966 4.69206 4.99966 4.65223 5.02511C4.62827 5.04048 4.6043 5.05585 4.57961 5.07169C4.51559 5.10958 4.51559 5.10958 4.42346 5.14331C4.38801 5.20482 4.38801 5.20482 4.36204 5.27825C4.35341 5.30021 4.34478 5.32217 4.33589 5.3448C4.22582 5.6715 4.24901 5.96875 4.36204 6.2903C4.42525 6.4292 4.49672 6.56193 4.56933 6.69511C4.60041 6.75316 4.63149 6.81121 4.66254 6.86928C4.69461 6.92917 4.72682 6.98897 4.75904 7.04877C4.85918 7.23494 4.95687 7.42267 5.05494 7.61017C5.20748 7.90067 5.36029 8.19099 5.51368 8.48095C5.5306 8.51307 5.54753 8.54519 5.56497 8.57828C5.66729 8.77133 5.77398 8.9603 5.88526 9.14728C5.92827 9.22522 5.92827 9.22522 5.95898 9.32642C6.01562 9.36308 6.01562 9.36308 6.08182 9.39389C6.12239 9.42154 6.1627 9.44966 6.20274 9.47823C6.37015 9.59359 6.55127 9.69741 6.75545 9.64996C6.99352 9.56573 7.19828 9.42507 7.41148 9.28386C7.75856 9.06052 8.09429 8.96565 8.4945 9.046C9.30652 9.27966 9.77627 10.2229 10.1771 10.9539C10.4515 11.4699 10.682 12.058 10.627 12.6662C10.5668 12.9171 10.4681 13.1184 10.2637 13.2577C10.2186 13.2865 10.1733 13.3149 10.1279 13.343C10.1056 13.3572 10.0833 13.3714 10.0604 13.386C9.67954 13.6265 9.29312 13.7834 8.86494 13.889C8.8427 13.8945 8.82046 13.9001 8.79754 13.9057C7.65484 14.1748 6.47919 13.8491 5.50828 13.1684C5.15792 12.9155 4.84841 12.6129 4.5463 12.2951C4.52326 12.2712 4.50022 12.2472 4.47648 12.2226C3.85329 11.5597 3.43275 10.7058 3.00539 9.88805C2.89545 9.67779 2.7844 9.46827 2.67297 9.25895C2.46312 8.86439 2.25464 8.46897 2.0475 8.07267C2.00418 7.99007 1.96049 7.90773 1.91661 7.82549C1.15757 6.39292 0.769189 4.64895 1.14525 3.0142C1.23663 2.6429 1.36723 2.30792 1.53669 1.97225C1.55442 1.93585 1.57216 1.89945 1.59043 1.86195C1.71394 1.61729 1.8606 1.40657 2.02805 1.19635C2.05367 1.1633 2.07928 1.13025 2.10567 1.0962C2.52298 0.567728 3.33687 -0.244456 4.01847 0.0704502ZM2.84799 1.37504C2.82064 1.40513 2.79329 1.43522 2.7651 1.46623C2.7387 1.49284 2.71229 1.51945 2.68509 1.54687C2.11686 2.13138 1.75504 3.02495 1.71551 3.87741C1.70646 4.47025 1.70905 5.03703 1.84379 5.6156C1.85005 5.64331 1.8563 5.67102 1.86274 5.69957C2.08071 6.64066 2.52312 7.46893 2.9721 8.29554C3.12218 8.57207 3.26893 8.85051 3.41386 9.13034C4.05066 10.3822 4.05066 10.3822 4.85077 11.51C4.91029 11.5812 4.96735 11.6541 5.02423 11.7279C5.13173 11.8631 5.24973 11.9784 5.37548 12.0927C5.39816 12.1138 5.42085 12.1349 5.44422 12.1567C6.23013 12.8717 7.23366 13.3358 8.26696 13.2331C8.80908 13.1702 9.5189 13.0062 9.92061 12.565C9.97731 11.8052 9.38419 10.9232 8.97243 10.3595C8.93079 10.307 8.8886 10.2549 8.84575 10.2035C8.81576 10.166 8.81576 10.166 8.78517 10.1276C8.64767 9.96427 8.4925 9.82123 8.29296 9.76497C8.02303 9.75886 7.83186 9.89896 7.60582 10.0475C7.17728 10.328 6.80194 10.4872 6.29871 10.3701C5.715 10.1899 5.38825 9.7794 5.09909 9.22522C5.08111 9.19094 5.06312 9.15665 5.04459 9.12133C4.94019 8.92201 4.83645 8.72229 4.73308 8.52232C4.62043 8.30449 4.50601 8.08784 4.39083 7.87161C4.36505 7.82303 4.36505 7.82303 4.33875 7.77347C4.25459 7.61491 4.17009 7.45659 4.08472 7.29881C4.05298 7.24002 4.02139 7.18114 3.98986 7.12222C3.95013 7.04801 3.91014 6.97397 3.86983 6.90014C3.59547 6.38539 3.49664 5.85944 3.62079 5.2739C3.7298 4.83145 3.95613 4.56498 4.30962 4.34198C4.39803 4.28783 4.48667 4.23422 4.57559 4.18109C4.90705 3.99336 4.90705 3.99336 5.09909 3.65898C5.15343 3.14481 4.94643 2.68202 4.73191 2.24097C4.7003 2.17557 4.66963 2.10972 4.63915 2.04367C4.42287 1.5794 4.14747 1.01146 3.71712 0.757796C3.42586 0.757796 3.04709 1.15894 2.84799 1.37504ZM5.77472 3.25417C5.77472 3.36549 5.77472 3.47682 5.77472 3.59152C5.7427 3.80802 5.68727 4.0063 5.59045 4.19874C5.59045 4.22101 5.59045 4.24327 5.59045 4.26621C5.66102 4.32857 5.73202 4.38732 5.80543 4.44543C5.98517 4.59038 6.16099 4.73899 6.33326 4.89452C6.51108 5.05475 6.69111 5.21076 6.87393 5.36404C7.03336 5.4978 7.19056 5.63469 7.34813 5.77108C7.43779 5.84867 7.52757 5.9261 7.61734 6.00355C7.65317 6.03447 7.68899 6.0654 7.72482 6.09632C7.74256 6.11163 7.76029 6.12694 7.77857 6.14271C7.9398 6.28186 7.9398 6.28186 7.99357 6.32828C8.02929 6.35911 8.06502 6.38992 8.10075 6.42072C8.19206 6.49944 8.28319 6.57837 8.37406 6.65769C8.46345 6.73564 8.55322 6.81302 8.64346 6.88978C8.68871 6.92829 8.73377 6.96705 8.77881 7.00584C8.93608 7.13528 9.04534 7.21175 9.24498 7.20113C9.48279 7.11106 9.67051 6.91718 9.8639 6.7453C9.95378 6.66576 10.0447 6.58772 10.1356 6.50957C10.1714 6.47866 10.2072 6.44773 10.2431 6.4168C13.0377 4.00477 13.0377 4.00477 13.0915 3.95831C13.1271 3.92762 13.1627 3.89692 13.1982 3.8662C13.2918 3.78533 13.3856 3.70463 13.4795 3.6242C13.4991 3.60743 13.5186 3.59067 13.5387 3.5734C13.5761 3.54132 13.6136 3.50929 13.651 3.47733C13.7334 3.40658 13.8081 3.3356 13.8822 3.25417C11.2068 3.25417 8.53128 3.25417 5.77472 3.25417Z"/>
</mask>
<path d="M4.01847 0.0704502C4.69512 0.459019 5.039 1.22699 5.37548 1.93851C5.39462 1.97887 5.39462 1.97887 5.41414 2.02005C5.59045 2.39378 5.59045 2.39378 5.59045 2.47827C5.61747 2.47821 5.61747 2.47821 5.64504 2.47815C6.71315 2.47589 7.78127 2.47415 8.84938 2.4731C8.97769 2.47297 9.106 2.47284 9.23431 2.47271C9.25985 2.47268 9.2854 2.47266 9.31171 2.47263C9.72507 2.47219 10.1384 2.47139 10.5518 2.47046C10.9761 2.46951 11.4003 2.46895 11.8246 2.46875C12.0863 2.46861 12.348 2.46817 12.6097 2.46735C12.7893 2.46681 12.9689 2.46665 13.1485 2.46678C13.252 2.46685 13.3555 2.46669 13.4591 2.4662C13.5715 2.4657 13.684 2.46582 13.7964 2.4661C13.8289 2.4658 13.8613 2.46551 13.8947 2.4652C14.2135 2.46731 14.499 2.54645 14.7421 2.78188C14.9365 3.03282 14.9973 3.28799 14.9958 3.61182C14.9959 3.64018 14.9961 3.66855 14.9962 3.69777C14.9965 3.79237 14.9964 3.88696 14.9963 3.98156C14.9964 4.04956 14.9965 4.11757 14.9967 4.18558C14.9971 4.37001 14.9972 4.55443 14.9971 4.73886C14.997 4.89295 14.9972 5.04703 14.9973 5.20111C14.9977 5.5647 14.9977 5.92828 14.9975 6.29186C14.9973 6.66666 14.9977 7.04146 14.9984 7.41626C14.9989 7.73832 14.9991 8.06037 14.999 8.38243C14.9989 8.57466 14.999 8.76689 14.9994 8.95912C14.9998 9.13993 14.9998 9.32074 14.9994 9.50155C14.9993 9.56779 14.9994 9.63403 14.9996 9.70027C15 9.79094 14.9997 9.88158 14.9993 9.97225C14.9995 9.99824 14.9998 10.0242 15 10.051C14.9971 10.3789 14.8979 10.6031 14.6934 10.8387C14.5235 11.0066 14.3335 11.0843 14.1065 11.0856C14.0776 11.0858 14.0487 11.0861 14.0189 11.0863C13.9874 11.0864 13.956 11.0865 13.9235 11.0866C13.8902 11.0868 13.8569 11.087 13.8226 11.0873C13.7123 11.0879 13.602 11.0883 13.4918 11.0887C13.4353 11.0889 13.4353 11.0889 13.3777 11.0891C13.1991 11.0897 13.0205 11.0902 12.842 11.0905C12.6565 11.0908 12.471 11.0914 12.2856 11.0927C12.0865 11.094 11.8875 11.0946 11.6884 11.0947C11.6125 11.0949 11.5366 11.0953 11.4607 11.0959C11.3546 11.0967 11.2485 11.0967 11.1424 11.0965C11.111 11.0969 11.0796 11.0973 11.0472 11.0978C10.9113 11.0967 10.8335 11.0957 10.7157 11.0162C10.6285 10.9103 10.6018 10.8176 10.5962 10.6758C10.6288 10.5476 10.6561 10.4696 10.7493 10.3832C10.8846 10.3179 11.0094 10.3245 11.1557 10.3255C11.203 10.3252 11.203 10.3252 11.2513 10.3249C11.3196 10.3246 11.388 10.3245 11.4563 10.3246C11.5645 10.3248 11.6726 10.3243 11.7808 10.3237C12.0494 10.3222 12.318 10.3218 12.5866 10.3214C12.8136 10.321 13.0407 10.3202 13.2677 10.3189C13.3743 10.3184 13.4809 10.3186 13.5874 10.3187C13.6528 10.3184 13.7181 10.3181 13.7834 10.3177C13.813 10.3179 13.8427 10.3181 13.8732 10.3183C13.9006 10.3181 13.928 10.3178 13.9562 10.3175C13.9917 10.3175 13.9917 10.3175 14.0279 10.3174C14.1241 10.2998 14.1765 10.2739 14.2508 10.2035C14.2662 10.1131 14.2709 10.0437 14.2692 9.95315C14.2694 9.92744 14.2695 9.90173 14.2696 9.87524C14.2699 9.78882 14.269 9.70246 14.2682 9.61604C14.2682 9.55421 14.2682 9.49238 14.2683 9.43054C14.2683 9.26243 14.2674 9.09434 14.2663 8.92623C14.2654 8.75064 14.2653 8.57505 14.2651 8.39946C14.2646 8.06684 14.2634 7.73423 14.2618 7.40161C14.2601 7.02299 14.2593 6.64437 14.2585 6.26574C14.2569 5.48678 14.2542 4.70782 14.2508 3.92886C14.2254 3.95213 14.2001 3.97539 14.174 3.99936C14.1404 4.03014 14.1068 4.06091 14.0733 4.09168C14.0566 4.10699 14.0399 4.12229 14.0228 4.13806C13.9124 4.23918 13.801 4.33747 13.6865 4.43278C13.6529 4.46087 13.6194 4.48898 13.5858 4.51711C13.569 4.53125 13.5521 4.54538 13.5347 4.55994C13.4459 4.63484 13.3579 4.7109 13.27 4.78699C13.2521 4.80243 13.2343 4.81786 13.2159 4.83376C13.1797 4.86507 13.1435 4.89639 13.1073 4.92771C13.0176 5.0053 12.9279 5.08273 12.8381 5.16018C12.8023 5.1911 12.7664 5.22203 12.7306 5.25295C12.0857 5.80958 11.4408 6.3662 10.7959 6.92282C10.7692 6.9458 10.7692 6.9458 10.7421 6.96924C10.7064 7.00007 10.6706 7.03088 10.6349 7.06168C10.5436 7.1404 10.4525 7.21933 10.3616 7.29865C9.56464 7.99341 9.56464 7.99341 9.09143 7.97703C8.66614 7.91879 8.3684 7.63079 8.04788 7.34411C7.92242 7.23227 7.79413 7.12483 7.66532 7.0177C7.46943 6.85439 7.27761 6.68642 7.08737 6.51526C6.93061 6.37449 6.77119 6.23824 6.61025 6.1033C6.45083 5.96955 6.29362 5.83265 6.13606 5.69626C6.06424 5.63412 5.99235 5.57208 5.92045 5.51006C5.88487 5.47935 5.84932 5.44862 5.81379 5.41786C5.7208 5.33742 5.62748 5.25752 5.53359 5.17837C5.51419 5.16191 5.4948 5.14545 5.47481 5.12849C5.4379 5.09718 5.40087 5.06603 5.36372 5.03506C5.25962 4.94646 5.17705 4.85505 5.09909 4.7385C5.08189 4.74956 5.0647 4.76063 5.04699 4.77203C4.96907 4.82209 4.89109 4.87201 4.8131 4.92193C4.78604 4.93935 4.75898 4.95676 4.7311 4.97471C4.69206 4.99966 4.69206 4.99966 4.65223 5.02511C4.62827 5.04048 4.6043 5.05585 4.57961 5.07169C4.51559 5.10958 4.51559 5.10958 4.42346 5.14331C4.38801 5.20482 4.38801 5.20482 4.36204 5.27825C4.35341 5.30021 4.34478 5.32217 4.33589 5.3448C4.22582 5.6715 4.24901 5.96875 4.36204 6.2903C4.42525 6.4292 4.49672 6.56193 4.56933 6.69511C4.60041 6.75316 4.63149 6.81121 4.66254 6.86928C4.69461 6.92917 4.72682 6.98897 4.75904 7.04877C4.85918 7.23494 4.95687 7.42267 5.05494 7.61017C5.20748 7.90067 5.36029 8.19099 5.51368 8.48095C5.5306 8.51307 5.54753 8.54519 5.56497 8.57828C5.66729 8.77133 5.77398 8.9603 5.88526 9.14728C5.92827 9.22522 5.92827 9.22522 5.95898 9.32642C6.01562 9.36308 6.01562 9.36308 6.08182 9.39389C6.12239 9.42154 6.1627 9.44966 6.20274 9.47823C6.37015 9.59359 6.55127 9.69741 6.75545 9.64996C6.99352 9.56573 7.19828 9.42507 7.41148 9.28386C7.75856 9.06052 8.09429 8.96565 8.4945 9.046C9.30652 9.27966 9.77627 10.2229 10.1771 10.9539C10.4515 11.4699 10.682 12.058 10.627 12.6662C10.5668 12.9171 10.4681 13.1184 10.2637 13.2577C10.2186 13.2865 10.1733 13.3149 10.1279 13.343C10.1056 13.3572 10.0833 13.3714 10.0604 13.386C9.67954 13.6265 9.29312 13.7834 8.86494 13.889C8.8427 13.8945 8.82046 13.9001 8.79754 13.9057C7.65484 14.1748 6.47919 13.8491 5.50828 13.1684C5.15792 12.9155 4.84841 12.6129 4.5463 12.2951C4.52326 12.2712 4.50022 12.2472 4.47648 12.2226C3.85329 11.5597 3.43275 10.7058 3.00539 9.88805C2.89545 9.67779 2.7844 9.46827 2.67297 9.25895C2.46312 8.86439 2.25464 8.46897 2.0475 8.07267C2.00418 7.99007 1.96049 7.90773 1.91661 7.82549C1.15757 6.39292 0.769189 4.64895 1.14525 3.0142C1.23663 2.6429 1.36723 2.30792 1.53669 1.97225C1.55442 1.93585 1.57216 1.89945 1.59043 1.86195C1.71394 1.61729 1.8606 1.40657 2.02805 1.19635C2.05367 1.1633 2.07928 1.13025 2.10567 1.0962C2.52298 0.567728 3.33687 -0.244456 4.01847 0.0704502ZM2.84799 1.37504C2.82064 1.40513 2.79329 1.43522 2.7651 1.46623C2.7387 1.49284 2.71229 1.51945 2.68509 1.54687C2.11686 2.13138 1.75504 3.02495 1.71551 3.87741C1.70646 4.47025 1.70905 5.03703 1.84379 5.6156C1.85005 5.64331 1.8563 5.67102 1.86274 5.69957C2.08071 6.64066 2.52312 7.46893 2.9721 8.29554C3.12218 8.57207 3.26893 8.85051 3.41386 9.13034C4.05066 10.3822 4.05066 10.3822 4.85077 11.51C4.91029 11.5812 4.96735 11.6541 5.02423 11.7279C5.13173 11.8631 5.24973 11.9784 5.37548 12.0927C5.39816 12.1138 5.42085 12.1349 5.44422 12.1567C6.23013 12.8717 7.23366 13.3358 8.26696 13.2331C8.80908 13.1702 9.5189 13.0062 9.92061 12.565C9.97731 11.8052 9.38419 10.9232 8.97243 10.3595C8.93079 10.307 8.8886 10.2549 8.84575 10.2035C8.81576 10.166 8.81576 10.166 8.78517 10.1276C8.64767 9.96427 8.4925 9.82123 8.29296 9.76497C8.02303 9.75886 7.83186 9.89896 7.60582 10.0475C7.17728 10.328 6.80194 10.4872 6.29871 10.3701C5.715 10.1899 5.38825 9.7794 5.09909 9.22522C5.08111 9.19094 5.06312 9.15665 5.04459 9.12133C4.94019 8.92201 4.83645 8.72229 4.73308 8.52232C4.62043 8.30449 4.50601 8.08784 4.39083 7.87161C4.36505 7.82303 4.36505 7.82303 4.33875 7.77347C4.25459 7.61491 4.17009 7.45659 4.08472 7.29881C4.05298 7.24002 4.02139 7.18114 3.98986 7.12222C3.95013 7.04801 3.91014 6.97397 3.86983 6.90014C3.59547 6.38539 3.49664 5.85944 3.62079 5.2739C3.7298 4.83145 3.95613 4.56498 4.30962 4.34198C4.39803 4.28783 4.48667 4.23422 4.57559 4.18109C4.90705 3.99336 4.90705 3.99336 5.09909 3.65898C5.15343 3.14481 4.94643 2.68202 4.73191 2.24097C4.7003 2.17557 4.66963 2.10972 4.63915 2.04367C4.42287 1.5794 4.14747 1.01146 3.71712 0.757796C3.42586 0.757796 3.04709 1.15894 2.84799 1.37504ZM5.77472 3.25417C5.77472 3.36549 5.77472 3.47682 5.77472 3.59152C5.7427 3.80802 5.68727 4.0063 5.59045 4.19874C5.59045 4.22101 5.59045 4.24327 5.59045 4.26621C5.66102 4.32857 5.73202 4.38732 5.80543 4.44543C5.98517 4.59038 6.16099 4.73899 6.33326 4.89452C6.51108 5.05475 6.69111 5.21076 6.87393 5.36404C7.03336 5.4978 7.19056 5.63469 7.34813 5.77108C7.43779 5.84867 7.52757 5.9261 7.61734 6.00355C7.65317 6.03447 7.68899 6.0654 7.72482 6.09632C7.74256 6.11163 7.76029 6.12694 7.77857 6.14271C7.9398 6.28186 7.9398 6.28186 7.99357 6.32828C8.02929 6.35911 8.06502 6.38992 8.10075 6.42072C8.19206 6.49944 8.28319 6.57837 8.37406 6.65769C8.46345 6.73564 8.55322 6.81302 8.64346 6.88978C8.68871 6.92829 8.73377 6.96705 8.77881 7.00584C8.93608 7.13528 9.04534 7.21175 9.24498 7.20113C9.48279 7.11106 9.67051 6.91718 9.8639 6.7453C9.95378 6.66576 10.0447 6.58772 10.1356 6.50957C10.1714 6.47866 10.2072 6.44773 10.2431 6.4168C13.0377 4.00477 13.0377 4.00477 13.0915 3.95831C13.1271 3.92762 13.1627 3.89692 13.1982 3.8662C13.2918 3.78533 13.3856 3.70463 13.4795 3.6242C13.4991 3.60743 13.5186 3.59067 13.5387 3.5734C13.5761 3.54132 13.6136 3.50929 13.651 3.47733C13.7334 3.40658 13.8081 3.3356 13.8822 3.25417C11.2068 3.25417 8.53128 3.25417 5.77472 3.25417Z" fill="black"/>
<path d="M4.01847 0.0704502C4.69512 0.459019 5.039 1.22699 5.37548 1.93851C5.39462 1.97887 5.39462 1.97887 5.41414 2.02005C5.59045 2.39378 5.59045 2.39378 5.59045 2.47827C5.61747 2.47821 5.61747 2.47821 5.64504 2.47815C6.71315 2.47589 7.78127 2.47415 8.84938 2.4731C8.97769 2.47297 9.106 2.47284 9.23431 2.47271C9.25985 2.47268 9.2854 2.47266 9.31171 2.47263C9.72507 2.47219 10.1384 2.47139 10.5518 2.47046C10.9761 2.46951 11.4003 2.46895 11.8246 2.46875C12.0863 2.46861 12.348 2.46817 12.6097 2.46735C12.7893 2.46681 12.9689 2.46665 13.1485 2.46678C13.252 2.46685 13.3555 2.46669 13.4591 2.4662C13.5715 2.4657 13.684 2.46582 13.7964 2.4661C13.8289 2.4658 13.8613 2.46551 13.8947 2.4652C14.2135 2.46731 14.499 2.54645 14.7421 2.78188C14.9365 3.03282 14.9973 3.28799 14.9958 3.61182C14.9959 3.64018 14.9961 3.66855 14.9962 3.69777C14.9965 3.79237 14.9964 3.88696 14.9963 3.98156C14.9964 4.04956 14.9965 4.11757 14.9967 4.18558C14.9971 4.37001 14.9972 4.55443 14.9971 4.73886C14.997 4.89295 14.9972 5.04703 14.9973 5.20111C14.9977 5.5647 14.9977 5.92828 14.9975 6.29186C14.9973 6.66666 14.9977 7.04146 14.9984 7.41626C14.9989 7.73832 14.9991 8.06037 14.999 8.38243C14.9989 8.57466 14.999 8.76689 14.9994 8.95912C14.9998 9.13993 14.9998 9.32074 14.9994 9.50155C14.9993 9.56779 14.9994 9.63403 14.9996 9.70027C15 9.79094 14.9997 9.88158 14.9993 9.97225C14.9995 9.99824 14.9998 10.0242 15 10.051C14.9971 10.3789 14.8979 10.6031 14.6934 10.8387C14.5235 11.0066 14.3335 11.0843 14.1065 11.0856C14.0776 11.0858 14.0487 11.0861 14.0189 11.0863C13.9874 11.0864 13.956 11.0865 13.9235 11.0866C13.8902 11.0868 13.8569 11.087 13.8226 11.0873C13.7123 11.0879 13.602 11.0883 13.4918 11.0887C13.4353 11.0889 13.4353 11.0889 13.3777 11.0891C13.1991 11.0897 13.0205 11.0902 12.842 11.0905C12.6565 11.0908 12.471 11.0914 12.2856 11.0927C12.0865 11.094 11.8875 11.0946 11.6884 11.0947C11.6125 11.0949 11.5366 11.0953 11.4607 11.0959C11.3546 11.0967 11.2485 11.0967 11.1424 11.0965C11.111 11.0969 11.0796 11.0973 11.0472 11.0978C10.9113 11.0967 10.8335 11.0957 10.7157 11.0162C10.6285 10.9103 10.6018 10.8176 10.5962 10.6758C10.6288 10.5476 10.6561 10.4696 10.7493 10.3832C10.8846 10.3179 11.0094 10.3245 11.1557 10.3255C11.203 10.3252 11.203 10.3252 11.2513 10.3249C11.3196 10.3246 11.388 10.3245 11.4563 10.3246C11.5645 10.3248 11.6726 10.3243 11.7808 10.3237C12.0494 10.3222 12.318 10.3218 12.5866 10.3214C12.8136 10.321 13.0407 10.3202 13.2677 10.3189C13.3743 10.3184 13.4809 10.3186 13.5874 10.3187C13.6528 10.3184 13.7181 10.3181 13.7834 10.3177C13.813 10.3179 13.8427 10.3181 13.8732 10.3183C13.9006 10.3181 13.928 10.3178 13.9562 10.3175C13.9917 10.3175 13.9917 10.3175 14.0279 10.3174C14.1241 10.2998 14.1765 10.2739 14.2508 10.2035C14.2662 10.1131 14.2709 10.0437 14.2692 9.95315C14.2694 9.92744 14.2695 9.90173 14.2696 9.87524C14.2699 9.78882 14.269 9.70246 14.2682 9.61604C14.2682 9.55421 14.2682 9.49238 14.2683 9.43054C14.2683 9.26243 14.2674 9.09434 14.2663 8.92623C14.2654 8.75064 14.2653 8.57505 14.2651 8.39946C14.2646 8.06684 14.2634 7.73423 14.2618 7.40161C14.2601 7.02299 14.2593 6.64437 14.2585 6.26574C14.2569 5.48678 14.2542 4.70782 14.2508 3.92886C14.2254 3.95213 14.2001 3.97539 14.174 3.99936C14.1404 4.03014 14.1068 4.06091 14.0733 4.09168C14.0566 4.10699 14.0399 4.12229 14.0228 4.13806C13.9124 4.23918 13.801 4.33747 13.6865 4.43278C13.6529 4.46087 13.6194 4.48898 13.5858 4.51711C13.569 4.53125 13.5521 4.54538 13.5347 4.55994C13.4459 4.63484 13.3579 4.7109 13.27 4.78699C13.2521 4.80243 13.2343 4.81786 13.2159 4.83376C13.1797 4.86507 13.1435 4.89639 13.1073 4.92771C13.0176 5.0053 12.9279 5.08273 12.8381 5.16018C12.8023 5.1911 12.7664 5.22203 12.7306 5.25295C12.0857 5.80958 11.4408 6.3662 10.7959 6.92282C10.7692 6.9458 10.7692 6.9458 10.7421 6.96924C10.7064 7.00007 10.6706 7.03088 10.6349 7.06168C10.5436 7.1404 10.4525 7.21933 10.3616 7.29865C9.56464 7.99341 9.56464 7.99341 9.09143 7.97703C8.66614 7.91879 8.3684 7.63079 8.04788 7.34411C7.92242 7.23227 7.79413 7.12483 7.66532 7.0177C7.46943 6.85439 7.27761 6.68642 7.08737 6.51526C6.93061 6.37449 6.77119 6.23824 6.61025 6.1033C6.45083 5.96955 6.29362 5.83265 6.13606 5.69626C6.06424 5.63412 5.99235 5.57208 5.92045 5.51006C5.88487 5.47935 5.84932 5.44862 5.81379 5.41786C5.7208 5.33742 5.62748 5.25752 5.53359 5.17837C5.51419 5.16191 5.4948 5.14545 5.47481 5.12849C5.4379 5.09718 5.40087 5.06603 5.36372 5.03506C5.25962 4.94646 5.17705 4.85505 5.09909 4.7385C5.08189 4.74956 5.0647 4.76063 5.04699 4.77203C4.96907 4.82209 4.89109 4.87201 4.8131 4.92193C4.78604 4.93935 4.75898 4.95676 4.7311 4.97471C4.69206 4.99966 4.69206 4.99966 4.65223 5.02511C4.62827 5.04048 4.6043 5.05585 4.57961 5.07169C4.51559 5.10958 4.51559 5.10958 4.42346 5.14331C4.38801 5.20482 4.38801 5.20482 4.36204 5.27825C4.35341 5.30021 4.34478 5.32217 4.33589 5.3448C4.22582 5.6715 4.24901 5.96875 4.36204 6.2903C4.42525 6.4292 4.49672 6.56193 4.56933 6.69511C4.60041 6.75316 4.63149 6.81121 4.66254 6.86928C4.69461 6.92917 4.72682 6.98897 4.75904 7.04877C4.85918 7.23494 4.95687 7.42267 5.05494 7.61017C5.20748 7.90067 5.36029 8.19099 5.51368 8.48095C5.5306 8.51307 5.54753 8.54519 5.56497 8.57828C5.66729 8.77133 5.77398 8.9603 5.88526 9.14728C5.92827 9.22522 5.92827 9.22522 5.95898 9.32642C6.01562 9.36308 6.01562 9.36308 6.08182 9.39389C6.12239 9.42154 6.1627 9.44966 6.20274 9.47823C6.37015 9.59359 6.55127 9.69741 6.75545 9.64996C6.99352 9.56573 7.19828 9.42507 7.41148 9.28386C7.75856 9.06052 8.09429 8.96565 8.4945 9.046C9.30652 9.27966 9.77627 10.2229 10.1771 10.9539C10.4515 11.4699 10.682 12.058 10.627 12.6662C10.5668 12.9171 10.4681 13.1184 10.2637 13.2577C10.2186 13.2865 10.1733 13.3149 10.1279 13.343C10.1056 13.3572 10.0833 13.3714 10.0604 13.386C9.67954 13.6265 9.29312 13.7834 8.86494 13.889C8.8427 13.8945 8.82046 13.9001 8.79754 13.9057C7.65484 14.1748 6.47919 13.8491 5.50828 13.1684C5.15792 12.9155 4.84841 12.6129 4.5463 12.2951C4.52326 12.2712 4.50022 12.2472 4.47648 12.2226C3.85329 11.5597 3.43275 10.7058 3.00539 9.88805C2.89545 9.67779 2.7844 9.46827 2.67297 9.25895C2.46312 8.86439 2.25464 8.46897 2.0475 8.07267C2.00418 7.99007 1.96049 7.90773 1.91661 7.82549C1.15757 6.39292 0.769189 4.64895 1.14525 3.0142C1.23663 2.6429 1.36723 2.30792 1.53669 1.97225C1.55442 1.93585 1.57216 1.89945 1.59043 1.86195C1.71394 1.61729 1.8606 1.40657 2.02805 1.19635C2.05367 1.1633 2.07928 1.13025 2.10567 1.0962C2.52298 0.567728 3.33687 -0.244456 4.01847 0.0704502ZM2.84799 1.37504C2.82064 1.40513 2.79329 1.43522 2.7651 1.46623C2.7387 1.49284 2.71229 1.51945 2.68509 1.54687C2.11686 2.13138 1.75504 3.02495 1.71551 3.87741C1.70646 4.47025 1.70905 5.03703 1.84379 5.6156C1.85005 5.64331 1.8563 5.67102 1.86274 5.69957C2.08071 6.64066 2.52312 7.46893 2.9721 8.29554C3.12218 8.57207 3.26893 8.85051 3.41386 9.13034C4.05066 10.3822 4.05066 10.3822 4.85077 11.51C4.91029 11.5812 4.96735 11.6541 5.02423 11.7279C5.13173 11.8631 5.24973 11.9784 5.37548 12.0927C5.39816 12.1138 5.42085 12.1349 5.44422 12.1567C6.23013 12.8717 7.23366 13.3358 8.26696 13.2331C8.80908 13.1702 9.5189 13.0062 9.92061 12.565C9.97731 11.8052 9.38419 10.9232 8.97243 10.3595C8.93079 10.307 8.8886 10.2549 8.84575 10.2035C8.81576 10.166 8.81576 10.166 8.78517 10.1276C8.64767 9.96427 8.4925 9.82123 8.29296 9.76497C8.02303 9.75886 7.83186 9.89896 7.60582 10.0475C7.17728 10.328 6.80194 10.4872 6.29871 10.3701C5.715 10.1899 5.38825 9.7794 5.09909 9.22522C5.08111 9.19094 5.06312 9.15665 5.04459 9.12133C4.94019 8.92201 4.83645 8.72229 4.73308 8.52232C4.62043 8.30449 4.50601 8.08784 4.39083 7.87161C4.36505 7.82303 4.36505 7.82303 4.33875 7.77347C4.25459 7.61491 4.17009 7.45659 4.08472 7.29881C4.05298 7.24002 4.02139 7.18114 3.98986 7.12222C3.95013 7.04801 3.91014 6.97397 3.86983 6.90014C3.59547 6.38539 3.49664 5.85944 3.62079 5.2739C3.7298 4.83145 3.95613 4.56498 4.30962 4.34198C4.39803 4.28783 4.48667 4.23422 4.57559 4.18109C4.90705 3.99336 4.90705 3.99336 5.09909 3.65898C5.15343 3.14481 4.94643 2.68202 4.73191 2.24097C4.7003 2.17557 4.66963 2.10972 4.63915 2.04367C4.42287 1.5794 4.14747 1.01146 3.71712 0.757796C3.42586 0.757796 3.04709 1.15894 2.84799 1.37504ZM5.77472 3.25417C5.77472 3.36549 5.77472 3.47682 5.77472 3.59152C5.7427 3.80802 5.68727 4.0063 5.59045 4.19874C5.59045 4.22101 5.59045 4.24327 5.59045 4.26621C5.66102 4.32857 5.73202 4.38732 5.80543 4.44543C5.98517 4.59038 6.16099 4.73899 6.33326 4.89452C6.51108 5.05475 6.69111 5.21076 6.87393 5.36404C7.03336 5.4978 7.19056 5.63469 7.34813 5.77108C7.43779 5.84867 7.52757 5.9261 7.61734 6.00355C7.65317 6.03447 7.68899 6.0654 7.72482 6.09632C7.74256 6.11163 7.76029 6.12694 7.77857 6.14271C7.9398 6.28186 7.9398 6.28186 7.99357 6.32828C8.02929 6.35911 8.06502 6.38992 8.10075 6.42072C8.19206 6.49944 8.28319 6.57837 8.37406 6.65769C8.46345 6.73564 8.55322 6.81302 8.64346 6.88978C8.68871 6.92829 8.73377 6.96705 8.77881 7.00584C8.93608 7.13528 9.04534 7.21175 9.24498 7.20113C9.48279 7.11106 9.67051 6.91718 9.8639 6.7453C9.95378 6.66576 10.0447 6.58772 10.1356 6.50957C10.1714 6.47866 10.2072 6.44773 10.2431 6.4168C13.0377 4.00477 13.0377 4.00477 13.0915 3.95831C13.1271 3.92762 13.1627 3.89692 13.1982 3.8662C13.2918 3.78533 13.3856 3.70463 13.4795 3.6242C13.4991 3.60743 13.5186 3.59067 13.5387 3.5734C13.5761 3.54132 13.6136 3.50929 13.651 3.47733C13.7334 3.40658 13.8081 3.3356 13.8822 3.25417C11.2068 3.25417 8.53128 3.25417 5.77472 3.25417Z" stroke="black" stroke-width="0.1" mask="url(#path-1-outside-1_26_18392)"/>
</svg>
