<svg width="32" height="32" viewBox="0 0 32 32" fill="none" xmlns="http://www.w3.org/2000/svg">
<g clip-path="url(#clip0_71_34568)">
<path d="M19.1307 19.1055C21.052 18.0157 22.3433 15.9496 22.3433 13.5874C22.3433 10.0787 19.5024 7.23779 15.9937 7.23779C12.485 7.23779 9.65038 10.0787 9.65038 13.5811C9.65038 15.9496 10.948 18.0094 12.863 19.0992C8.88188 20.1134 5.65038 22.9921 4.15747 26.7591C7.0866 29.9779 11.3071 32 16 32C20.6929 32 24.9134 29.9779 27.8425 26.7591C26.3496 22.9921 23.1181 20.1134 19.1307 19.1055Z" fill="#FFA703"/>
<path d="M25.2977 11.4835H24.3024C23.3638 7.77323 20 5.01418 16 5.01418C12 5.01418 8.63626 7.76693 7.69768 11.4835H6.70241C6.36225 11.4835 6.08508 11.7606 6.08508 12.1008V15.1181C6.08508 15.4583 6.36225 15.7354 6.70241 15.7354H7.96225C8.3465 15.7354 8.64256 15.389 8.57327 15.0173C8.44729 14.3622 8.40319 13.6756 8.45989 12.9701C8.76225 9.23465 11.8363 6.23622 15.5843 6.03465C19.9433 5.79528 23.5717 9.27874 23.5717 13.5874C23.5717 14.0787 23.5213 14.5512 23.4331 15.0173C23.3575 15.3953 23.6599 15.7417 24.0378 15.7417H24.1512C23.8867 16.5606 23.2126 18.085 21.7386 18.9039C20.504 19.5906 18.9481 19.6535 17.115 19.0803C17.0205 18.6583 16.5544 18.1606 16.0756 17.9276C15.4583 17.6189 15.0741 17.8772 14.8536 18.3181C14.6331 18.7591 14.6646 19.2189 15.2756 19.5276C15.8174 19.7984 16.6363 19.8551 16.9764 19.5591C17.852 19.8299 18.6709 19.9685 19.4331 19.9685C20.378 19.9685 21.2284 19.7606 21.978 19.3386C23.7103 18.3748 24.4221 16.5858 24.6741 15.7354H25.2977C25.6378 15.7354 25.915 15.4583 25.915 15.1181V12.1008C25.915 11.7606 25.6378 11.4835 25.2977 11.4835Z" fill="#034953"/>
</g>
<rect x="0.571429" y="0.571429" width="30.8571" height="30.8571" rx="15.4286" stroke="#034953" stroke-width="1.14286"/>
<defs>
<clipPath id="clip0_71_34568">
<rect width="32" height="32" rx="16" fill="white"/>
</clipPath>
</defs>
</svg>
