<svg width="43" height="43" viewBox="0 0 43 43" fill="none" xmlns="http://www.w3.org/2000/svg">
<g clip-path="url(#clip0_1_1870)">
<rect x="0.308838" y="1.34273" width="41.7957" height="40.8547" rx="20.4274" fill="#EEF2FF"/>
<path d="M32.6681 22.0122C32.6681 21.1165 32.5922 20.4628 32.428 19.7849H21.7498V23.828H28.0177C27.8914 24.8328 27.209 26.346 25.6925 27.3628L25.6713 27.4981L29.0475 30.0036L29.2814 30.026C31.4297 28.1254 32.6681 25.3291 32.6681 22.0122Z" fill="#4285F4"/>
<path d="M21.7493 32.665C24.82 32.665 27.3979 31.6966 29.2808 30.0261L25.6919 27.3628C24.7316 28.0044 23.4426 28.4523 21.7493 28.4523C18.7417 28.4523 16.1891 26.5518 15.2791 23.9249L15.1458 23.9357L11.6351 26.5384L11.5892 26.6607C13.4594 30.2197 17.301 32.665 21.7493 32.665Z" fill="#34A853"/>
<path d="M15.28 23.9249C15.0399 23.247 14.901 22.5206 14.901 21.7701C14.901 21.0195 15.0399 20.2932 15.2674 19.6153L15.261 19.471L11.7064 16.8265L11.5901 16.8795C10.8192 18.3564 10.3769 20.0148 10.3769 21.7701C10.3769 23.5254 10.8192 25.1838 11.5901 26.6606L15.28 23.9249Z" fill="#FBBC05"/>
<path d="M21.7493 15.0881C23.8849 15.0881 25.3255 15.9718 26.1469 16.7103L29.3567 13.7081C27.3854 11.9528 24.8201 10.8755 21.7493 10.8755C17.3011 10.8755 13.4594 13.3207 11.5892 16.8797L15.2665 19.6155C16.1891 16.9887 18.7417 15.0881 21.7493 15.0881Z" fill="#EB4335"/>
</g>
<defs>
<clipPath id="clip0_1_1870">
<rect width="43" height="42" fill="white" transform="translate(0 0.518585)"/>
</clipPath>
</defs>
</svg>
