<svg width="14" height="14" viewBox="0 0 14 14" fill="none" xmlns="http://www.w3.org/2000/svg">
<path d="M10.5222 0.839098C10.5511 0.839232 10.5799 0.839367 10.6096 0.839505C11.2641 0.849302 11.7638 1.10629 12.2227 1.55858C12.241 1.57656 12.2593 1.59453 12.2782 1.61305C12.5591 1.9105 12.7185 2.29933 12.7883 2.69676C12.7916 2.71517 12.7949 2.73358 12.7983 2.75255C12.8695 3.20216 12.8557 3.66387 12.8556 4.11752C12.8556 4.18706 12.8557 4.2566 12.8558 4.32614C12.856 4.4944 12.8561 4.66266 12.8561 4.83093C12.8562 4.96798 12.8562 5.10503 12.8563 5.24209C12.8565 5.63232 12.8567 6.02255 12.8567 6.41278C12.8567 6.44422 12.8567 6.44422 12.8566 6.47629C12.8566 6.49727 12.8566 6.51825 12.8566 6.53987C12.8566 6.87941 12.8569 7.21894 12.8573 7.55847C12.8577 7.90872 12.8579 8.25898 12.8578 8.60924C12.8578 8.80522 12.8579 9.00121 12.8582 9.19719C12.8585 9.38177 12.8585 9.56635 12.8583 9.75093C12.8582 9.81811 12.8583 9.88529 12.8585 9.95246C12.8626 11.7463 12.8626 11.7463 12.25 12.414C12.2322 12.4344 12.2143 12.4547 12.196 12.4757C11.807 12.8945 11.2796 13.1329 10.711 13.1611C10.3824 13.1698 10.0595 13.1441 9.73365 13.1051C9.69176 13.1002 9.64987 13.0953 9.60798 13.0904C9.13633 13.0349 8.66543 12.9735 8.1946 12.9115C8.148 12.9053 8.10139 12.8992 8.05479 12.8931C7.83632 12.8644 7.61787 12.8356 7.39942 12.8067C7.15037 12.7737 6.90128 12.7411 6.65215 12.7086C6.45701 12.6832 6.2619 12.6575 6.06682 12.6316C5.95134 12.6163 5.83586 12.6011 5.72033 12.5862C4.82911 12.4709 4.01917 12.3475 3.40773 11.6245C3.01489 11.0971 2.83523 10.4748 2.89846 9.81639C2.93507 9.63922 3.00687 9.52304 3.14786 9.41051C3.31354 9.30855 3.47409 9.30447 3.66408 9.3242C3.82496 9.37062 3.92594 9.45857 4.01955 9.59764C4.09199 9.76082 4.11187 9.89223 4.11354 10.0693C4.12327 10.3637 4.1723 10.6085 4.36765 10.8385C4.40236 10.8828 4.40236 10.8828 4.42971 10.9648C4.47948 10.9939 4.47948 10.9939 4.53908 11.0195C4.60205 11.0598 4.66476 11.1004 4.72718 11.1416C4.98446 11.2682 5.27576 11.293 5.55674 11.3293C5.60075 11.3351 5.64476 11.341 5.68877 11.3468C5.80751 11.3626 5.92628 11.3781 6.04506 11.3936C6.17003 11.4099 6.29498 11.4265 6.41992 11.443C6.62985 11.4707 6.83979 11.4983 7.04975 11.5258C7.34443 11.5644 7.63908 11.6032 7.93371 11.6421C8.16401 11.6725 8.39431 11.7028 8.62462 11.7331C8.66122 11.7379 8.66123 11.7379 8.69857 11.7429C8.83981 11.7614 8.98107 11.78 9.12232 11.7985C9.16481 11.804 9.2073 11.8096 9.24979 11.8152C9.46709 11.8438 9.68448 11.8715 9.90211 11.8975C9.92092 11.8998 9.93973 11.9021 9.95911 11.9044C10.4423 11.9614 10.8733 11.9912 11.2714 11.6838C11.5503 11.4325 11.5968 11.1012 11.6211 10.7461C11.6246 10.6402 11.6249 10.5344 11.6248 10.4284C11.6248 10.3979 11.6249 10.3673 11.625 10.3359C11.6251 10.2343 11.6251 10.1327 11.6251 10.0311C11.6252 9.95797 11.6253 9.88482 11.6254 9.81167C11.6256 9.63404 11.6257 9.4564 11.6257 9.27877C11.6257 9.13424 11.6258 8.98971 11.6258 8.84518C11.6261 8.43458 11.6262 8.02397 11.6262 7.61337C11.6262 7.59127 11.6262 7.56918 11.6262 7.54641C11.6262 7.52429 11.6262 7.50217 11.6262 7.47938C11.6262 7.1211 11.6264 6.76283 11.6268 6.40456C11.6272 6.03586 11.6274 5.66716 11.6274 5.29847C11.6274 5.0918 11.6274 4.88514 11.6277 4.67848C11.628 4.50249 11.628 4.3265 11.6279 4.15052C11.6278 4.06091 11.6278 3.97131 11.628 3.88171C11.6584 3.04555 11.6584 3.04555 11.2845 2.3335C10.9623 2.05336 10.6502 2.04365 10.2381 2.06887C10.0092 2.08501 9.78174 2.11657 9.5542 2.14594C9.49747 2.15316 9.44074 2.16037 9.38401 2.16757C9.19087 2.19217 8.99779 2.21716 8.80471 2.24217C8.75042 2.24919 8.69614 2.25621 8.64185 2.26322C8.185 2.32227 7.72824 2.38203 7.27157 2.44248C7.04163 2.47292 6.81168 2.50314 6.58168 2.53311C6.41658 2.55463 6.25152 2.57639 6.08648 2.59833C5.98914 2.61126 5.89179 2.62409 5.7944 2.63666C5.68678 2.65056 5.57923 2.66494 5.47169 2.67937C5.42492 2.68529 5.42492 2.68529 5.37721 2.69134C5.08229 2.73167 4.80301 2.79278 4.56108 2.97309C4.51174 3.0078 4.51174 3.0078 4.42971 3.03514C4.4008 3.08552 4.4008 3.08552 4.37502 3.14452C4.34859 3.18236 4.32179 3.21994 4.2947 3.25731C4.15174 3.47348 4.12568 3.66968 4.11696 3.92381C4.10898 4.1412 4.09805 4.33759 3.94724 4.50775C3.7853 4.65628 3.63492 4.68857 3.4182 4.68431C3.25481 4.66734 3.15615 4.60447 3.0403 4.4912C2.92271 4.31648 2.88487 4.15658 2.88991 3.94774C2.89024 3.9263 2.89057 3.90486 2.89091 3.88277C2.90701 3.20898 3.14043 2.6343 3.61441 2.15437C4.11017 1.69308 4.71953 1.54591 5.36978 1.46196C5.41557 1.45585 5.46135 1.44973 5.50713 1.44359C5.6301 1.42715 5.7531 1.41102 5.87612 1.39495C6.00584 1.37796 6.13552 1.3607 6.26521 1.34347C6.48298 1.31457 6.70078 1.28587 6.91859 1.25729C7.19657 1.22082 7.47451 1.18404 7.75244 1.14715C7.9933 1.11519 8.23418 1.08338 8.47506 1.05159C8.55154 1.04149 8.62802 1.03136 8.70451 1.02124C10.0999 0.836667 10.0999 0.836667 10.5222 0.839098Z" fill="#FF0000"/>
<path d="M6.99489 4.064C7.02157 4.06322 7.04826 4.06244 7.07575 4.06165C7.31594 4.09592 7.46576 4.25074 7.62932 4.41597C7.65292 4.43937 7.67651 4.46277 7.70082 4.48688C7.76503 4.55069 7.82898 4.61474 7.89282 4.67892C7.95994 4.74632 8.02732 4.81344 8.09466 4.88061C8.20766 4.99341 8.32043 5.10644 8.43307 5.2196C8.56296 5.35009 8.69325 5.48019 8.82374 5.61008C8.93614 5.72197 9.04831 5.83408 9.16031 5.94637C9.22705 6.01327 9.29385 6.0801 9.36086 6.14674C9.43558 6.22109 9.50985 6.29588 9.58408 6.37072C9.61711 6.40342 9.61711 6.40342 9.65081 6.43678C9.7928 6.58093 9.9054 6.716 9.94033 6.92142C9.94004 6.94736 9.93976 6.9733 9.93947 7.00003C9.93989 7.03894 9.93989 7.03894 9.94033 7.07864C9.89977 7.31718 9.74953 7.46556 9.58408 7.62934C9.56068 7.65293 9.53728 7.67652 9.51317 7.70083C9.44936 7.76504 9.38531 7.829 9.32112 7.89283C9.25373 7.95995 9.18661 8.02733 9.11944 8.09467C9.00664 8.20767 8.89361 8.32044 8.78045 8.43308C8.64996 8.56298 8.51986 8.69326 8.38997 8.82376C8.27808 8.93615 8.16597 9.04832 8.05368 9.16033C7.98678 9.22706 7.91995 9.29387 7.85331 9.36087C7.77896 9.43559 7.70417 9.50986 7.62932 9.5841C7.60753 9.60611 7.58573 9.62813 7.56327 9.65082C7.41912 9.79282 7.28405 9.90542 7.07863 9.94034C6.8497 9.93785 6.7055 9.90277 6.5403 9.74124C6.43072 9.57843 6.36615 9.41463 6.39846 9.21487C6.46308 8.97488 6.63958 8.81937 6.8116 8.65166C6.84152 8.622 6.8714 8.59231 6.90125 8.56259C6.97935 8.48501 7.05785 8.40786 7.13644 8.33078C7.21679 8.25184 7.29675 8.1725 7.37674 8.09319C7.53334 7.93805 7.69037 7.78336 7.84767 7.62894C7.81589 7.62887 7.7841 7.62881 7.75135 7.62874C6.99644 7.62717 6.24153 7.62518 5.48663 7.62268C5.39367 7.62237 5.30072 7.62206 5.20776 7.62176C5.18926 7.6217 5.17075 7.62164 5.15168 7.62158C4.85221 7.62061 4.55274 7.61993 4.25327 7.61936C3.94588 7.61876 3.6385 7.61785 3.33112 7.61667C3.15851 7.61601 2.9859 7.6155 2.81329 7.61533C2.6508 7.61516 2.48831 7.61462 2.32582 7.61378C2.26621 7.61354 2.2066 7.61344 2.14699 7.61349C2.06552 7.61353 1.98406 7.61308 1.90259 7.6125C1.86732 7.61269 1.86732 7.61269 1.83134 7.6129C1.62258 7.61045 1.43745 7.56246 1.28517 7.41019C1.16937 7.24273 1.12781 7.09375 1.14846 6.89066C1.18717 6.7361 1.25094 6.59668 1.38558 6.50357C1.50828 6.43016 1.60954 6.39522 1.75104 6.39468C1.77288 6.39453 1.79472 6.39438 1.81722 6.39422C1.84105 6.3942 1.86488 6.39417 1.88944 6.39414C1.91488 6.39401 1.94032 6.39387 1.96653 6.39373C2.05197 6.39331 2.13741 6.39308 2.22285 6.39285C2.28401 6.39259 2.34518 6.39232 2.40635 6.39203C2.57261 6.39129 2.73886 6.39072 2.90511 6.39017C3.07879 6.38958 3.25246 6.38883 3.42613 6.38809C3.7177 6.38688 4.00926 6.38577 4.30082 6.38472C4.60113 6.38365 4.90144 6.38251 5.20175 6.3813C5.22026 6.38123 5.23878 6.38116 5.25785 6.38108C5.35072 6.3807 5.44358 6.38033 5.53645 6.37995C6.30686 6.37684 7.07727 6.37392 7.84767 6.37112C7.83073 6.35448 7.81378 6.33784 7.79632 6.32069C7.63625 6.16337 7.47652 6.00571 7.31715 5.84768C7.23521 5.76646 7.15315 5.68536 7.0708 5.60456C6.99125 5.5265 6.91204 5.44811 6.83305 5.36947C6.80294 5.33961 6.77271 5.30987 6.74236 5.28026C6.55088 5.09327 6.41754 4.9542 6.38649 4.67923C6.39404 4.51943 6.44752 4.36246 6.55291 4.24109C6.68749 4.12061 6.81246 4.06639 6.99489 4.064Z" fill="#FF0000"/>
</svg>
