<svg width="14" height="14" viewBox="0 0 14 14" fill="none" xmlns="http://www.w3.org/2000/svg">
<mask id="path-1-inside-1_26_18384" fill="white">
<path d="M6.99147 0.000111006C7.01788 0.000160787 7.0443 0.000210568 7.07152 0.000261858C7.46296 0.0015025 7.84382 0.0154002 8.22895 0.0905753C8.2657 0.0971695 8.2657 0.0971695 8.30318 0.103897C9.60163 0.338849 10.7761 0.952799 11.7462 1.83873C11.7943 1.882 11.8429 1.92291 11.8936 1.96302C11.9735 2.03227 12.0396 2.10556 12.1079 2.18598C12.1667 2.25398 12.2281 2.31907 12.2896 2.38461C13.1134 3.29187 13.6444 4.45139 13.8906 5.64474C13.8947 5.66415 13.8987 5.68356 13.9029 5.70356C13.9844 6.13075 14.0016 6.55776 13.9999 6.99147C13.9998 7.03109 13.9998 7.03109 13.9997 7.07152C13.9985 7.46296 13.9846 7.84382 13.9094 8.22895C13.905 8.25345 13.9006 8.27794 13.8961 8.30318C13.6612 9.60163 13.0472 10.7761 12.1613 11.7462C12.118 11.7943 12.0771 11.8429 12.037 11.8936C11.9677 11.9735 11.8944 12.0396 11.814 12.1079C11.746 12.1667 11.6809 12.2281 11.6154 12.2896C10.7081 13.1134 9.54861 13.6444 8.35526 13.8906C8.33585 13.8947 8.31644 13.8987 8.29644 13.9029C7.86925 13.9844 7.44224 14.0016 7.00853 13.9999C6.98211 13.9998 6.9557 13.9998 6.92848 13.9997C6.53704 13.9985 6.15618 13.9846 5.77105 13.9094C5.74655 13.905 5.72206 13.9006 5.69682 13.8961C4.39837 13.6612 3.22392 13.0472 2.25382 12.1613C2.20571 12.118 2.1571 12.0771 2.10639 12.037C2.02649 11.9677 1.96038 11.8944 1.89207 11.814C1.8333 11.746 1.77191 11.6809 1.7104 11.6154C0.886636 10.7081 0.355601 9.54861 0.109351 8.35526C0.105324 8.33585 0.101298 8.31644 0.0971494 8.29644C0.0156193 7.86925 -0.00159067 7.44224 0.000111006 7.00853C0.000160787 6.98211 0.000210568 6.9557 0.000261858 6.92848C0.0015025 6.53704 0.0154002 6.15618 0.0905753 5.77105C0.0971695 5.7343 0.0971695 5.7343 0.103897 5.69682C0.338849 4.39837 0.952799 3.22392 1.83873 2.25382C1.882 2.20571 1.92291 2.1571 1.96302 2.10639C2.03227 2.02649 2.10556 1.96038 2.18598 1.89207C2.25398 1.8333 2.31907 1.77191 2.38461 1.7104C3.29187 0.886636 4.45139 0.355601 5.64474 0.109351C5.66415 0.105324 5.68356 0.101298 5.70356 0.0971494C6.13075 0.0156193 6.55776 -0.00159067 6.99147 0.000111006ZM7.40965 0.855255C7.40965 1.78352 7.40965 2.71179 7.40965 3.66818C7.74149 3.65159 8.06324 3.63426 8.3911 3.59137C8.41872 3.58783 8.41872 3.58783 8.4469 3.58422C8.68873 3.55313 8.92965 3.51801 9.16944 3.4736C9.20505 3.46711 9.20505 3.46711 9.24139 3.4605C9.29578 3.44977 9.34963 3.43638 9.40328 3.42239C9.44515 3.33864 9.40896 3.26619 9.38504 3.18002C9.37983 3.16078 9.37462 3.14155 9.36925 3.12173C9.35185 3.05802 9.33408 2.99441 9.31623 2.93081C9.30714 2.89815 9.30714 2.89815 9.29786 2.86484C9.20522 2.53353 9.10176 2.20702 8.9868 1.88279C8.98015 1.86395 8.9735 1.84512 8.96664 1.82571C8.92882 1.71913 8.88965 1.61319 8.84911 1.50762C8.82919 1.45452 8.81068 1.40105 8.79216 1.34745C8.73239 1.17013 8.73239 1.17013 8.61166 1.03381C8.54712 1.01081 8.48807 1.00025 8.42012 0.991805C8.37079 0.981533 8.32147 0.971219 8.27215 0.960868C8.21967 0.951637 8.16714 0.942607 8.11459 0.933771C8.08894 0.929159 8.0633 0.924547 8.03687 0.919796C7.82598 0.883529 7.6258 0.870694 7.40965 0.855255ZM6.09877 0.904754C6.0514 0.91154 6.0514 0.91154 6.00308 0.918462C5.93934 0.927899 5.87568 0.937934 5.81212 0.948559C5.74767 0.959292 5.683 0.968719 5.61818 0.97691C5.44805 1.00129 5.44805 1.00129 5.31396 1.09924C5.27642 1.17129 5.25036 1.24239 5.22485 1.31952C5.2014 1.37856 5.17793 1.43759 5.15444 1.49661C5.12988 1.56266 5.10556 1.62881 5.08147 1.69504C5.07506 1.71258 5.06865 1.73012 5.06204 1.74819C4.86594 2.28635 4.697 2.83655 4.56941 3.39508C4.68287 3.43551 4.79248 3.46308 4.91121 3.48299C4.94514 3.4887 4.97906 3.49441 5.01401 3.5003C5.05015 3.50621 5.08629 3.5121 5.12244 3.51798C5.14082 3.521 5.1592 3.52401 5.17813 3.52712C5.65061 3.6045 6.10921 3.64413 6.59035 3.66818C6.59035 2.73992 6.59035 1.81165 6.59035 0.855255C6.42289 0.855255 6.26413 0.880067 6.09877 0.904754ZM2.95812 2.3573C2.93675 2.37565 2.91539 2.39399 2.89337 2.41288C2.78256 2.50819 2.67539 2.60526 2.57578 2.71233C2.57578 2.73036 2.57578 2.74838 2.57578 2.76695C3.05035 2.95377 3.05035 2.95377 3.52993 3.1271C3.57592 3.14289 3.57592 3.14289 3.62284 3.159C3.69766 3.18393 3.69766 3.18393 3.77742 3.14929C3.80212 3.08288 3.82114 3.02012 3.83844 2.95172C3.8466 2.92134 3.8466 2.92134 3.85491 2.89034C3.86657 2.84683 3.87807 2.80328 3.88944 2.7597C3.91888 2.64689 3.94937 2.53436 3.9799 2.42184C3.98589 2.39968 3.99189 2.37751 3.99806 2.35467C4.05344 2.15169 4.11757 1.9523 4.18758 1.7539C4.22947 1.6352 4.22947 1.6352 4.24169 1.51069C3.83671 1.51069 3.24848 2.10129 2.95812 2.3573ZM9.75831 1.51069C9.7972 1.70199 9.85208 1.88373 9.91363 2.06884C10.007 2.35283 10.0874 2.63866 10.1585 2.92905C10.1657 2.95751 10.173 2.98598 10.1804 3.0153C10.1866 3.04056 10.1928 3.06582 10.1992 3.09185C10.2108 3.12028 10.2108 3.12028 10.2226 3.14929C10.3235 3.18293 10.3545 3.16608 10.4534 3.13126C10.498 3.11574 10.498 3.11574 10.5435 3.09989C10.575 3.0886 10.6066 3.0773 10.6391 3.06566C10.671 3.05441 10.7029 3.04317 10.7358 3.03158C10.9678 2.94925 11.1973 2.86242 11.4242 2.76695C11.2634 2.38185 10.7255 2.07912 10.395 1.85719C10.3716 1.8415 10.3483 1.8258 10.3243 1.80963C10.0584 1.60996 10.0584 1.60996 9.75831 1.51069ZM1.97496 3.42239C1.32277 4.29315 0.855255 5.49324 0.855255 6.59035C1.66636 6.59035 2.47747 6.59035 3.31315 6.59035C3.34019 6.19381 3.36723 5.79727 3.39508 5.38871C3.43406 5.07693 3.47364 4.7667 3.5179 4.4559C3.53673 4.31201 3.54928 4.16799 3.55894 4.02321C3.37948 3.94903 3.19815 3.88228 3.01481 3.81832C2.70851 3.71145 2.40942 3.59807 2.11557 3.46058C2.03695 3.4187 2.03695 3.4187 1.97496 3.42239ZM11.8584 3.47157C11.495 3.63703 11.1282 3.77421 10.7497 3.90051C10.7312 3.9067 10.7127 3.91288 10.6937 3.91925C10.6431 3.93614 10.5924 3.95285 10.5417 3.96956C10.4715 3.98889 10.4715 3.98889 10.4411 4.02321C10.4457 4.28786 10.4961 4.55402 10.5332 4.8152C10.6069 5.40454 10.6464 5.9978 10.6868 6.59035C11.498 6.59035 12.3091 6.59035 13.1447 6.59035C13.1276 6.33263 13.1099 6.09727 13.0577 5.84786C13.0487 5.80405 13.0487 5.80405 13.0394 5.75935C12.8751 4.98719 12.5814 4.25179 12.1462 3.59137C12.1291 3.56538 12.1291 3.56538 12.1117 3.53885C12.0844 3.49891 12.0549 3.46045 12.025 3.42239C11.9573 3.42239 11.9199 3.44295 11.8584 3.47157ZM4.40555 4.24169C4.36487 4.37478 4.33735 4.50346 4.31765 4.64163C4.31484 4.66127 4.31203 4.6809 4.30913 4.70113C4.30012 4.76473 4.29136 4.82836 4.28266 4.89201C4.27965 4.91382 4.27664 4.93563 4.27354 4.9581C4.23498 5.23934 4.20064 5.5204 4.17854 5.80348C4.17646 5.82961 4.17438 5.85575 4.17224 5.88267C4.15589 6.1197 4.15976 6.35115 4.15976 6.59035C4.96186 6.59035 5.76395 6.59035 6.59035 6.59035C6.59035 5.90542 6.59035 5.22048 6.59035 4.51479C6.50107 4.49247 6.4287 4.48195 6.33795 4.47671C6.29487 4.47399 6.29487 4.47399 6.25092 4.47122C6.21986 4.46926 6.1888 4.46731 6.1568 4.46529C5.63083 4.42917 5.10123 4.37186 4.58627 4.25577C4.50907 4.23817 4.50907 4.23817 4.40555 4.24169ZM9.33319 4.26868C9.30282 4.27443 9.27245 4.28018 9.24116 4.2861C9.20848 4.29228 9.1758 4.29847 9.14213 4.30485C8.63354 4.39831 8.12196 4.45999 7.60519 4.48172C7.51415 4.48524 7.51415 4.48524 7.40965 4.51479C7.40965 5.19973 7.40965 5.88466 7.40965 6.59035C8.21174 6.59035 9.01384 6.59035 9.84024 6.59035C9.8409 6.19083 9.8409 6.19083 9.81666 5.79386C9.81494 5.77537 9.81323 5.75688 9.81147 5.73782C9.8097 5.71894 9.80792 5.70005 9.8061 5.68059C9.80432 5.66093 9.80254 5.64127 9.8007 5.62102C9.74712 4.92184 9.74712 4.92184 9.59445 4.24169C9.50025 4.24169 9.42488 4.25087 9.33319 4.26868ZM0.855255 7.40965C0.872436 7.66737 0.890066 7.90273 0.942305 8.15214C0.948332 8.18135 0.954358 8.21056 0.960568 8.24065C1.1402 9.08484 1.4757 9.87257 1.97496 10.5776C2.08323 10.5426 2.18826 10.5038 2.29308 10.4596C2.68402 10.2965 3.07585 10.1493 3.48007 10.0225C3.53124 10.0084 3.53124 10.0084 3.55894 9.97679C3.55426 9.71214 3.50392 9.44598 3.46677 9.1848C3.3931 8.59546 3.35355 8.0022 3.31315 7.40965C2.50205 7.40965 1.69094 7.40965 0.855255 7.40965ZM4.15976 7.40965C4.1591 7.80917 4.1591 7.80917 4.18334 8.20614C4.18506 8.22463 4.18677 8.24312 4.18853 8.26218C4.1903 8.28106 4.19208 8.29995 4.1939 8.31941C4.19568 8.33907 4.19746 8.35873 4.1993 8.37898C4.25288 9.07816 4.25288 9.07816 4.40555 9.75831C4.61981 9.73765 4.83022 9.70129 5.04222 9.66443C5.47157 9.59106 5.89904 9.54164 6.3343 9.52183C6.42482 9.51747 6.50172 9.50737 6.59035 9.48521C6.59035 8.80027 6.59035 8.11534 6.59035 7.40965C5.78826 7.40965 4.98616 7.40965 4.15976 7.40965ZM7.40965 7.40965C7.40965 8.09458 7.40965 8.77952 7.40965 9.48521C7.49893 9.50753 7.5713 9.51805 7.66205 9.52329C7.69077 9.5251 7.71949 9.52691 7.74908 9.52878C7.78014 9.53074 7.8112 9.53269 7.8432 9.53471C8.36787 9.57074 8.89864 9.62453 9.41107 9.74689C9.4903 9.75909 9.5443 9.74849 9.62176 9.731C9.68263 9.361 9.7374 8.99104 9.77708 8.61812C9.78033 8.58766 9.78358 8.5572 9.78693 8.52581C9.82541 8.15174 9.84024 7.78734 9.84024 7.40965C9.03814 7.40965 8.23605 7.40965 7.40965 7.40965ZM10.6868 7.40965C10.6598 7.80619 10.6328 8.20273 10.6049 8.61129C10.5659 8.92307 10.5264 9.2333 10.4821 9.5441C10.4633 9.68799 10.4507 9.83201 10.4411 9.97679C10.6205 10.051 10.8019 10.1177 10.9852 10.1817C11.2915 10.2885 11.5906 10.4019 11.8844 10.5394C11.9631 10.5813 11.9631 10.5813 12.025 10.5776C12.6772 9.70685 13.1447 8.50676 13.1447 7.40965C12.3336 7.40965 11.5225 7.40965 10.6868 7.40965ZM7.40965 10.3318C7.40965 11.2601 7.40965 12.1883 7.40965 13.1447C7.65064 13.1275 7.87869 13.1086 8.11459 13.0662C8.14076 13.0618 8.16694 13.0574 8.1939 13.0529C8.26972 13.0396 8.34483 13.0242 8.42012 13.0082C8.44291 13.0043 8.46571 13.0005 8.48919 12.9965C8.58717 12.9741 8.64633 12.9538 8.70576 12.8702C8.7425 12.7935 8.77129 12.7166 8.79904 12.6361C8.81013 12.6062 8.82121 12.5763 8.83263 12.5455C8.86284 12.4628 8.89206 12.3798 8.9207 12.2966C8.93932 12.2426 8.95826 12.1888 8.97727 12.135C9.15478 11.6311 9.30615 11.1247 9.43059 10.6049C9.31713 10.5645 9.20752 10.5369 9.08879 10.517C9.05486 10.5113 9.02094 10.5056 8.98599 10.4997C8.94985 10.4938 8.91371 10.4879 8.87756 10.482C8.84999 10.4775 8.84999 10.4775 8.82187 10.4729C8.34939 10.3955 7.89079 10.3559 7.40965 10.3318ZM4.59672 10.5776C4.55485 10.6614 4.59104 10.7338 4.61496 10.82C4.62017 10.8392 4.62538 10.8585 4.63075 10.8783C4.64815 10.942 4.66592 11.0056 4.68377 11.0692C4.68983 11.091 4.69589 11.1127 4.70214 11.1352C4.79478 11.4665 4.89824 11.793 5.0132 12.1172C5.01985 12.136 5.0265 12.1549 5.03336 12.1743C5.07118 12.2809 5.11035 12.3868 5.15089 12.4924C5.17081 12.5455 5.18932 12.599 5.20784 12.6526C5.26761 12.8299 5.26761 12.8299 5.38834 12.9662C5.45288 12.9892 5.51193 12.9997 5.57988 13.0082C5.62921 13.0185 5.67853 13.0288 5.72785 13.0391C5.78033 13.0484 5.83286 13.0574 5.88541 13.0662C5.91106 13.0708 5.9367 13.0755 5.96313 13.0802C6.17402 13.1165 6.3742 13.1293 6.59035 13.1447C6.59035 12.2165 6.59035 11.2882 6.59035 10.3318C5.94862 10.3318 5.21337 10.3918 4.59672 10.5776ZM10.2499 10.8234C10.1807 11.024 10.1226 11.2267 10.0655 11.431C9.98934 11.7017 9.90785 11.9695 9.8152 12.2351C9.80769 12.2568 9.80018 12.2785 9.79245 12.3008C9.78583 12.3195 9.77921 12.3383 9.77239 12.3576C9.75459 12.4119 9.75459 12.4119 9.75831 12.4893C10.2413 12.3048 10.6576 11.9815 11.0419 11.6427C11.0632 11.6244 11.0846 11.606 11.1066 11.5871C11.2174 11.4918 11.3246 11.3947 11.4242 11.2877C11.4242 11.2696 11.4242 11.2516 11.4242 11.233C10.8531 10.9619 10.8531 10.9619 10.2499 10.8234ZM3.54657 10.8687C3.51685 10.8791 3.48713 10.8894 3.45652 10.9001C3.40921 10.9171 3.40921 10.9171 3.36095 10.9343C3.32902 10.9456 3.29709 10.9568 3.2642 10.9684C3.03224 11.0508 2.80266 11.1376 2.57578 11.233C2.73662 11.6182 3.27452 11.9209 3.60503 12.1428C3.62836 12.1585 3.6517 12.1742 3.67574 12.1904C3.94157 12.39 3.94156 12.39 4.24169 12.4893C4.2028 12.298 4.14792 12.1163 4.08637 11.9312C3.99301 11.6472 3.91257 11.3613 3.84152 11.071C3.83427 11.0425 3.82703 11.014 3.81956 10.9847C3.81337 10.9594 3.80718 10.9342 3.80081 10.9082C3.79309 10.8892 3.78537 10.8702 3.77742 10.8507C3.67651 10.8171 3.64552 10.8339 3.54657 10.8687Z"/>
</mask>
<path d="M6.99147 0.000111006C7.01788 0.000160787 7.0443 0.000210568 7.07152 0.000261858C7.46296 0.0015025 7.84382 0.0154002 8.22895 0.0905753C8.2657 0.0971695 8.2657 0.0971695 8.30318 0.103897C9.60163 0.338849 10.7761 0.952799 11.7462 1.83873C11.7943 1.882 11.8429 1.92291 11.8936 1.96302C11.9735 2.03227 12.0396 2.10556 12.1079 2.18598C12.1667 2.25398 12.2281 2.31907 12.2896 2.38461C13.1134 3.29187 13.6444 4.45139 13.8906 5.64474C13.8947 5.66415 13.8987 5.68356 13.9029 5.70356C13.9844 6.13075 14.0016 6.55776 13.9999 6.99147C13.9998 7.03109 13.9998 7.03109 13.9997 7.07152C13.9985 7.46296 13.9846 7.84382 13.9094 8.22895C13.905 8.25345 13.9006 8.27794 13.8961 8.30318C13.6612 9.60163 13.0472 10.7761 12.1613 11.7462C12.118 11.7943 12.0771 11.8429 12.037 11.8936C11.9677 11.9735 11.8944 12.0396 11.814 12.1079C11.746 12.1667 11.6809 12.2281 11.6154 12.2896C10.7081 13.1134 9.54861 13.6444 8.35526 13.8906C8.33585 13.8947 8.31644 13.8987 8.29644 13.9029C7.86925 13.9844 7.44224 14.0016 7.00853 13.9999C6.98211 13.9998 6.9557 13.9998 6.92848 13.9997C6.53704 13.9985 6.15618 13.9846 5.77105 13.9094C5.74655 13.905 5.72206 13.9006 5.69682 13.8961C4.39837 13.6612 3.22392 13.0472 2.25382 12.1613C2.20571 12.118 2.1571 12.0771 2.10639 12.037C2.02649 11.9677 1.96038 11.8944 1.89207 11.814C1.8333 11.746 1.77191 11.6809 1.7104 11.6154C0.886636 10.7081 0.355601 9.54861 0.109351 8.35526C0.105324 8.33585 0.101298 8.31644 0.0971494 8.29644C0.0156193 7.86925 -0.00159067 7.44224 0.000111006 7.00853C0.000160787 6.98211 0.000210568 6.9557 0.000261858 6.92848C0.0015025 6.53704 0.0154002 6.15618 0.0905753 5.77105C0.0971695 5.7343 0.0971695 5.7343 0.103897 5.69682C0.338849 4.39837 0.952799 3.22392 1.83873 2.25382C1.882 2.20571 1.92291 2.1571 1.96302 2.10639C2.03227 2.02649 2.10556 1.96038 2.18598 1.89207C2.25398 1.8333 2.31907 1.77191 2.38461 1.7104C3.29187 0.886636 4.45139 0.355601 5.64474 0.109351C5.66415 0.105324 5.68356 0.101298 5.70356 0.0971494C6.13075 0.0156193 6.55776 -0.00159067 6.99147 0.000111006ZM7.40965 0.855255C7.40965 1.78352 7.40965 2.71179 7.40965 3.66818C7.74149 3.65159 8.06324 3.63426 8.3911 3.59137C8.41872 3.58783 8.41872 3.58783 8.4469 3.58422C8.68873 3.55313 8.92965 3.51801 9.16944 3.4736C9.20505 3.46711 9.20505 3.46711 9.24139 3.4605C9.29578 3.44977 9.34963 3.43638 9.40328 3.42239C9.44515 3.33864 9.40896 3.26619 9.38504 3.18002C9.37983 3.16078 9.37462 3.14155 9.36925 3.12173C9.35185 3.05802 9.33408 2.99441 9.31623 2.93081C9.30714 2.89815 9.30714 2.89815 9.29786 2.86484C9.20522 2.53353 9.10176 2.20702 8.9868 1.88279C8.98015 1.86395 8.9735 1.84512 8.96664 1.82571C8.92882 1.71913 8.88965 1.61319 8.84911 1.50762C8.82919 1.45452 8.81068 1.40105 8.79216 1.34745C8.73239 1.17013 8.73239 1.17013 8.61166 1.03381C8.54712 1.01081 8.48807 1.00025 8.42012 0.991805C8.37079 0.981533 8.32147 0.971219 8.27215 0.960868C8.21967 0.951637 8.16714 0.942607 8.11459 0.933771C8.08894 0.929159 8.0633 0.924547 8.03687 0.919796C7.82598 0.883529 7.6258 0.870694 7.40965 0.855255ZM6.09877 0.904754C6.0514 0.91154 6.0514 0.91154 6.00308 0.918462C5.93934 0.927899 5.87568 0.937934 5.81212 0.948559C5.74767 0.959292 5.683 0.968719 5.61818 0.97691C5.44805 1.00129 5.44805 1.00129 5.31396 1.09924C5.27642 1.17129 5.25036 1.24239 5.22485 1.31952C5.2014 1.37856 5.17793 1.43759 5.15444 1.49661C5.12988 1.56266 5.10556 1.62881 5.08147 1.69504C5.07506 1.71258 5.06865 1.73012 5.06204 1.74819C4.86594 2.28635 4.697 2.83655 4.56941 3.39508C4.68287 3.43551 4.79248 3.46308 4.91121 3.48299C4.94514 3.4887 4.97906 3.49441 5.01401 3.5003C5.05015 3.50621 5.08629 3.5121 5.12244 3.51798C5.14082 3.521 5.1592 3.52401 5.17813 3.52712C5.65061 3.6045 6.10921 3.64413 6.59035 3.66818C6.59035 2.73992 6.59035 1.81165 6.59035 0.855255C6.42289 0.855255 6.26413 0.880067 6.09877 0.904754ZM2.95812 2.3573C2.93675 2.37565 2.91539 2.39399 2.89337 2.41288C2.78256 2.50819 2.67539 2.60526 2.57578 2.71233C2.57578 2.73036 2.57578 2.74838 2.57578 2.76695C3.05035 2.95377 3.05035 2.95377 3.52993 3.1271C3.57592 3.14289 3.57592 3.14289 3.62284 3.159C3.69766 3.18393 3.69766 3.18393 3.77742 3.14929C3.80212 3.08288 3.82114 3.02012 3.83844 2.95172C3.8466 2.92134 3.8466 2.92134 3.85491 2.89034C3.86657 2.84683 3.87807 2.80328 3.88944 2.7597C3.91888 2.64689 3.94937 2.53436 3.9799 2.42184C3.98589 2.39968 3.99189 2.37751 3.99806 2.35467C4.05344 2.15169 4.11757 1.9523 4.18758 1.7539C4.22947 1.6352 4.22947 1.6352 4.24169 1.51069C3.83671 1.51069 3.24848 2.10129 2.95812 2.3573ZM9.75831 1.51069C9.7972 1.70199 9.85208 1.88373 9.91363 2.06884C10.007 2.35283 10.0874 2.63866 10.1585 2.92905C10.1657 2.95751 10.173 2.98598 10.1804 3.0153C10.1866 3.04056 10.1928 3.06582 10.1992 3.09185C10.2108 3.12028 10.2108 3.12028 10.2226 3.14929C10.3235 3.18293 10.3545 3.16608 10.4534 3.13126C10.498 3.11574 10.498 3.11574 10.5435 3.09989C10.575 3.0886 10.6066 3.0773 10.6391 3.06566C10.671 3.05441 10.7029 3.04317 10.7358 3.03158C10.9678 2.94925 11.1973 2.86242 11.4242 2.76695C11.2634 2.38185 10.7255 2.07912 10.395 1.85719C10.3716 1.8415 10.3483 1.8258 10.3243 1.80963C10.0584 1.60996 10.0584 1.60996 9.75831 1.51069ZM1.97496 3.42239C1.32277 4.29315 0.855255 5.49324 0.855255 6.59035C1.66636 6.59035 2.47747 6.59035 3.31315 6.59035C3.34019 6.19381 3.36723 5.79727 3.39508 5.38871C3.43406 5.07693 3.47364 4.7667 3.5179 4.4559C3.53673 4.31201 3.54928 4.16799 3.55894 4.02321C3.37948 3.94903 3.19815 3.88228 3.01481 3.81832C2.70851 3.71145 2.40942 3.59807 2.11557 3.46058C2.03695 3.4187 2.03695 3.4187 1.97496 3.42239ZM11.8584 3.47157C11.495 3.63703 11.1282 3.77421 10.7497 3.90051C10.7312 3.9067 10.7127 3.91288 10.6937 3.91925C10.6431 3.93614 10.5924 3.95285 10.5417 3.96956C10.4715 3.98889 10.4715 3.98889 10.4411 4.02321C10.4457 4.28786 10.4961 4.55402 10.5332 4.8152C10.6069 5.40454 10.6464 5.9978 10.6868 6.59035C11.498 6.59035 12.3091 6.59035 13.1447 6.59035C13.1276 6.33263 13.1099 6.09727 13.0577 5.84786C13.0487 5.80405 13.0487 5.80405 13.0394 5.75935C12.8751 4.98719 12.5814 4.25179 12.1462 3.59137C12.1291 3.56538 12.1291 3.56538 12.1117 3.53885C12.0844 3.49891 12.0549 3.46045 12.025 3.42239C11.9573 3.42239 11.9199 3.44295 11.8584 3.47157ZM4.40555 4.24169C4.36487 4.37478 4.33735 4.50346 4.31765 4.64163C4.31484 4.66127 4.31203 4.6809 4.30913 4.70113C4.30012 4.76473 4.29136 4.82836 4.28266 4.89201C4.27965 4.91382 4.27664 4.93563 4.27354 4.9581C4.23498 5.23934 4.20064 5.5204 4.17854 5.80348C4.17646 5.82961 4.17438 5.85575 4.17224 5.88267C4.15589 6.1197 4.15976 6.35115 4.15976 6.59035C4.96186 6.59035 5.76395 6.59035 6.59035 6.59035C6.59035 5.90542 6.59035 5.22048 6.59035 4.51479C6.50107 4.49247 6.4287 4.48195 6.33795 4.47671C6.29487 4.47399 6.29487 4.47399 6.25092 4.47122C6.21986 4.46926 6.1888 4.46731 6.1568 4.46529C5.63083 4.42917 5.10123 4.37186 4.58627 4.25577C4.50907 4.23817 4.50907 4.23817 4.40555 4.24169ZM9.33319 4.26868C9.30282 4.27443 9.27245 4.28018 9.24116 4.2861C9.20848 4.29228 9.1758 4.29847 9.14213 4.30485C8.63354 4.39831 8.12196 4.45999 7.60519 4.48172C7.51415 4.48524 7.51415 4.48524 7.40965 4.51479C7.40965 5.19973 7.40965 5.88466 7.40965 6.59035C8.21174 6.59035 9.01384 6.59035 9.84024 6.59035C9.8409 6.19083 9.8409 6.19083 9.81666 5.79386C9.81494 5.77537 9.81323 5.75688 9.81147 5.73782C9.8097 5.71894 9.80792 5.70005 9.8061 5.68059C9.80432 5.66093 9.80254 5.64127 9.8007 5.62102C9.74712 4.92184 9.74712 4.92184 9.59445 4.24169C9.50025 4.24169 9.42488 4.25087 9.33319 4.26868ZM0.855255 7.40965C0.872436 7.66737 0.890066 7.90273 0.942305 8.15214C0.948332 8.18135 0.954358 8.21056 0.960568 8.24065C1.1402 9.08484 1.4757 9.87257 1.97496 10.5776C2.08323 10.5426 2.18826 10.5038 2.29308 10.4596C2.68402 10.2965 3.07585 10.1493 3.48007 10.0225C3.53124 10.0084 3.53124 10.0084 3.55894 9.97679C3.55426 9.71214 3.50392 9.44598 3.46677 9.1848C3.3931 8.59546 3.35355 8.0022 3.31315 7.40965C2.50205 7.40965 1.69094 7.40965 0.855255 7.40965ZM4.15976 7.40965C4.1591 7.80917 4.1591 7.80917 4.18334 8.20614C4.18506 8.22463 4.18677 8.24312 4.18853 8.26218C4.1903 8.28106 4.19208 8.29995 4.1939 8.31941C4.19568 8.33907 4.19746 8.35873 4.1993 8.37898C4.25288 9.07816 4.25288 9.07816 4.40555 9.75831C4.61981 9.73765 4.83022 9.70129 5.04222 9.66443C5.47157 9.59106 5.89904 9.54164 6.3343 9.52183C6.42482 9.51747 6.50172 9.50737 6.59035 9.48521C6.59035 8.80027 6.59035 8.11534 6.59035 7.40965C5.78826 7.40965 4.98616 7.40965 4.15976 7.40965ZM7.40965 7.40965C7.40965 8.09458 7.40965 8.77952 7.40965 9.48521C7.49893 9.50753 7.5713 9.51805 7.66205 9.52329C7.69077 9.5251 7.71949 9.52691 7.74908 9.52878C7.78014 9.53074 7.8112 9.53269 7.8432 9.53471C8.36787 9.57074 8.89864 9.62453 9.41107 9.74689C9.4903 9.75909 9.5443 9.74849 9.62176 9.731C9.68263 9.361 9.7374 8.99104 9.77708 8.61812C9.78033 8.58766 9.78358 8.5572 9.78693 8.52581C9.82541 8.15174 9.84024 7.78734 9.84024 7.40965C9.03814 7.40965 8.23605 7.40965 7.40965 7.40965ZM10.6868 7.40965C10.6598 7.80619 10.6328 8.20273 10.6049 8.61129C10.5659 8.92307 10.5264 9.2333 10.4821 9.5441C10.4633 9.68799 10.4507 9.83201 10.4411 9.97679C10.6205 10.051 10.8019 10.1177 10.9852 10.1817C11.2915 10.2885 11.5906 10.4019 11.8844 10.5394C11.9631 10.5813 11.9631 10.5813 12.025 10.5776C12.6772 9.70685 13.1447 8.50676 13.1447 7.40965C12.3336 7.40965 11.5225 7.40965 10.6868 7.40965ZM7.40965 10.3318C7.40965 11.2601 7.40965 12.1883 7.40965 13.1447C7.65064 13.1275 7.87869 13.1086 8.11459 13.0662C8.14076 13.0618 8.16694 13.0574 8.1939 13.0529C8.26972 13.0396 8.34483 13.0242 8.42012 13.0082C8.44291 13.0043 8.46571 13.0005 8.48919 12.9965C8.58717 12.9741 8.64633 12.9538 8.70576 12.8702C8.7425 12.7935 8.77129 12.7166 8.79904 12.6361C8.81013 12.6062 8.82121 12.5763 8.83263 12.5455C8.86284 12.4628 8.89206 12.3798 8.9207 12.2966C8.93932 12.2426 8.95826 12.1888 8.97727 12.135C9.15478 11.6311 9.30615 11.1247 9.43059 10.6049C9.31713 10.5645 9.20752 10.5369 9.08879 10.517C9.05486 10.5113 9.02094 10.5056 8.98599 10.4997C8.94985 10.4938 8.91371 10.4879 8.87756 10.482C8.84999 10.4775 8.84999 10.4775 8.82187 10.4729C8.34939 10.3955 7.89079 10.3559 7.40965 10.3318ZM4.59672 10.5776C4.55485 10.6614 4.59104 10.7338 4.61496 10.82C4.62017 10.8392 4.62538 10.8585 4.63075 10.8783C4.64815 10.942 4.66592 11.0056 4.68377 11.0692C4.68983 11.091 4.69589 11.1127 4.70214 11.1352C4.79478 11.4665 4.89824 11.793 5.0132 12.1172C5.01985 12.136 5.0265 12.1549 5.03336 12.1743C5.07118 12.2809 5.11035 12.3868 5.15089 12.4924C5.17081 12.5455 5.18932 12.599 5.20784 12.6526C5.26761 12.8299 5.26761 12.8299 5.38834 12.9662C5.45288 12.9892 5.51193 12.9997 5.57988 13.0082C5.62921 13.0185 5.67853 13.0288 5.72785 13.0391C5.78033 13.0484 5.83286 13.0574 5.88541 13.0662C5.91106 13.0708 5.9367 13.0755 5.96313 13.0802C6.17402 13.1165 6.3742 13.1293 6.59035 13.1447C6.59035 12.2165 6.59035 11.2882 6.59035 10.3318C5.94862 10.3318 5.21337 10.3918 4.59672 10.5776ZM10.2499 10.8234C10.1807 11.024 10.1226 11.2267 10.0655 11.431C9.98934 11.7017 9.90785 11.9695 9.8152 12.2351C9.80769 12.2568 9.80018 12.2785 9.79245 12.3008C9.78583 12.3195 9.77921 12.3383 9.77239 12.3576C9.75459 12.4119 9.75459 12.4119 9.75831 12.4893C10.2413 12.3048 10.6576 11.9815 11.0419 11.6427C11.0632 11.6244 11.0846 11.606 11.1066 11.5871C11.2174 11.4918 11.3246 11.3947 11.4242 11.2877C11.4242 11.2696 11.4242 11.2516 11.4242 11.233C10.8531 10.9619 10.8531 10.9619 10.2499 10.8234ZM3.54657 10.8687C3.51685 10.8791 3.48713 10.8894 3.45652 10.9001C3.40921 10.9171 3.40921 10.9171 3.36095 10.9343C3.32902 10.9456 3.29709 10.9568 3.2642 10.9684C3.03224 11.0508 2.80266 11.1376 2.57578 11.233C2.73662 11.6182 3.27452 11.9209 3.60503 12.1428C3.62836 12.1585 3.6517 12.1742 3.67574 12.1904C3.94157 12.39 3.94156 12.39 4.24169 12.4893C4.2028 12.298 4.14792 12.1163 4.08637 11.9312C3.99301 11.6472 3.91257 11.3613 3.84152 11.071C3.83427 11.0425 3.82703 11.014 3.81956 10.9847C3.81337 10.9594 3.80718 10.9342 3.80081 10.9082C3.79309 10.8892 3.78537 10.8702 3.77742 10.8507C3.67651 10.8171 3.64552 10.8339 3.54657 10.8687Z" fill="black" stroke="white" stroke-width="0.16" mask="url(#path-1-inside-1_26_18384)"/>
</svg>
