<svg width="40" height="41" viewBox="0 0 40 41" fill="none" xmlns="http://www.w3.org/2000/svg">
<rect y="0.5" width="40" height="40" rx="20" fill="white"/>
<path d="M30.0889 28.7913L30.0766 28.8036L30.0653 28.8167L29.2068 29.8035C28.3925 30.6126 27.3192 31 26.239 31C23.3368 31 19.6471 28.9637 16.6482 26.0236C13.6507 23.0849 11.5 19.3968 11.5 16.261C11.5 15.1808 11.8874 14.1075 12.6965 13.2932L13.6833 12.4347L13.6964 12.4234L13.7087 12.4111C14.2496 11.8701 15.1238 11.8631 15.6734 12.3899L17.3187 14.5322L17.3386 14.5581L17.3617 14.5812C17.9098 15.1293 17.9098 16.0194 17.3617 16.5675L17.3417 16.5875L17.3241 16.6096L15.9057 18.3914L15.7245 18.6191L15.8329 18.8891C17.3856 22.7562 20.0345 25.303 23.619 26.6703L23.8855 26.7719L24.1086 26.5943L25.8904 25.1759L25.9125 25.1583L25.9325 25.1383C26.4806 24.5902 27.3707 24.5902 27.9188 25.1383L27.9419 25.1614L27.9678 25.1813L30.1101 26.8266C30.6369 27.3762 30.6299 28.2504 30.0889 28.7913Z" stroke="black"/>
</svg>
