<svg width="22" height="23" viewBox="0 0 22 23" fill="none" xmlns="http://www.w3.org/2000/svg">
<g clip-path="url(#clip0_24_37259)">
<path d="M9.80428 12.7381C8.74763 11.6814 7.95108 10.4984 7.42185 9.29811C7.30986 9.04433 7.37579 8.7472 7.57177 8.55123L8.31142 7.81247C8.91742 7.20648 8.91742 6.34942 8.38819 5.82019L7.32793 4.75993C6.62259 4.05459 5.47924 4.05459 4.7739 4.75993L4.18507 5.34876C3.51586 6.01798 3.23679 6.98341 3.41742 7.94072C3.86356 10.3006 5.23449 12.8844 7.44623 15.0961C9.65798 17.3079 12.2418 18.6788 14.6017 19.125C15.559 19.3056 16.5244 19.0265 17.1936 18.3573L17.7815 17.7694C18.4869 17.064 18.4869 15.9207 17.7815 15.2153L16.7222 14.156C16.193 13.6268 15.335 13.6268 14.8067 14.156L13.9911 14.9724C13.7952 15.1684 13.498 15.2343 13.2443 15.1223C12.044 14.5922 10.8609 13.7947 9.80428 12.7381Z" stroke="#079393" stroke-width="1.28079" stroke-linecap="round" stroke-linejoin="round"/>
</g>
<defs>
<clipPath id="clip0_24_37259">
<rect width="21.5403" height="21.6749" fill="white" transform="translate(0 0.867477)"/>
</clipPath>
</defs>
</svg>
