<svg width="25" height="25" viewBox="0 0 25 25" fill="none" xmlns="http://www.w3.org/2000/svg">
<path d="M12.0908 12.9606C13.3893 12.9606 14.442 11.9013 14.442 10.5946C14.442 9.28799 13.3893 8.22874 12.0908 8.22874C10.7922 8.22874 9.73956 9.28799 9.73956 10.5946C9.73956 11.9013 10.7922 12.9606 12.0908 12.9606Z" stroke="#079393" stroke-miterlimit="10" stroke-linecap="round" stroke-linejoin="round"/>
<path d="M16.0315 16.6395C15.5166 14.9423 13.9223 13.6698 12.0909 13.6698C10.2595 13.6698 8.66515 14.9423 8.15036 16.6395" stroke="#079393" stroke-miterlimit="10" stroke-linecap="round" stroke-linejoin="round"/>
<path d="M20.3696 12.4337C20.3696 16.9469 16.7344 20.6003 12.2567 20.6003C7.77904 20.6003 4.14386 16.9469 4.14386 12.4337C4.14386 7.9204 7.77904 4.267 12.2567 4.267C16.7344 4.267 20.3696 7.9204 20.3696 12.4337Z" stroke="#079393"/>
</svg>
