<svg width="14" height="14" viewBox="0 0 14 14" fill="none" xmlns="http://www.w3.org/2000/svg">
<g clip-path="url(#clip0_26_18403)">
<mask id="path-1-outside-1_26_18403" maskUnits="userSpaceOnUse" x="0.435181" y="-0.752258" width="13" height="15" fill="black">
<rect fill="white" x="0.435181" y="-0.752258" width="13" height="15"/>
<path d="M3.26936 0.317397C3.29552 0.316906 3.32168 0.316416 3.34863 0.31591C3.43621 0.314349 3.52378 0.313177 3.61137 0.312016C3.67422 0.311002 3.73707 0.309973 3.79992 0.308931C4.37442 0.299833 4.949 0.294962 5.52357 0.291128C5.60052 0.290606 5.67747 0.290074 5.75442 0.289533C5.77354 0.289398 5.79267 0.289264 5.81237 0.289126C6.12114 0.286894 6.42984 0.282279 6.73857 0.276723C7.05649 0.271049 7.37437 0.267859 7.69234 0.266808C7.87052 0.266148 8.04854 0.264432 8.22667 0.260039C9.44074 0.23135 9.44074 0.23135 9.75834 0.506388C9.87684 0.619601 9.97303 0.748011 10.0644 0.883823C10.141 0.990165 10.2345 1.06689 10.336 1.14852C10.3754 1.18603 10.4144 1.22396 10.4527 1.26259C10.4728 1.28276 10.4929 1.30293 10.5136 1.32372C10.5449 1.35542 10.5449 1.35542 10.5769 1.38778C10.5992 1.41011 10.6214 1.43245 10.6443 1.45547C10.7385 1.55011 10.8325 1.64492 10.9266 1.73972C10.9957 1.80931 11.0649 1.87882 11.1341 1.94832C11.1654 1.98003 11.1654 1.98003 11.1974 2.01238C11.2175 2.03255 11.2376 2.05272 11.2583 2.07351C11.2842 2.09969 11.2842 2.09969 11.3107 2.1264C11.4533 2.26206 11.5985 2.38473 11.762 2.49439C12.1376 2.75322 12.504 3.08013 12.6052 3.5413C12.6975 4.0717 12.6679 4.62663 12.6534 5.16226C12.6468 5.40925 12.6458 5.65618 12.6451 5.90324C12.6435 6.34393 12.6376 6.78445 12.629 7.22506C12.6207 7.65165 12.6147 8.07818 12.6116 8.50485C12.6114 8.53123 12.6112 8.55761 12.6111 8.5848C12.6103 8.69088 12.6096 8.79697 12.6088 8.90305C12.6032 9.7144 12.5957 10.5258 12.5807 11.3371C12.5791 11.4217 12.5778 11.5064 12.5767 11.5911C12.5754 11.6887 12.5737 11.7863 12.5715 11.8839C12.5704 11.9357 12.5699 11.9874 12.5694 12.0392C12.5621 12.3199 12.4977 12.5426 12.3026 12.749C12.1108 12.924 11.9098 12.999 11.6485 12.9884C11.6444 13.0036 11.6404 13.0188 11.6363 13.0345C11.5623 13.2861 11.4398 13.4414 11.2204 13.5837C11.093 13.6504 10.9772 13.6788 10.8339 13.679C10.8028 13.6792 10.7717 13.6793 10.7396 13.6795C10.7057 13.6794 10.6717 13.6794 10.6368 13.6793C10.6001 13.6794 10.5635 13.6795 10.5269 13.6796C10.4264 13.68 10.3259 13.68 10.2255 13.6799C10.117 13.6799 10.0086 13.6802 9.90018 13.6805C9.68781 13.6809 9.47544 13.6811 9.26307 13.6811C9.09044 13.6811 8.9178 13.6812 8.74516 13.6814C8.2556 13.6819 7.76605 13.6821 7.2765 13.6821C7.25011 13.6821 7.22372 13.6821 7.19654 13.6821C7.17012 13.6821 7.1437 13.6821 7.11648 13.6821C6.68831 13.6821 6.26014 13.6826 5.83197 13.6834C5.39225 13.6841 4.95252 13.6845 4.51279 13.6845C4.26595 13.6845 4.01912 13.6846 3.77228 13.6852C3.56212 13.6857 3.35196 13.6858 3.1418 13.6854C3.03461 13.6853 2.92742 13.6853 2.82023 13.6857C2.72201 13.6862 2.62381 13.6861 2.52558 13.6856C2.47342 13.6855 2.42125 13.6859 2.36909 13.6863C2.08945 13.6841 1.89472 13.6147 1.68957 13.4238C1.51886 13.2401 1.44249 13.0436 1.44221 12.7926C1.44211 12.7734 1.44202 12.7542 1.44192 12.7345C1.44166 12.6702 1.4418 12.606 1.44193 12.5417C1.44183 12.4952 1.4417 12.4487 1.44155 12.4022C1.44122 12.2743 1.44123 12.1464 1.44129 12.0186C1.4413 11.8807 1.441 11.7428 1.44074 11.6049C1.44029 11.3347 1.44014 11.0646 1.44011 10.7944C1.44008 10.5748 1.43997 10.3552 1.43979 10.1356C1.43931 9.51299 1.43906 8.89042 1.4391 8.26785C1.4391 8.23428 1.43911 8.20071 1.43911 8.16613C1.43911 8.13252 1.43911 8.09891 1.43911 8.06428C1.43914 7.51961 1.43861 6.97494 1.43784 6.43027C1.43706 5.87105 1.43668 5.31184 1.43673 4.75263C1.43674 4.43865 1.43659 4.12468 1.43601 3.8107C1.43551 3.54337 1.43539 3.27604 1.43576 3.00871C1.43594 2.87233 1.43594 2.73596 1.43547 2.59958C1.43504 2.47466 1.43512 2.34975 1.43559 2.22483C1.43568 2.17971 1.43558 2.13459 1.43527 2.08947C1.43321 1.76305 1.46432 1.49777 1.69747 1.25116C1.8892 1.07619 2.09023 1.00113 2.35159 1.0118C2.3556 0.996572 2.35962 0.981345 2.36376 0.965656C2.43771 0.714071 2.56022 0.558769 2.77969 0.416431C2.94294 0.330995 3.08897 0.319398 3.26936 0.317397ZM2.72073 0.775959C2.70353 0.795909 2.68632 0.815859 2.6686 0.836414C2.5791 0.971987 2.56348 1.10059 2.56322 1.26057C2.56312 1.27956 2.56302 1.29855 2.56291 1.31811C2.56263 1.38173 2.56273 1.44533 2.56284 1.50895C2.56272 1.55502 2.56257 1.6011 2.5624 1.64718C2.56202 1.77379 2.56197 1.9004 2.56198 2.02701C2.56194 2.16357 2.56158 2.30012 2.56127 2.43668C2.56064 2.73526 2.56043 3.03383 2.56029 3.33241C2.5602 3.51884 2.56002 3.70527 2.55982 3.89171C2.55929 4.40789 2.55884 4.92408 2.55876 5.44027C2.55875 5.4733 2.55875 5.50634 2.55874 5.54037C2.55873 5.60733 2.55872 5.6743 2.55871 5.74126C2.55871 5.7745 2.5587 5.80774 2.5587 5.84199C2.55869 5.87527 2.55869 5.90855 2.55868 5.94284C2.55859 6.48221 2.55785 7.02158 2.55683 7.56095C2.55579 8.11472 2.55526 8.66849 2.55525 9.22227C2.55523 9.53319 2.555 9.84411 2.55421 10.155C2.55354 10.4198 2.55334 10.6845 2.55375 10.9492C2.55395 11.0843 2.55392 11.2193 2.5533 11.3544C2.55274 11.4781 2.55281 11.6018 2.55338 11.7255C2.55348 11.7701 2.55334 11.8148 2.55295 11.8595C2.55097 12.1021 2.55394 12.321 2.70705 12.5235C2.77578 12.5873 2.84505 12.6401 2.9258 12.6876C2.94212 12.6974 2.95844 12.7073 2.97526 12.7175C3.15924 12.7936 3.37371 12.7735 3.56871 12.7733C3.62045 12.7734 3.62045 12.7734 3.67324 12.7735C3.76866 12.7736 3.86409 12.7736 3.95952 12.7736C4.06256 12.7736 4.1656 12.7737 4.26864 12.7739C4.47038 12.7741 4.67213 12.7742 4.87388 12.7742C5.03789 12.7742 5.2019 12.7742 5.3659 12.7743C5.83109 12.7746 6.29627 12.7747 6.76145 12.7747C6.78651 12.7747 6.81158 12.7747 6.8374 12.7747C6.8625 12.7747 6.88759 12.7747 6.91345 12.7747C7.32022 12.7747 7.72699 12.7749 8.13376 12.7753C8.55161 12.7757 8.96946 12.7759 9.38732 12.7759C9.62184 12.7759 9.85635 12.7759 10.0909 12.7762C10.2905 12.7765 10.4902 12.7765 10.6898 12.7764C10.7916 12.7763 10.8935 12.7763 10.9953 12.7765C11.1058 12.7768 11.2162 12.7766 11.3267 12.7764C11.3748 12.7766 11.3748 12.7766 11.4238 12.7768C11.6955 12.7757 11.9254 12.7602 12.1295 12.5636C12.3317 12.3461 12.344 12.1255 12.3419 11.84C12.342 11.8044 12.3421 11.7689 12.3421 11.7322C12.3423 11.6339 12.342 11.5355 12.3416 11.4372C12.3412 11.331 12.3413 11.2248 12.3414 11.1186C12.3414 10.9347 12.3412 10.7509 12.3407 10.567C12.3401 10.3012 12.3398 10.0353 12.3397 9.7695C12.3396 9.33817 12.339 8.90686 12.3382 8.47553C12.3375 8.05661 12.3369 7.63769 12.3366 7.21876C12.3365 7.19293 12.3365 7.1671 12.3365 7.14048C12.3364 7.01088 12.3363 6.88127 12.3362 6.75167C12.3353 5.67692 12.3339 4.60217 12.3321 3.52742C12.2907 3.52709 12.2907 3.52709 12.2486 3.52675C11.9883 3.52463 11.728 3.52223 11.4678 3.51956C11.334 3.5182 11.2002 3.51693 11.0664 3.51589C10.9371 3.51488 10.8079 3.51361 10.6787 3.51216C10.6295 3.51166 10.5803 3.51125 10.5311 3.51093C10.462 3.51046 10.3928 3.50967 10.3236 3.5088C10.3035 3.50874 10.2835 3.50868 10.2628 3.50862C9.97633 3.50407 9.76313 3.43171 9.54961 3.23764C9.29426 2.96625 9.30774 2.64254 9.30758 2.29332C9.30717 2.24283 9.30671 2.19234 9.30621 2.14185C9.30502 2.00978 9.30447 1.87771 9.30406 1.74564C9.30352 1.61054 9.30237 1.47545 9.30128 1.34035C9.29922 1.07589 9.29785 0.811425 9.2969 0.546955C8.5143 0.544458 7.7317 0.542523 6.94909 0.54137C6.85662 0.541233 6.76415 0.541091 6.67167 0.540947C6.65326 0.540918 6.63485 0.540889 6.61589 0.54086C6.31813 0.540384 6.02037 0.539522 5.72262 0.538516C5.41691 0.537492 5.11119 0.536894 4.80548 0.536664C4.63384 0.536522 4.46221 0.536187 4.29057 0.535391C4.12894 0.534647 3.96731 0.53442 3.80567 0.534584C3.74643 0.534554 3.6872 0.534337 3.62796 0.533917C3.54686 0.53337 3.4658 0.533505 3.3847 0.533802C3.36145 0.533484 3.3382 0.533165 3.31425 0.532837C3.08991 0.53505 2.86802 0.598087 2.72073 0.775959ZM9.51565 0.711017C9.51374 0.967025 9.51229 1.22303 9.5114 1.47904C9.51097 1.59794 9.51039 1.71683 9.50946 1.83572C9.50856 1.95061 9.50808 2.06549 9.50786 2.18038C9.50771 2.22406 9.50742 2.26774 9.50698 2.31142C9.49826 2.71836 9.49826 2.71836 9.68313 3.07112C9.6973 3.08794 9.71147 3.10475 9.72607 3.12207C9.96635 3.31226 10.2283 3.29576 10.5198 3.29201C10.5666 3.29181 10.6135 3.29165 10.6603 3.29154C10.7829 3.29113 10.9055 3.29005 11.0281 3.28884C11.1535 3.28772 11.2789 3.28722 11.4042 3.28667C11.6497 3.2855 11.8952 3.28364 12.1406 3.28133C12.0445 3.16522 11.9468 3.05867 11.8335 2.95876C11.6872 2.82749 11.5474 2.69042 11.4088 2.55117C11.3772 2.51946 11.3772 2.51946 11.345 2.48711C11.2797 2.4215 11.2146 2.35582 11.1494 2.29012C11.0628 2.20274 10.976 2.11545 10.8892 2.02822C10.8699 2.00862 10.8505 1.98902 10.8305 1.96882C10.7238 1.8616 10.6142 1.76027 10.4996 1.66151C10.4049 1.5775 10.3165 1.48732 10.2275 1.39728C10.2079 1.37752 10.1882 1.35777 10.168 1.33741C10.106 1.27508 10.0441 1.21267 9.9822 1.15023C9.9 1.0673 9.81771 0.984461 9.73536 0.901676C9.70699 0.87297 9.70699 0.87297 9.67806 0.843684C9.6607 0.826237 9.64334 0.808789 9.62546 0.790812C9.61015 0.77536 9.59484 0.759907 9.57906 0.743986C9.54777 0.707943 9.54777 0.707943 9.51565 0.711017ZM1.88781 1.41555C1.65358 1.66658 1.65611 1.92345 1.65757 2.24984C1.65748 2.29553 1.65735 2.34122 1.65719 2.38691C1.65685 2.51221 1.65701 2.6375 1.65727 2.7628C1.65745 2.89803 1.65717 3.03326 1.65694 3.16849C1.65658 3.43331 1.65666 3.69812 1.65689 3.96294C1.65708 4.17818 1.6571 4.39342 1.65701 4.60866C1.657 4.63929 1.65699 4.66993 1.65698 4.70149C1.65695 4.76372 1.65692 4.82596 1.6569 4.88819C1.65666 5.47178 1.65693 6.05537 1.65737 6.63896C1.65774 7.13965 1.65768 7.64033 1.6573 8.14102C1.65686 8.72248 1.65669 9.30394 1.65694 9.8854C1.65696 9.94741 1.65699 10.0094 1.65701 10.0714C1.65703 10.1019 1.65704 10.1325 1.65705 10.1639C1.65712 10.3788 1.657 10.5938 1.65681 10.8088C1.65658 11.0707 1.65664 11.3327 1.65708 11.5947C1.6573 11.7284 1.65738 11.8621 1.65711 11.9957C1.65686 12.1181 1.657 12.2405 1.65744 12.3629C1.65753 12.4072 1.65748 12.4514 1.65728 12.4956C1.65606 12.7886 1.65751 13.0505 1.86623 13.2754C2.00741 13.3967 2.17526 13.4565 2.35957 13.4569C2.40485 13.4571 2.40485 13.4571 2.45105 13.4572C2.48435 13.4572 2.51765 13.4572 2.55196 13.4572C2.58723 13.4573 2.62251 13.4574 2.65885 13.4575C2.75696 13.4578 2.85508 13.4579 2.9532 13.458C3.05894 13.4581 3.16469 13.4584 3.27043 13.4586C3.52593 13.4591 3.78143 13.4594 4.03694 13.4596C4.15726 13.4598 4.27758 13.4599 4.39791 13.4601C4.79791 13.4605 5.19792 13.4609 5.59792 13.4611C5.70175 13.4612 5.80557 13.4612 5.90939 13.4613C5.93519 13.4613 5.961 13.4613 5.98759 13.4613C6.40549 13.4615 6.82338 13.4622 7.24128 13.4631C7.67035 13.464 8.09941 13.4645 8.52847 13.4646C8.76937 13.4647 9.01026 13.4649 9.25116 13.4656C9.45635 13.4662 9.66153 13.4664 9.86672 13.4662C9.97137 13.466 10.076 13.4661 10.1807 13.4666C10.2943 13.4672 10.4078 13.4669 10.5214 13.4665C10.5543 13.4668 10.5872 13.4671 10.6211 13.4675C10.8503 13.4657 11.049 13.4322 11.2299 13.2832C11.2467 13.2626 11.2636 13.242 11.281 13.2208C11.2985 13.2002 11.3161 13.1796 11.3341 13.1584C11.3742 13.0989 11.3873 13.0573 11.4024 12.9884C11.3848 12.9883 11.3673 12.9883 11.3492 12.9883C10.3096 12.9873 9.27 12.9858 8.23039 12.9835C8.1055 12.9832 7.98061 12.983 7.85572 12.9827C7.83086 12.9826 7.806 12.9826 7.78038 12.9825C7.37806 12.9817 6.97573 12.9812 6.57341 12.9809C6.16044 12.9806 5.74748 12.9798 5.33452 12.9787C5.07979 12.978 4.82507 12.9776 4.57034 12.9777C4.39555 12.9777 4.22077 12.9773 4.04599 12.9765C3.94522 12.9761 3.84445 12.9759 3.74368 12.9762C3.63421 12.9764 3.52477 12.9759 3.41531 12.9752C3.36795 12.9755 3.36795 12.9755 3.31963 12.9759C3.0351 12.9728 2.79635 12.9099 2.58807 12.7088C2.33834 12.4396 2.33952 12.1217 2.34068 11.7736C2.34053 11.7281 2.34035 11.6827 2.34013 11.6372C2.33964 11.5128 2.33965 11.3884 2.33975 11.264C2.33977 11.1296 2.33931 10.9953 2.33892 10.861C2.3383 10.6284 2.33797 10.3958 2.33785 10.1632C2.33767 9.82689 2.33704 9.49061 2.33631 9.15432C2.33512 8.60869 2.33431 8.06306 2.33371 7.51742C2.33314 6.98747 2.33239 6.45751 2.33142 5.92756C2.33136 5.89488 2.3313 5.8622 2.33124 5.82853C2.33093 5.66458 2.33063 5.50063 2.33032 5.33668C2.32777 3.97708 2.32581 2.61749 2.32424 1.25789C2.14032 1.25551 2.0261 1.29103 1.88781 1.41555Z"/>
</mask>
<path d="M3.26936 0.317397C3.29552 0.316906 3.32168 0.316416 3.34863 0.31591C3.43621 0.314349 3.52378 0.313177 3.61137 0.312016C3.67422 0.311002 3.73707 0.309973 3.79992 0.308931C4.37442 0.299833 4.949 0.294962 5.52357 0.291128C5.60052 0.290606 5.67747 0.290074 5.75442 0.289533C5.77354 0.289398 5.79267 0.289264 5.81237 0.289126C6.12114 0.286894 6.42984 0.282279 6.73857 0.276723C7.05649 0.271049 7.37437 0.267859 7.69234 0.266808C7.87052 0.266148 8.04854 0.264432 8.22667 0.260039C9.44074 0.23135 9.44074 0.23135 9.75834 0.506388C9.87684 0.619601 9.97303 0.748011 10.0644 0.883823C10.141 0.990165 10.2345 1.06689 10.336 1.14852C10.3754 1.18603 10.4144 1.22396 10.4527 1.26259C10.4728 1.28276 10.4929 1.30293 10.5136 1.32372C10.5449 1.35542 10.5449 1.35542 10.5769 1.38778C10.5992 1.41011 10.6214 1.43245 10.6443 1.45547C10.7385 1.55011 10.8325 1.64492 10.9266 1.73972C10.9957 1.80931 11.0649 1.87882 11.1341 1.94832C11.1654 1.98003 11.1654 1.98003 11.1974 2.01238C11.2175 2.03255 11.2376 2.05272 11.2583 2.07351C11.2842 2.09969 11.2842 2.09969 11.3107 2.1264C11.4533 2.26206 11.5985 2.38473 11.762 2.49439C12.1376 2.75322 12.504 3.08013 12.6052 3.5413C12.6975 4.0717 12.6679 4.62663 12.6534 5.16226C12.6468 5.40925 12.6458 5.65618 12.6451 5.90324C12.6435 6.34393 12.6376 6.78445 12.629 7.22506C12.6207 7.65165 12.6147 8.07818 12.6116 8.50485C12.6114 8.53123 12.6112 8.55761 12.6111 8.5848C12.6103 8.69088 12.6096 8.79697 12.6088 8.90305C12.6032 9.7144 12.5957 10.5258 12.5807 11.3371C12.5791 11.4217 12.5778 11.5064 12.5767 11.5911C12.5754 11.6887 12.5737 11.7863 12.5715 11.8839C12.5704 11.9357 12.5699 11.9874 12.5694 12.0392C12.5621 12.3199 12.4977 12.5426 12.3026 12.749C12.1108 12.924 11.9098 12.999 11.6485 12.9884C11.6444 13.0036 11.6404 13.0188 11.6363 13.0345C11.5623 13.2861 11.4398 13.4414 11.2204 13.5837C11.093 13.6504 10.9772 13.6788 10.8339 13.679C10.8028 13.6792 10.7717 13.6793 10.7396 13.6795C10.7057 13.6794 10.6717 13.6794 10.6368 13.6793C10.6001 13.6794 10.5635 13.6795 10.5269 13.6796C10.4264 13.68 10.3259 13.68 10.2255 13.6799C10.117 13.6799 10.0086 13.6802 9.90018 13.6805C9.68781 13.6809 9.47544 13.6811 9.26307 13.6811C9.09044 13.6811 8.9178 13.6812 8.74516 13.6814C8.2556 13.6819 7.76605 13.6821 7.2765 13.6821C7.25011 13.6821 7.22372 13.6821 7.19654 13.6821C7.17012 13.6821 7.1437 13.6821 7.11648 13.6821C6.68831 13.6821 6.26014 13.6826 5.83197 13.6834C5.39225 13.6841 4.95252 13.6845 4.51279 13.6845C4.26595 13.6845 4.01912 13.6846 3.77228 13.6852C3.56212 13.6857 3.35196 13.6858 3.1418 13.6854C3.03461 13.6853 2.92742 13.6853 2.82023 13.6857C2.72201 13.6862 2.62381 13.6861 2.52558 13.6856C2.47342 13.6855 2.42125 13.6859 2.36909 13.6863C2.08945 13.6841 1.89472 13.6147 1.68957 13.4238C1.51886 13.2401 1.44249 13.0436 1.44221 12.7926C1.44211 12.7734 1.44202 12.7542 1.44192 12.7345C1.44166 12.6702 1.4418 12.606 1.44193 12.5417C1.44183 12.4952 1.4417 12.4487 1.44155 12.4022C1.44122 12.2743 1.44123 12.1464 1.44129 12.0186C1.4413 11.8807 1.441 11.7428 1.44074 11.6049C1.44029 11.3347 1.44014 11.0646 1.44011 10.7944C1.44008 10.5748 1.43997 10.3552 1.43979 10.1356C1.43931 9.51299 1.43906 8.89042 1.4391 8.26785C1.4391 8.23428 1.43911 8.20071 1.43911 8.16613C1.43911 8.13252 1.43911 8.09891 1.43911 8.06428C1.43914 7.51961 1.43861 6.97494 1.43784 6.43027C1.43706 5.87105 1.43668 5.31184 1.43673 4.75263C1.43674 4.43865 1.43659 4.12468 1.43601 3.8107C1.43551 3.54337 1.43539 3.27604 1.43576 3.00871C1.43594 2.87233 1.43594 2.73596 1.43547 2.59958C1.43504 2.47466 1.43512 2.34975 1.43559 2.22483C1.43568 2.17971 1.43558 2.13459 1.43527 2.08947C1.43321 1.76305 1.46432 1.49777 1.69747 1.25116C1.8892 1.07619 2.09023 1.00113 2.35159 1.0118C2.3556 0.996572 2.35962 0.981345 2.36376 0.965656C2.43771 0.714071 2.56022 0.558769 2.77969 0.416431C2.94294 0.330995 3.08897 0.319398 3.26936 0.317397ZM2.72073 0.775959C2.70353 0.795909 2.68632 0.815859 2.6686 0.836414C2.5791 0.971987 2.56348 1.10059 2.56322 1.26057C2.56312 1.27956 2.56302 1.29855 2.56291 1.31811C2.56263 1.38173 2.56273 1.44533 2.56284 1.50895C2.56272 1.55502 2.56257 1.6011 2.5624 1.64718C2.56202 1.77379 2.56197 1.9004 2.56198 2.02701C2.56194 2.16357 2.56158 2.30012 2.56127 2.43668C2.56064 2.73526 2.56043 3.03383 2.56029 3.33241C2.5602 3.51884 2.56002 3.70527 2.55982 3.89171C2.55929 4.40789 2.55884 4.92408 2.55876 5.44027C2.55875 5.4733 2.55875 5.50634 2.55874 5.54037C2.55873 5.60733 2.55872 5.6743 2.55871 5.74126C2.55871 5.7745 2.5587 5.80774 2.5587 5.84199C2.55869 5.87527 2.55869 5.90855 2.55868 5.94284C2.55859 6.48221 2.55785 7.02158 2.55683 7.56095C2.55579 8.11472 2.55526 8.66849 2.55525 9.22227C2.55523 9.53319 2.555 9.84411 2.55421 10.155C2.55354 10.4198 2.55334 10.6845 2.55375 10.9492C2.55395 11.0843 2.55392 11.2193 2.5533 11.3544C2.55274 11.4781 2.55281 11.6018 2.55338 11.7255C2.55348 11.7701 2.55334 11.8148 2.55295 11.8595C2.55097 12.1021 2.55394 12.321 2.70705 12.5235C2.77578 12.5873 2.84505 12.6401 2.9258 12.6876C2.94212 12.6974 2.95844 12.7073 2.97526 12.7175C3.15924 12.7936 3.37371 12.7735 3.56871 12.7733C3.62045 12.7734 3.62045 12.7734 3.67324 12.7735C3.76866 12.7736 3.86409 12.7736 3.95952 12.7736C4.06256 12.7736 4.1656 12.7737 4.26864 12.7739C4.47038 12.7741 4.67213 12.7742 4.87388 12.7742C5.03789 12.7742 5.2019 12.7742 5.3659 12.7743C5.83109 12.7746 6.29627 12.7747 6.76145 12.7747C6.78651 12.7747 6.81158 12.7747 6.8374 12.7747C6.8625 12.7747 6.88759 12.7747 6.91345 12.7747C7.32022 12.7747 7.72699 12.7749 8.13376 12.7753C8.55161 12.7757 8.96946 12.7759 9.38732 12.7759C9.62184 12.7759 9.85635 12.7759 10.0909 12.7762C10.2905 12.7765 10.4902 12.7765 10.6898 12.7764C10.7916 12.7763 10.8935 12.7763 10.9953 12.7765C11.1058 12.7768 11.2162 12.7766 11.3267 12.7764C11.3748 12.7766 11.3748 12.7766 11.4238 12.7768C11.6955 12.7757 11.9254 12.7602 12.1295 12.5636C12.3317 12.3461 12.344 12.1255 12.3419 11.84C12.342 11.8044 12.3421 11.7689 12.3421 11.7322C12.3423 11.6339 12.342 11.5355 12.3416 11.4372C12.3412 11.331 12.3413 11.2248 12.3414 11.1186C12.3414 10.9347 12.3412 10.7509 12.3407 10.567C12.3401 10.3012 12.3398 10.0353 12.3397 9.7695C12.3396 9.33817 12.339 8.90686 12.3382 8.47553C12.3375 8.05661 12.3369 7.63769 12.3366 7.21876C12.3365 7.19293 12.3365 7.1671 12.3365 7.14048C12.3364 7.01088 12.3363 6.88127 12.3362 6.75167C12.3353 5.67692 12.3339 4.60217 12.3321 3.52742C12.2907 3.52709 12.2907 3.52709 12.2486 3.52675C11.9883 3.52463 11.728 3.52223 11.4678 3.51956C11.334 3.5182 11.2002 3.51693 11.0664 3.51589C10.9371 3.51488 10.8079 3.51361 10.6787 3.51216C10.6295 3.51166 10.5803 3.51125 10.5311 3.51093C10.462 3.51046 10.3928 3.50967 10.3236 3.5088C10.3035 3.50874 10.2835 3.50868 10.2628 3.50862C9.97633 3.50407 9.76313 3.43171 9.54961 3.23764C9.29426 2.96625 9.30774 2.64254 9.30758 2.29332C9.30717 2.24283 9.30671 2.19234 9.30621 2.14185C9.30502 2.00978 9.30447 1.87771 9.30406 1.74564C9.30352 1.61054 9.30237 1.47545 9.30128 1.34035C9.29922 1.07589 9.29785 0.811425 9.2969 0.546955C8.5143 0.544458 7.7317 0.542523 6.94909 0.54137C6.85662 0.541233 6.76415 0.541091 6.67167 0.540947C6.65326 0.540918 6.63485 0.540889 6.61589 0.54086C6.31813 0.540384 6.02037 0.539522 5.72262 0.538516C5.41691 0.537492 5.11119 0.536894 4.80548 0.536664C4.63384 0.536522 4.46221 0.536187 4.29057 0.535391C4.12894 0.534647 3.96731 0.53442 3.80567 0.534584C3.74643 0.534554 3.6872 0.534337 3.62796 0.533917C3.54686 0.53337 3.4658 0.533505 3.3847 0.533802C3.36145 0.533484 3.3382 0.533165 3.31425 0.532837C3.08991 0.53505 2.86802 0.598087 2.72073 0.775959ZM9.51565 0.711017C9.51374 0.967025 9.51229 1.22303 9.5114 1.47904C9.51097 1.59794 9.51039 1.71683 9.50946 1.83572C9.50856 1.95061 9.50808 2.06549 9.50786 2.18038C9.50771 2.22406 9.50742 2.26774 9.50698 2.31142C9.49826 2.71836 9.49826 2.71836 9.68313 3.07112C9.6973 3.08794 9.71147 3.10475 9.72607 3.12207C9.96635 3.31226 10.2283 3.29576 10.5198 3.29201C10.5666 3.29181 10.6135 3.29165 10.6603 3.29154C10.7829 3.29113 10.9055 3.29005 11.0281 3.28884C11.1535 3.28772 11.2789 3.28722 11.4042 3.28667C11.6497 3.2855 11.8952 3.28364 12.1406 3.28133C12.0445 3.16522 11.9468 3.05867 11.8335 2.95876C11.6872 2.82749 11.5474 2.69042 11.4088 2.55117C11.3772 2.51946 11.3772 2.51946 11.345 2.48711C11.2797 2.4215 11.2146 2.35582 11.1494 2.29012C11.0628 2.20274 10.976 2.11545 10.8892 2.02822C10.8699 2.00862 10.8505 1.98902 10.8305 1.96882C10.7238 1.8616 10.6142 1.76027 10.4996 1.66151C10.4049 1.5775 10.3165 1.48732 10.2275 1.39728C10.2079 1.37752 10.1882 1.35777 10.168 1.33741C10.106 1.27508 10.0441 1.21267 9.9822 1.15023C9.9 1.0673 9.81771 0.984461 9.73536 0.901676C9.70699 0.87297 9.70699 0.87297 9.67806 0.843684C9.6607 0.826237 9.64334 0.808789 9.62546 0.790812C9.61015 0.77536 9.59484 0.759907 9.57906 0.743986C9.54777 0.707943 9.54777 0.707943 9.51565 0.711017ZM1.88781 1.41555C1.65358 1.66658 1.65611 1.92345 1.65757 2.24984C1.65748 2.29553 1.65735 2.34122 1.65719 2.38691C1.65685 2.51221 1.65701 2.6375 1.65727 2.7628C1.65745 2.89803 1.65717 3.03326 1.65694 3.16849C1.65658 3.43331 1.65666 3.69812 1.65689 3.96294C1.65708 4.17818 1.6571 4.39342 1.65701 4.60866C1.657 4.63929 1.65699 4.66993 1.65698 4.70149C1.65695 4.76372 1.65692 4.82596 1.6569 4.88819C1.65666 5.47178 1.65693 6.05537 1.65737 6.63896C1.65774 7.13965 1.65768 7.64033 1.6573 8.14102C1.65686 8.72248 1.65669 9.30394 1.65694 9.8854C1.65696 9.94741 1.65699 10.0094 1.65701 10.0714C1.65703 10.1019 1.65704 10.1325 1.65705 10.1639C1.65712 10.3788 1.657 10.5938 1.65681 10.8088C1.65658 11.0707 1.65664 11.3327 1.65708 11.5947C1.6573 11.7284 1.65738 11.8621 1.65711 11.9957C1.65686 12.1181 1.657 12.2405 1.65744 12.3629C1.65753 12.4072 1.65748 12.4514 1.65728 12.4956C1.65606 12.7886 1.65751 13.0505 1.86623 13.2754C2.00741 13.3967 2.17526 13.4565 2.35957 13.4569C2.40485 13.4571 2.40485 13.4571 2.45105 13.4572C2.48435 13.4572 2.51765 13.4572 2.55196 13.4572C2.58723 13.4573 2.62251 13.4574 2.65885 13.4575C2.75696 13.4578 2.85508 13.4579 2.9532 13.458C3.05894 13.4581 3.16469 13.4584 3.27043 13.4586C3.52593 13.4591 3.78143 13.4594 4.03694 13.4596C4.15726 13.4598 4.27758 13.4599 4.39791 13.4601C4.79791 13.4605 5.19792 13.4609 5.59792 13.4611C5.70175 13.4612 5.80557 13.4612 5.90939 13.4613C5.93519 13.4613 5.961 13.4613 5.98759 13.4613C6.40549 13.4615 6.82338 13.4622 7.24128 13.4631C7.67035 13.464 8.09941 13.4645 8.52847 13.4646C8.76937 13.4647 9.01026 13.4649 9.25116 13.4656C9.45635 13.4662 9.66153 13.4664 9.86672 13.4662C9.97137 13.466 10.076 13.4661 10.1807 13.4666C10.2943 13.4672 10.4078 13.4669 10.5214 13.4665C10.5543 13.4668 10.5872 13.4671 10.6211 13.4675C10.8503 13.4657 11.049 13.4322 11.2299 13.2832C11.2467 13.2626 11.2636 13.242 11.281 13.2208C11.2985 13.2002 11.3161 13.1796 11.3341 13.1584C11.3742 13.0989 11.3873 13.0573 11.4024 12.9884C11.3848 12.9883 11.3673 12.9883 11.3492 12.9883C10.3096 12.9873 9.27 12.9858 8.23039 12.9835C8.1055 12.9832 7.98061 12.983 7.85572 12.9827C7.83086 12.9826 7.806 12.9826 7.78038 12.9825C7.37806 12.9817 6.97573 12.9812 6.57341 12.9809C6.16044 12.9806 5.74748 12.9798 5.33452 12.9787C5.07979 12.978 4.82507 12.9776 4.57034 12.9777C4.39555 12.9777 4.22077 12.9773 4.04599 12.9765C3.94522 12.9761 3.84445 12.9759 3.74368 12.9762C3.63421 12.9764 3.52477 12.9759 3.41531 12.9752C3.36795 12.9755 3.36795 12.9755 3.31963 12.9759C3.0351 12.9728 2.79635 12.9099 2.58807 12.7088C2.33834 12.4396 2.33952 12.1217 2.34068 11.7736C2.34053 11.7281 2.34035 11.6827 2.34013 11.6372C2.33964 11.5128 2.33965 11.3884 2.33975 11.264C2.33977 11.1296 2.33931 10.9953 2.33892 10.861C2.3383 10.6284 2.33797 10.3958 2.33785 10.1632C2.33767 9.82689 2.33704 9.49061 2.33631 9.15432C2.33512 8.60869 2.33431 8.06306 2.33371 7.51742C2.33314 6.98747 2.33239 6.45751 2.33142 5.92756C2.33136 5.89488 2.3313 5.8622 2.33124 5.82853C2.33093 5.66458 2.33063 5.50063 2.33032 5.33668C2.32777 3.97708 2.32581 2.61749 2.32424 1.25789C2.14032 1.25551 2.0261 1.29103 1.88781 1.41555Z" fill="black"/>
<path d="M3.26936 0.317397C3.29552 0.316906 3.32168 0.316416 3.34863 0.31591C3.43621 0.314349 3.52378 0.313177 3.61137 0.312016C3.67422 0.311002 3.73707 0.309973 3.79992 0.308931C4.37442 0.299833 4.949 0.294962 5.52357 0.291128C5.60052 0.290606 5.67747 0.290074 5.75442 0.289533C5.77354 0.289398 5.79267 0.289264 5.81237 0.289126C6.12114 0.286894 6.42984 0.282279 6.73857 0.276723C7.05649 0.271049 7.37437 0.267859 7.69234 0.266808C7.87052 0.266148 8.04854 0.264432 8.22667 0.260039C9.44074 0.23135 9.44074 0.23135 9.75834 0.506388C9.87684 0.619601 9.97303 0.748011 10.0644 0.883823C10.141 0.990165 10.2345 1.06689 10.336 1.14852C10.3754 1.18603 10.4144 1.22396 10.4527 1.26259C10.4728 1.28276 10.4929 1.30293 10.5136 1.32372C10.5449 1.35542 10.5449 1.35542 10.5769 1.38778C10.5992 1.41011 10.6214 1.43245 10.6443 1.45547C10.7385 1.55011 10.8325 1.64492 10.9266 1.73972C10.9957 1.80931 11.0649 1.87882 11.1341 1.94832C11.1654 1.98003 11.1654 1.98003 11.1974 2.01238C11.2175 2.03255 11.2376 2.05272 11.2583 2.07351C11.2842 2.09969 11.2842 2.09969 11.3107 2.1264C11.4533 2.26206 11.5985 2.38473 11.762 2.49439C12.1376 2.75322 12.504 3.08013 12.6052 3.5413C12.6975 4.0717 12.6679 4.62663 12.6534 5.16226C12.6468 5.40925 12.6458 5.65618 12.6451 5.90324C12.6435 6.34393 12.6376 6.78445 12.629 7.22506C12.6207 7.65165 12.6147 8.07818 12.6116 8.50485C12.6114 8.53123 12.6112 8.55761 12.6111 8.5848C12.6103 8.69088 12.6096 8.79697 12.6088 8.90305C12.6032 9.7144 12.5957 10.5258 12.5807 11.3371C12.5791 11.4217 12.5778 11.5064 12.5767 11.5911C12.5754 11.6887 12.5737 11.7863 12.5715 11.8839C12.5704 11.9357 12.5699 11.9874 12.5694 12.0392C12.5621 12.3199 12.4977 12.5426 12.3026 12.749C12.1108 12.924 11.9098 12.999 11.6485 12.9884C11.6444 13.0036 11.6404 13.0188 11.6363 13.0345C11.5623 13.2861 11.4398 13.4414 11.2204 13.5837C11.093 13.6504 10.9772 13.6788 10.8339 13.679C10.8028 13.6792 10.7717 13.6793 10.7396 13.6795C10.7057 13.6794 10.6717 13.6794 10.6368 13.6793C10.6001 13.6794 10.5635 13.6795 10.5269 13.6796C10.4264 13.68 10.3259 13.68 10.2255 13.6799C10.117 13.6799 10.0086 13.6802 9.90018 13.6805C9.68781 13.6809 9.47544 13.6811 9.26307 13.6811C9.09044 13.6811 8.9178 13.6812 8.74516 13.6814C8.2556 13.6819 7.76605 13.6821 7.2765 13.6821C7.25011 13.6821 7.22372 13.6821 7.19654 13.6821C7.17012 13.6821 7.1437 13.6821 7.11648 13.6821C6.68831 13.6821 6.26014 13.6826 5.83197 13.6834C5.39225 13.6841 4.95252 13.6845 4.51279 13.6845C4.26595 13.6845 4.01912 13.6846 3.77228 13.6852C3.56212 13.6857 3.35196 13.6858 3.1418 13.6854C3.03461 13.6853 2.92742 13.6853 2.82023 13.6857C2.72201 13.6862 2.62381 13.6861 2.52558 13.6856C2.47342 13.6855 2.42125 13.6859 2.36909 13.6863C2.08945 13.6841 1.89472 13.6147 1.68957 13.4238C1.51886 13.2401 1.44249 13.0436 1.44221 12.7926C1.44211 12.7734 1.44202 12.7542 1.44192 12.7345C1.44166 12.6702 1.4418 12.606 1.44193 12.5417C1.44183 12.4952 1.4417 12.4487 1.44155 12.4022C1.44122 12.2743 1.44123 12.1464 1.44129 12.0186C1.4413 11.8807 1.441 11.7428 1.44074 11.6049C1.44029 11.3347 1.44014 11.0646 1.44011 10.7944C1.44008 10.5748 1.43997 10.3552 1.43979 10.1356C1.43931 9.51299 1.43906 8.89042 1.4391 8.26785C1.4391 8.23428 1.43911 8.20071 1.43911 8.16613C1.43911 8.13252 1.43911 8.09891 1.43911 8.06428C1.43914 7.51961 1.43861 6.97494 1.43784 6.43027C1.43706 5.87105 1.43668 5.31184 1.43673 4.75263C1.43674 4.43865 1.43659 4.12468 1.43601 3.8107C1.43551 3.54337 1.43539 3.27604 1.43576 3.00871C1.43594 2.87233 1.43594 2.73596 1.43547 2.59958C1.43504 2.47466 1.43512 2.34975 1.43559 2.22483C1.43568 2.17971 1.43558 2.13459 1.43527 2.08947C1.43321 1.76305 1.46432 1.49777 1.69747 1.25116C1.8892 1.07619 2.09023 1.00113 2.35159 1.0118C2.3556 0.996572 2.35962 0.981345 2.36376 0.965656C2.43771 0.714071 2.56022 0.558769 2.77969 0.416431C2.94294 0.330995 3.08897 0.319398 3.26936 0.317397ZM2.72073 0.775959C2.70353 0.795909 2.68632 0.815859 2.6686 0.836414C2.5791 0.971987 2.56348 1.10059 2.56322 1.26057C2.56312 1.27956 2.56302 1.29855 2.56291 1.31811C2.56263 1.38173 2.56273 1.44533 2.56284 1.50895C2.56272 1.55502 2.56257 1.6011 2.5624 1.64718C2.56202 1.77379 2.56197 1.9004 2.56198 2.02701C2.56194 2.16357 2.56158 2.30012 2.56127 2.43668C2.56064 2.73526 2.56043 3.03383 2.56029 3.33241C2.5602 3.51884 2.56002 3.70527 2.55982 3.89171C2.55929 4.40789 2.55884 4.92408 2.55876 5.44027C2.55875 5.4733 2.55875 5.50634 2.55874 5.54037C2.55873 5.60733 2.55872 5.6743 2.55871 5.74126C2.55871 5.7745 2.5587 5.80774 2.5587 5.84199C2.55869 5.87527 2.55869 5.90855 2.55868 5.94284C2.55859 6.48221 2.55785 7.02158 2.55683 7.56095C2.55579 8.11472 2.55526 8.66849 2.55525 9.22227C2.55523 9.53319 2.555 9.84411 2.55421 10.155C2.55354 10.4198 2.55334 10.6845 2.55375 10.9492C2.55395 11.0843 2.55392 11.2193 2.5533 11.3544C2.55274 11.4781 2.55281 11.6018 2.55338 11.7255C2.55348 11.7701 2.55334 11.8148 2.55295 11.8595C2.55097 12.1021 2.55394 12.321 2.70705 12.5235C2.77578 12.5873 2.84505 12.6401 2.9258 12.6876C2.94212 12.6974 2.95844 12.7073 2.97526 12.7175C3.15924 12.7936 3.37371 12.7735 3.56871 12.7733C3.62045 12.7734 3.62045 12.7734 3.67324 12.7735C3.76866 12.7736 3.86409 12.7736 3.95952 12.7736C4.06256 12.7736 4.1656 12.7737 4.26864 12.7739C4.47038 12.7741 4.67213 12.7742 4.87388 12.7742C5.03789 12.7742 5.2019 12.7742 5.3659 12.7743C5.83109 12.7746 6.29627 12.7747 6.76145 12.7747C6.78651 12.7747 6.81158 12.7747 6.8374 12.7747C6.8625 12.7747 6.88759 12.7747 6.91345 12.7747C7.32022 12.7747 7.72699 12.7749 8.13376 12.7753C8.55161 12.7757 8.96946 12.7759 9.38732 12.7759C9.62184 12.7759 9.85635 12.7759 10.0909 12.7762C10.2905 12.7765 10.4902 12.7765 10.6898 12.7764C10.7916 12.7763 10.8935 12.7763 10.9953 12.7765C11.1058 12.7768 11.2162 12.7766 11.3267 12.7764C11.3748 12.7766 11.3748 12.7766 11.4238 12.7768C11.6955 12.7757 11.9254 12.7602 12.1295 12.5636C12.3317 12.3461 12.344 12.1255 12.3419 11.84C12.342 11.8044 12.3421 11.7689 12.3421 11.7322C12.3423 11.6339 12.342 11.5355 12.3416 11.4372C12.3412 11.331 12.3413 11.2248 12.3414 11.1186C12.3414 10.9347 12.3412 10.7509 12.3407 10.567C12.3401 10.3012 12.3398 10.0353 12.3397 9.7695C12.3396 9.33817 12.339 8.90686 12.3382 8.47553C12.3375 8.05661 12.3369 7.63769 12.3366 7.21876C12.3365 7.19293 12.3365 7.1671 12.3365 7.14048C12.3364 7.01088 12.3363 6.88127 12.3362 6.75167C12.3353 5.67692 12.3339 4.60217 12.3321 3.52742C12.2907 3.52709 12.2907 3.52709 12.2486 3.52675C11.9883 3.52463 11.728 3.52223 11.4678 3.51956C11.334 3.5182 11.2002 3.51693 11.0664 3.51589C10.9371 3.51488 10.8079 3.51361 10.6787 3.51216C10.6295 3.51166 10.5803 3.51125 10.5311 3.51093C10.462 3.51046 10.3928 3.50967 10.3236 3.5088C10.3035 3.50874 10.2835 3.50868 10.2628 3.50862C9.97633 3.50407 9.76313 3.43171 9.54961 3.23764C9.29426 2.96625 9.30774 2.64254 9.30758 2.29332C9.30717 2.24283 9.30671 2.19234 9.30621 2.14185C9.30502 2.00978 9.30447 1.87771 9.30406 1.74564C9.30352 1.61054 9.30237 1.47545 9.30128 1.34035C9.29922 1.07589 9.29785 0.811425 9.2969 0.546955C8.5143 0.544458 7.7317 0.542523 6.94909 0.54137C6.85662 0.541233 6.76415 0.541091 6.67167 0.540947C6.65326 0.540918 6.63485 0.540889 6.61589 0.54086C6.31813 0.540384 6.02037 0.539522 5.72262 0.538516C5.41691 0.537492 5.11119 0.536894 4.80548 0.536664C4.63384 0.536522 4.46221 0.536187 4.29057 0.535391C4.12894 0.534647 3.96731 0.53442 3.80567 0.534584C3.74643 0.534554 3.6872 0.534337 3.62796 0.533917C3.54686 0.53337 3.4658 0.533505 3.3847 0.533802C3.36145 0.533484 3.3382 0.533165 3.31425 0.532837C3.08991 0.53505 2.86802 0.598087 2.72073 0.775959ZM9.51565 0.711017C9.51374 0.967025 9.51229 1.22303 9.5114 1.47904C9.51097 1.59794 9.51039 1.71683 9.50946 1.83572C9.50856 1.95061 9.50808 2.06549 9.50786 2.18038C9.50771 2.22406 9.50742 2.26774 9.50698 2.31142C9.49826 2.71836 9.49826 2.71836 9.68313 3.07112C9.6973 3.08794 9.71147 3.10475 9.72607 3.12207C9.96635 3.31226 10.2283 3.29576 10.5198 3.29201C10.5666 3.29181 10.6135 3.29165 10.6603 3.29154C10.7829 3.29113 10.9055 3.29005 11.0281 3.28884C11.1535 3.28772 11.2789 3.28722 11.4042 3.28667C11.6497 3.2855 11.8952 3.28364 12.1406 3.28133C12.0445 3.16522 11.9468 3.05867 11.8335 2.95876C11.6872 2.82749 11.5474 2.69042 11.4088 2.55117C11.3772 2.51946 11.3772 2.51946 11.345 2.48711C11.2797 2.4215 11.2146 2.35582 11.1494 2.29012C11.0628 2.20274 10.976 2.11545 10.8892 2.02822C10.8699 2.00862 10.8505 1.98902 10.8305 1.96882C10.7238 1.8616 10.6142 1.76027 10.4996 1.66151C10.4049 1.5775 10.3165 1.48732 10.2275 1.39728C10.2079 1.37752 10.1882 1.35777 10.168 1.33741C10.106 1.27508 10.0441 1.21267 9.9822 1.15023C9.9 1.0673 9.81771 0.984461 9.73536 0.901676C9.70699 0.87297 9.70699 0.87297 9.67806 0.843684C9.6607 0.826237 9.64334 0.808789 9.62546 0.790812C9.61015 0.77536 9.59484 0.759907 9.57906 0.743986C9.54777 0.707943 9.54777 0.707943 9.51565 0.711017ZM1.88781 1.41555C1.65358 1.66658 1.65611 1.92345 1.65757 2.24984C1.65748 2.29553 1.65735 2.34122 1.65719 2.38691C1.65685 2.51221 1.65701 2.6375 1.65727 2.7628C1.65745 2.89803 1.65717 3.03326 1.65694 3.16849C1.65658 3.43331 1.65666 3.69812 1.65689 3.96294C1.65708 4.17818 1.6571 4.39342 1.65701 4.60866C1.657 4.63929 1.65699 4.66993 1.65698 4.70149C1.65695 4.76372 1.65692 4.82596 1.6569 4.88819C1.65666 5.47178 1.65693 6.05537 1.65737 6.63896C1.65774 7.13965 1.65768 7.64033 1.6573 8.14102C1.65686 8.72248 1.65669 9.30394 1.65694 9.8854C1.65696 9.94741 1.65699 10.0094 1.65701 10.0714C1.65703 10.1019 1.65704 10.1325 1.65705 10.1639C1.65712 10.3788 1.657 10.5938 1.65681 10.8088C1.65658 11.0707 1.65664 11.3327 1.65708 11.5947C1.6573 11.7284 1.65738 11.8621 1.65711 11.9957C1.65686 12.1181 1.657 12.2405 1.65744 12.3629C1.65753 12.4072 1.65748 12.4514 1.65728 12.4956C1.65606 12.7886 1.65751 13.0505 1.86623 13.2754C2.00741 13.3967 2.17526 13.4565 2.35957 13.4569C2.40485 13.4571 2.40485 13.4571 2.45105 13.4572C2.48435 13.4572 2.51765 13.4572 2.55196 13.4572C2.58723 13.4573 2.62251 13.4574 2.65885 13.4575C2.75696 13.4578 2.85508 13.4579 2.9532 13.458C3.05894 13.4581 3.16469 13.4584 3.27043 13.4586C3.52593 13.4591 3.78143 13.4594 4.03694 13.4596C4.15726 13.4598 4.27758 13.4599 4.39791 13.4601C4.79791 13.4605 5.19792 13.4609 5.59792 13.4611C5.70175 13.4612 5.80557 13.4612 5.90939 13.4613C5.93519 13.4613 5.961 13.4613 5.98759 13.4613C6.40549 13.4615 6.82338 13.4622 7.24128 13.4631C7.67035 13.464 8.09941 13.4645 8.52847 13.4646C8.76937 13.4647 9.01026 13.4649 9.25116 13.4656C9.45635 13.4662 9.66153 13.4664 9.86672 13.4662C9.97137 13.466 10.076 13.4661 10.1807 13.4666C10.2943 13.4672 10.4078 13.4669 10.5214 13.4665C10.5543 13.4668 10.5872 13.4671 10.6211 13.4675C10.8503 13.4657 11.049 13.4322 11.2299 13.2832C11.2467 13.2626 11.2636 13.242 11.281 13.2208C11.2985 13.2002 11.3161 13.1796 11.3341 13.1584C11.3742 13.0989 11.3873 13.0573 11.4024 12.9884C11.3848 12.9883 11.3673 12.9883 11.3492 12.9883C10.3096 12.9873 9.27 12.9858 8.23039 12.9835C8.1055 12.9832 7.98061 12.983 7.85572 12.9827C7.83086 12.9826 7.806 12.9826 7.78038 12.9825C7.37806 12.9817 6.97573 12.9812 6.57341 12.9809C6.16044 12.9806 5.74748 12.9798 5.33452 12.9787C5.07979 12.978 4.82507 12.9776 4.57034 12.9777C4.39555 12.9777 4.22077 12.9773 4.04599 12.9765C3.94522 12.9761 3.84445 12.9759 3.74368 12.9762C3.63421 12.9764 3.52477 12.9759 3.41531 12.9752C3.36795 12.9755 3.36795 12.9755 3.31963 12.9759C3.0351 12.9728 2.79635 12.9099 2.58807 12.7088C2.33834 12.4396 2.33952 12.1217 2.34068 11.7736C2.34053 11.7281 2.34035 11.6827 2.34013 11.6372C2.33964 11.5128 2.33965 11.3884 2.33975 11.264C2.33977 11.1296 2.33931 10.9953 2.33892 10.861C2.3383 10.6284 2.33797 10.3958 2.33785 10.1632C2.33767 9.82689 2.33704 9.49061 2.33631 9.15432C2.33512 8.60869 2.33431 8.06306 2.33371 7.51742C2.33314 6.98747 2.33239 6.45751 2.33142 5.92756C2.33136 5.89488 2.3313 5.8622 2.33124 5.82853C2.33093 5.66458 2.33063 5.50063 2.33032 5.33668C2.32777 3.97708 2.32581 2.61749 2.32424 1.25789C2.14032 1.25551 2.0261 1.29103 1.88781 1.41555Z" stroke="black" stroke-width="0.2" mask="url(#path-1-outside-1_26_18403)"/>
<path d="M4.06995 9.58681C4.09754 9.58673 4.12514 9.58665 4.15356 9.58657C4.21156 9.58651 4.26957 9.58666 4.32756 9.58701C4.41577 9.58745 4.50394 9.58701 4.59215 9.58649C4.6488 9.58654 4.70544 9.58665 4.76209 9.58681C4.80119 9.58656 4.80119 9.58656 4.84108 9.5863C5.02692 9.58823 5.21292 9.60808 5.36365 9.72577C5.37577 9.74159 5.3879 9.75742 5.40039 9.77373C5.41943 9.79736 5.41943 9.79736 5.43884 9.82147C5.49634 9.91695 5.49967 10.0112 5.5005 10.1209C5.50076 10.1488 5.50103 10.1767 5.5013 10.2055C5.50141 10.2355 5.50153 10.2655 5.50165 10.2965C5.50181 10.3275 5.50196 10.3585 5.50212 10.3905C5.50238 10.456 5.50256 10.5216 5.50266 10.5872C5.50293 10.6875 5.50378 10.7877 5.50464 10.8879C5.50482 10.9516 5.50496 11.0154 5.50507 11.0792C5.50541 11.1091 5.50574 11.139 5.50609 11.1698C5.50557 11.349 5.49379 11.48 5.36707 11.6174C5.35099 11.6305 5.33492 11.6436 5.31836 11.657C5.29425 11.6772 5.29425 11.6772 5.26966 11.6977C5.18333 11.758 5.10615 11.7616 5.00426 11.7627C4.96263 11.7632 4.96263 11.7632 4.92016 11.7638C4.89016 11.764 4.86017 11.7642 4.82927 11.7644C4.78288 11.7647 4.78288 11.7647 4.73556 11.765C4.67003 11.7654 4.6045 11.7657 4.53896 11.7659C4.4391 11.7664 4.33926 11.7676 4.2394 11.7688C4.17569 11.7691 4.11198 11.7693 4.04827 11.7695C4.01855 11.77 3.98883 11.7705 3.95822 11.771C3.78248 11.7705 3.64557 11.7524 3.5 11.6485C3.3936 11.5339 3.36006 11.4654 3.35758 11.3113C3.35705 11.2808 3.35652 11.2503 3.35598 11.2189C3.3544 11.0789 3.35304 10.939 3.35221 10.7991C3.35172 10.7253 3.35077 10.6516 3.3494 10.5779C3.34757 10.4715 3.34682 10.3652 3.3463 10.2589C3.34554 10.2261 3.34478 10.1933 3.34399 10.1595C3.34442 9.9837 3.35592 9.85559 3.47623 9.72117C3.64734 9.58245 3.85932 9.58547 4.06995 9.58681ZM3.60938 9.95317C3.57633 10.0193 3.57839 10.0615 3.57806 10.1353C3.57789 10.1618 3.57771 10.1883 3.57753 10.2155C3.5775 10.2442 3.57747 10.2729 3.57744 10.3024C3.57735 10.3318 3.57726 10.3612 3.57716 10.3915C3.57703 10.4538 3.57696 10.5161 3.57697 10.5784C3.57691 10.6738 3.57641 10.7691 3.57589 10.8645C3.57581 10.9249 3.57576 10.9854 3.57573 11.0459C3.57553 11.0744 3.57534 11.103 3.57514 11.1324C3.57522 11.1591 3.5753 11.1857 3.57539 11.2132C3.57535 11.2366 3.57531 11.2599 3.57527 11.2841C3.58279 11.3548 3.59825 11.3974 3.63672 11.4571C3.72537 11.5162 3.75134 11.5189 3.85391 11.5201C3.88138 11.5206 3.90885 11.521 3.93716 11.5215C3.96681 11.5216 3.99646 11.5218 4.02701 11.5219C4.07278 11.5223 4.07278 11.5223 4.11947 11.5227C4.18406 11.5231 4.24865 11.5233 4.31324 11.5234C4.41203 11.5237 4.51078 11.5251 4.60956 11.5265C4.67229 11.5267 4.73503 11.5269 4.79776 11.527C4.8273 11.5276 4.85684 11.5281 4.88728 11.5287C5.01144 11.5279 5.09122 11.5244 5.20023 11.4621C5.27544 11.3306 5.26956 11.2105 5.26816 11.0614C5.26829 11.031 5.26842 11.0006 5.26856 10.9692C5.26865 10.905 5.2684 10.8407 5.26783 10.7764C5.26709 10.6781 5.26782 10.5799 5.26869 10.4816C5.2686 10.4191 5.26843 10.3566 5.26816 10.2941C5.26844 10.2647 5.26871 10.2354 5.269 10.2051C5.26706 10.0814 5.26241 10.002 5.19973 9.89363C5.07001 9.81885 4.95299 9.82474 4.80567 9.8266C4.77584 9.82653 4.74601 9.82647 4.71528 9.8264C4.6523 9.82643 4.58933 9.82679 4.52635 9.82747C4.43002 9.82841 4.33376 9.82804 4.23743 9.82751C4.17619 9.8277 4.11495 9.82796 4.05371 9.82831C4.01056 9.8281 4.01056 9.8281 3.96653 9.8279C3.81439 9.83034 3.71663 9.83264 3.60938 9.95317Z" fill="black"/>
<path d="M4.01192 7.01285C4.04525 7.01275 4.07857 7.01264 4.11291 7.01254C4.18317 7.01246 4.25343 7.01266 4.32368 7.01312C4.4311 7.01371 4.53848 7.01312 4.6459 7.01243C4.71428 7.0125 4.78265 7.01264 4.85103 7.01285C4.88308 7.01263 4.91512 7.01241 4.94814 7.01218C5.12023 7.01416 5.23004 7.01839 5.35935 7.13675C5.45629 7.26514 5.49914 7.35942 5.5009 7.51921C5.50143 7.56084 5.50143 7.56084 5.50197 7.60332C5.50217 7.63331 5.50237 7.6633 5.50258 7.6942C5.5028 7.72513 5.50302 7.75605 5.50325 7.78792C5.50363 7.85345 5.50392 7.91898 5.50414 7.98451C5.50461 8.08437 5.50581 8.18421 5.50701 8.28407C5.50729 8.34778 5.50752 8.4115 5.50771 8.47521C5.50819 8.50492 5.50866 8.53464 5.50916 8.56526C5.50866 8.73939 5.49269 8.88041 5.38669 9.02347C5.25962 9.12461 5.16141 9.1634 5.00085 9.1646C4.95813 9.16499 4.95813 9.16499 4.91455 9.16539C4.86841 9.16557 4.86841 9.16557 4.82134 9.16575C4.77384 9.16598 4.77384 9.16598 4.72539 9.16622C4.65834 9.16648 4.59129 9.16666 4.52425 9.16676C4.42181 9.16703 4.31938 9.16787 4.21694 9.16874C4.15181 9.16892 4.08667 9.16906 4.02153 9.16916C3.99094 9.1695 3.96034 9.16984 3.92882 9.17019C3.75274 9.16968 3.61736 9.16222 3.48235 9.03618C3.39233 8.91847 3.3599 8.86263 3.35841 8.71568C3.35806 8.68564 3.35771 8.65561 3.35735 8.62466C3.35715 8.59205 3.35694 8.55944 3.35674 8.52584C3.35652 8.49238 3.35629 8.45893 3.35607 8.42446C3.35569 8.3535 3.3554 8.28254 3.35518 8.21158C3.35471 8.10325 3.35351 7.99495 3.3523 7.88662C3.35203 7.81771 3.35179 7.7488 3.35161 7.67989C3.35113 7.64756 3.35065 7.61522 3.35016 7.58191C3.35063 7.40082 3.35596 7.27931 3.47263 7.13675C3.63872 7.0016 3.80422 7.01142 4.01192 7.01285ZM3.60935 7.3555C3.5764 7.4214 3.57819 7.46361 3.5776 7.53722C3.57733 7.5636 3.57707 7.58998 3.5768 7.61716C3.57668 7.64576 3.57657 7.67435 3.57645 7.70382C3.57629 7.73315 3.57614 7.76249 3.57598 7.79272C3.57572 7.8549 3.57554 7.91707 3.57543 7.97925C3.57517 8.07431 3.57432 8.16936 3.57346 8.26442C3.57328 8.32478 3.57313 8.38515 3.57303 8.44552C3.57269 8.47395 3.57235 8.50238 3.57201 8.53167C3.57075 8.72335 3.57075 8.72335 3.66403 8.88675C3.73097 8.92022 3.77593 8.91829 3.85077 8.91937C3.89198 8.92003 3.89198 8.92003 3.93403 8.9207C4.05973 8.92192 4.18543 8.92304 4.31114 8.92367C4.37748 8.92412 4.44381 8.92487 4.51013 8.92591C4.60569 8.92741 4.70121 8.92801 4.79677 8.92841C4.84121 8.92934 4.84121 8.92934 4.88655 8.93029C5.01099 8.92994 5.09096 8.9268 5.20032 8.8645C5.27548 8.73263 5.26901 8.61219 5.26717 8.46282C5.26723 8.43232 5.2673 8.40182 5.26737 8.37039C5.26734 8.30602 5.26697 8.24164 5.26629 8.17727C5.26535 8.07865 5.26573 7.98011 5.26626 7.8815C5.26607 7.81892 5.26581 7.75635 5.26546 7.69378C5.26559 7.66427 5.26573 7.63476 5.26587 7.60435C5.26544 7.57688 5.265 7.54941 5.26456 7.52111C5.26439 7.49699 5.26422 7.47287 5.26404 7.44802C5.24546 7.36195 5.20723 7.32911 5.1406 7.27347C5.07479 7.24057 5.03238 7.24214 4.95888 7.24129C4.9325 7.24094 4.90612 7.24059 4.87894 7.24023C4.85034 7.24002 4.82175 7.23982 4.79228 7.23961C4.76295 7.23939 4.73361 7.23917 4.70338 7.23894C4.6412 7.23857 4.57903 7.23827 4.51685 7.23806C4.42178 7.23759 4.32674 7.23639 4.23168 7.23518C4.17132 7.2349 4.11095 7.23467 4.05058 7.23449C4.02215 7.23401 3.99372 7.23353 3.96443 7.23304C3.81241 7.23349 3.7166 7.23492 3.60935 7.3555Z" fill="black"/>
<path d="M4.00594 4.41618C4.03866 4.41614 4.07138 4.4161 4.10509 4.41606C4.17406 4.4161 4.24303 4.41642 4.312 4.41699C4.41744 4.41778 4.52284 4.41755 4.62827 4.41719C4.69541 4.41736 4.76254 4.41759 4.82967 4.41789C4.86112 4.41781 4.89257 4.41773 4.92497 4.41764C5.07997 4.41947 5.19974 4.42119 5.332 4.51178C5.45063 4.637 5.50253 4.75576 5.50401 4.92779C5.50436 4.95554 5.50471 4.98329 5.50507 5.01188C5.50513 5.04159 5.50519 5.0713 5.50525 5.10191C5.50552 5.14818 5.50552 5.14818 5.5058 5.19539C5.50608 5.26059 5.50621 5.3258 5.5062 5.391C5.50632 5.49038 5.50731 5.58973 5.50835 5.68911C5.50851 5.75257 5.50862 5.81603 5.50867 5.8795C5.50906 5.90904 5.50945 5.93858 5.50986 5.96902C5.50882 6.14212 5.49809 6.28715 5.38669 6.42584C5.24967 6.56006 5.10851 6.57852 4.92224 6.58015C4.87626 6.57948 4.87626 6.57948 4.82935 6.57879C4.78123 6.57879 4.78123 6.57879 4.73215 6.5788C4.66463 6.57865 4.59711 6.57817 4.52959 6.57738C4.42638 6.57623 4.32321 6.57625 4.21999 6.57644C4.15423 6.57616 4.08847 6.5758 4.02271 6.57537C3.97656 6.57537 3.97656 6.57537 3.92948 6.57536C3.75393 6.57271 3.61686 6.56411 3.48235 6.43855C3.39233 6.32083 3.3599 6.265 3.35841 6.11804C3.35806 6.08801 3.35771 6.05797 3.35735 6.02703C3.35715 5.99441 3.35694 5.9618 3.35674 5.9282C3.35652 5.89475 3.35629 5.86129 3.35607 5.82682C3.35569 5.75586 3.3554 5.6849 3.35518 5.61394C3.35471 5.50562 3.35351 5.39731 3.3523 5.28899C3.35203 5.22008 3.35179 5.15117 3.35161 5.08226C3.35113 5.04992 3.35065 5.01759 3.35016 4.98427C3.35063 4.80319 3.35596 4.68168 3.47263 4.53912C3.63782 4.4052 3.79953 4.41416 4.00594 4.41618ZM3.63669 4.73053C3.57818 4.81828 3.57504 4.8417 3.57449 4.94269C3.57423 4.96907 3.57397 4.99545 3.5737 5.02262C3.57373 5.05108 3.57375 5.07953 3.57378 5.10885C3.57366 5.13815 3.57354 5.16745 3.57342 5.19764C3.57327 5.25965 3.57325 5.32166 3.57337 5.38368C3.57346 5.4785 3.57282 5.5733 3.57212 5.66812C3.57206 5.72836 3.57204 5.7886 3.57207 5.84884C3.57182 5.87719 3.57156 5.90553 3.57131 5.93473C3.56924 6.12745 3.56924 6.12745 3.66403 6.28912C3.78822 6.36752 3.93648 6.35168 4.07846 6.35107C4.11865 6.35115 4.11865 6.35115 4.15966 6.35123C4.21619 6.35127 4.27273 6.35117 4.32927 6.35094C4.41568 6.35064 4.50208 6.35093 4.58849 6.35128C4.64349 6.35125 4.6985 6.35118 4.75351 6.35107C4.79218 6.35124 4.79218 6.35124 4.83163 6.35141C4.97672 6.35037 5.09329 6.34779 5.21172 6.25471C5.26299 6.19088 5.26086 6.15077 5.26189 6.06942C5.26267 6.02739 5.26267 6.02739 5.26347 5.98451C5.26361 5.93914 5.26361 5.93914 5.26375 5.89285C5.26402 5.86173 5.2643 5.83061 5.26458 5.79855C5.26499 5.73267 5.26518 5.6668 5.26517 5.60092C5.26535 5.50014 5.26684 5.39943 5.2684 5.29866C5.26864 5.23468 5.2688 5.1707 5.26888 5.10672C5.26947 5.07658 5.27006 5.04644 5.27066 5.01539C5.26945 4.88032 5.26712 4.80844 5.1854 4.69777C5.06429 4.61997 4.92674 4.62998 4.78758 4.63226C4.75901 4.63226 4.73043 4.63226 4.70099 4.63226C4.64075 4.6324 4.58051 4.63288 4.52028 4.63367C4.42816 4.63482 4.33609 4.6348 4.24397 4.63461C4.18534 4.6349 4.12672 4.63525 4.0681 4.63568C4.04061 4.63568 4.01312 4.63569 3.9848 4.63569C3.79685 4.63804 3.79685 4.63804 3.63669 4.73053Z" fill="black"/>
<path d="M6.03781 1.72098C6.12497 1.77738 6.12497 1.77738 6.15231 1.80472C6.15744 1.89871 6.15744 1.89871 6.15231 1.99613C6.09763 2.05081 6.09763 2.05081 6.02756 2.05765C5.92878 2.05047 5.8412 2.02974 5.74622 2.00275C5.6727 1.99446 5.63937 2.01085 5.57809 2.05081C5.54787 2.09866 5.54787 2.09866 5.55075 2.16019C5.61046 2.31044 5.7034 2.40556 5.81735 2.51566C5.84178 2.53987 5.84178 2.53987 5.8667 2.56458C5.97601 2.67199 6.08973 2.77249 6.207 2.87113C6.22166 2.84857 6.23633 2.82601 6.25143 2.80277C6.31638 2.73441 6.31638 2.73441 6.39841 2.71903C6.48044 2.73441 6.48044 2.73441 6.54709 2.77884C6.58981 2.84378 6.58981 2.84378 6.5864 2.9224C6.5628 3.00668 6.53722 3.08948 6.50778 3.17191C6.53034 3.19108 6.5529 3.21026 6.57614 3.23001C6.6445 3.30863 6.6445 3.30863 6.65817 3.39407C6.6445 3.47269 6.6445 3.47269 6.61545 3.52567C6.52809 3.57357 6.46471 3.55202 6.37106 3.52738C6.30441 3.47098 6.30441 3.47098 6.26169 3.418C6.23462 3.429 6.23462 3.429 6.207 3.44022C6.17993 3.45093 6.15286 3.46165 6.12497 3.47269C6.09339 3.48735 6.06181 3.50201 6.02927 3.51712C5.80465 3.59976 5.55194 3.5812 5.33638 3.48166C5.2056 3.40125 5.13442 3.30272 5.07394 3.16336C5.04077 2.9459 5.06992 2.77836 5.19528 2.59769C5.22214 2.56987 5.24938 2.5424 5.27731 2.51566C5.27139 2.50075 5.26547 2.48584 5.25937 2.47048C5.1879 2.27691 5.15371 2.1029 5.2363 1.90726C5.39958 1.62573 5.75668 1.5832 6.03781 1.72098ZM5.52341 2.73441C5.45851 2.81701 5.41742 2.87771 5.40036 2.98221C5.41734 3.08197 5.45355 3.12733 5.52341 3.19925C5.59356 3.23433 5.64674 3.23217 5.72507 3.23343C5.75122 3.23414 5.77738 3.23484 5.80432 3.23557C5.88924 3.22535 5.92551 3.20106 5.98825 3.14456C5.8485 3.00147 5.7073 2.85934 5.55075 2.73441C5.54173 2.73441 5.5327 2.73441 5.52341 2.73441Z" fill="black"/>
<path d="M8.4219 1.80472C8.47659 1.85941 8.47659 1.85941 8.48684 1.9534C8.47659 2.05081 8.47659 2.05081 8.43216 2.1055C8.30921 2.15727 8.20412 2.10606 8.08523 2.06278C7.87582 1.99204 7.70062 2.00662 7.49862 2.09696C7.37376 2.1703 7.32138 2.25855 7.2787 2.39485C7.2311 2.60623 7.24635 2.7716 7.35037 2.9617C7.47442 3.11411 7.57541 3.16472 7.7679 3.19434C7.91858 3.20362 8.05707 3.17286 8.19461 3.11209C8.28538 3.0802 8.3566 3.09762 8.44925 3.11722C8.47659 3.14456 8.47659 3.14456 8.48343 3.23685C8.47659 3.33597 8.47659 3.33597 8.44262 3.37955C8.38895 3.42249 8.33797 3.44878 8.27493 3.47611C8.24416 3.48975 8.24416 3.48975 8.21277 3.50366C7.95387 3.59914 7.62448 3.59221 7.37109 3.48518C7.16964 3.37099 6.98397 3.208 6.918 2.9805C6.84594 2.67406 6.83557 2.35101 6.99672 2.07004C7.31209 1.59094 7.94165 1.54362 8.4219 1.80472Z" fill="black"/>
<path d="M3.51885 1.6574C3.54413 1.65714 3.56941 1.65688 3.59545 1.65662C3.63613 1.65687 3.63613 1.65687 3.67763 1.65712C3.70567 1.65704 3.73372 1.65696 3.76262 1.65688C3.82189 1.65683 3.88117 1.65698 3.94044 1.65732C4.03107 1.65776 4.12165 1.65732 4.21227 1.6568C4.2699 1.65685 4.32752 1.65696 4.38515 1.65712C4.41221 1.65695 4.43927 1.65679 4.46715 1.65662C4.70659 1.65906 4.70659 1.65906 4.8125 1.75005C4.84304 1.82946 4.84655 1.86819 4.81763 1.94829C4.78516 1.99614 4.78516 1.99614 4.73047 2.02348C4.69086 2.02576 4.65115 2.02642 4.61148 2.02615C4.57659 2.02602 4.57659 2.02602 4.54099 2.02589C4.51666 2.02566 4.49234 2.02543 4.46729 2.02519C4.43049 2.02501 4.43049 2.02501 4.39294 2.02482C4.33227 2.0245 4.27161 2.02405 4.21094 2.02348C4.21118 2.04146 4.21142 2.05943 4.21167 2.07795C4.21409 2.26468 4.21574 2.45141 4.21695 2.63815C4.2175 2.70788 4.21824 2.77761 4.21919 2.84734C4.22051 2.94745 4.22114 3.04755 4.22162 3.14767C4.22218 3.17895 4.22275 3.21023 4.22333 3.24245C4.22334 3.27146 4.22335 3.30047 4.22335 3.33036C4.2236 3.35592 4.22384 3.38148 4.22409 3.40782C4.21094 3.4727 4.21094 3.4727 4.16071 3.52261C4.10156 3.55473 4.10156 3.55473 4.01782 3.55473C3.9375 3.52739 3.9375 3.52739 3.89196 3.47685C3.8363 3.34542 3.84541 3.21946 3.84746 3.07825C3.84757 3.04809 3.84769 3.01794 3.84781 2.98687C3.84827 2.89075 3.8493 2.79465 3.85034 2.69853C3.85075 2.63329 3.85113 2.56804 3.85146 2.5028C3.85237 2.34302 3.85374 2.18325 3.85547 2.02348C3.80408 2.02539 3.80408 2.02539 3.75165 2.02733C3.7065 2.02835 3.66136 2.02935 3.61621 2.03032C3.59365 2.03124 3.57109 2.03215 3.54785 2.0331C3.38068 2.03579 3.38068 2.03579 3.29279 1.9736C3.25391 1.91411 3.25391 1.91411 3.25391 1.83037C3.29997 1.69505 3.38052 1.65781 3.51885 1.6574Z" fill="black"/>
<path d="M7.75518 4.69626C7.80418 4.69603 7.80418 4.69603 7.85417 4.69579C7.9082 4.69596 7.9082 4.69596 7.96333 4.69613C8.00151 4.69605 8.03968 4.69596 8.07785 4.69584C8.18169 4.69559 8.28552 4.69568 8.38936 4.69586C8.49787 4.696 8.60637 4.69587 8.71488 4.69578C8.89712 4.69568 9.07936 4.69581 9.2616 4.69607C9.4725 4.69637 9.68339 4.69628 9.89429 4.69597C10.0751 4.69573 10.256 4.69569 10.4368 4.69583C10.545 4.69592 10.6531 4.69593 10.7612 4.69575C10.8628 4.69559 10.9644 4.6957 11.0661 4.69602C11.1213 4.69613 11.1765 4.69596 11.2318 4.69579C11.2644 4.69595 11.2971 4.6961 11.3308 4.69626C11.3735 4.69629 11.3735 4.69629 11.4172 4.69632C11.4844 4.7032 11.4844 4.7032 11.5391 4.75789C11.5476 4.82625 11.5476 4.82625 11.5391 4.89461C11.4455 4.95698 11.4123 4.95616 11.3024 4.95624C11.2702 4.9564 11.238 4.95655 11.2048 4.95671C11.1517 4.95654 11.1517 4.95654 11.0976 4.95637C11.06 4.95645 11.0224 4.95655 10.9848 4.95666C10.8827 4.95691 10.7805 4.95682 10.6784 4.95664C10.5716 4.95651 10.4648 4.95663 10.358 4.95672C10.1786 4.95682 9.99919 4.95669 9.8198 4.95643C9.6123 4.95613 9.40481 4.95623 9.19731 4.95653C9.01927 4.95678 8.84122 4.95681 8.66318 4.95667C8.55679 4.95658 8.45041 4.95657 8.34403 4.95675C8.24402 4.95691 8.14401 4.9568 8.044 4.95648C7.98971 4.95638 7.93543 4.95654 7.88114 4.95671C7.83283 4.95648 7.83283 4.95648 7.78355 4.95624C7.7555 4.95622 7.72745 4.9562 7.69856 4.95618C7.62891 4.9493 7.62891 4.9493 7.54688 4.89461C7.53833 4.82625 7.53833 4.82625 7.54688 4.75789C7.6196 4.68516 7.65358 4.69633 7.75518 4.69626Z" fill="black"/>
<path d="M7.75518 7.29392C7.80418 7.29368 7.80418 7.29368 7.85417 7.29345C7.9082 7.29361 7.9082 7.29361 7.96333 7.29378C8.00151 7.29371 8.03968 7.29361 8.07785 7.29349C8.18169 7.29324 8.28552 7.29334 8.38936 7.29351C8.49787 7.29365 8.60637 7.29352 8.71488 7.29344C8.89712 7.29334 9.07936 7.29347 9.2616 7.29373C9.4725 7.29403 9.68339 7.29393 9.89429 7.29363C10.0751 7.29338 10.256 7.29335 10.4368 7.29349C10.545 7.29358 10.6531 7.29359 10.7612 7.29341C10.8628 7.29325 10.9644 7.29336 11.0661 7.29367C11.1213 7.29378 11.1765 7.29362 11.2318 7.29345C11.2644 7.2936 11.2971 7.29376 11.3308 7.29392C11.3735 7.29395 11.3735 7.29395 11.4172 7.29398C11.4844 7.30086 11.4844 7.30086 11.5391 7.35555C11.5425 7.42733 11.5425 7.42733 11.5391 7.49227C11.448 7.54681 11.3792 7.55377 11.2738 7.55371C11.2421 7.55383 11.2103 7.55394 11.1775 7.55406C11.1428 7.55391 11.108 7.55375 11.0722 7.5536C11.0351 7.55363 10.9981 7.55368 10.961 7.55375C10.8604 7.55389 10.7599 7.55368 10.6593 7.5534C10.5541 7.55316 10.4489 7.55321 10.3437 7.55322C10.1671 7.55319 9.99041 7.55295 9.81376 7.55258C9.60944 7.55215 9.40513 7.55201 9.20082 7.55203C9.00434 7.55204 8.80785 7.5519 8.61137 7.55168C8.52771 7.55158 8.44406 7.55153 8.36041 7.55152C8.26195 7.55149 8.16349 7.55132 8.06503 7.55105C8.01159 7.55093 7.95815 7.55094 7.90471 7.55096C7.85715 7.55079 7.85715 7.55079 7.80863 7.55061C7.78102 7.55056 7.75342 7.55052 7.72497 7.55047C7.65625 7.54695 7.65625 7.54695 7.57422 7.51961C7.55713 7.441 7.55713 7.441 7.54688 7.35555C7.6196 7.28282 7.65358 7.29399 7.75518 7.29392Z" fill="black"/>
<path d="M7.75518 9.89157C7.80418 9.89134 7.80418 9.89134 7.85417 9.8911C7.9082 9.89127 7.9082 9.89127 7.96333 9.89144C8.00151 9.89137 8.03968 9.89127 8.07785 9.89115C8.18169 9.8909 8.28552 9.891 8.38936 9.89117C8.49787 9.89131 8.60637 9.89118 8.71488 9.89109C8.89712 9.891 9.07936 9.89113 9.2616 9.89139C9.4725 9.89168 9.68339 9.89159 9.89429 9.89129C10.0751 9.89104 10.256 9.891 10.4368 9.89115C10.545 9.89123 10.6531 9.89124 10.7612 9.89106C10.8628 9.89091 10.9644 9.89101 11.0661 9.89133C11.1213 9.89144 11.1765 9.89127 11.2318 9.8911C11.2644 9.89126 11.2971 9.89141 11.3308 9.89157C11.3735 9.8916 11.3735 9.8916 11.4172 9.89163C11.4844 9.89852 11.4844 9.89852 11.5391 9.9532C11.53 10.0073 11.521 10.0615 11.5117 10.1173C10.2123 10.1173 8.91297 10.1173 7.57422 10.1173C7.5652 10.0631 7.55617 10.009 7.54688 9.9532C7.6196 9.88047 7.65358 9.89165 7.75518 9.89157Z" fill="black"/>
<path d="M6.32205 10.5509C6.34616 10.5508 6.37027 10.5506 6.39512 10.5504C6.4349 10.5504 6.4349 10.5504 6.47549 10.5504C6.51731 10.5502 6.51731 10.5502 6.55997 10.5499C6.65249 10.5495 6.74501 10.5494 6.83753 10.5492C6.90163 10.549 6.96572 10.5489 7.02982 10.5487C7.16432 10.5484 7.29881 10.5483 7.43331 10.5482C7.60593 10.548 7.77856 10.5474 7.95118 10.5466C8.0836 10.5461 8.21601 10.546 8.34843 10.5459C8.41208 10.5458 8.47574 10.5456 8.5394 10.5453C8.62831 10.5448 8.7172 10.5448 8.80611 10.545C8.83258 10.5448 8.85905 10.5445 8.88631 10.5443C8.9226 10.5445 8.9226 10.5445 8.95962 10.5447C8.99116 10.5447 8.99116 10.5447 9.02334 10.5446C9.09319 10.5576 9.11828 10.5802 9.16015 10.6368C9.14864 10.7577 9.14864 10.7577 9.10546 10.8009C9.06754 10.8036 9.02949 10.8046 8.99147 10.8047C8.96689 10.8049 8.94231 10.805 8.91699 10.8052C8.87623 10.8052 8.87623 10.8052 8.83465 10.8053C8.79197 10.8055 8.79197 10.8055 8.74843 10.8057C8.65385 10.8061 8.55928 10.8063 8.4647 10.8064C8.39927 10.8066 8.33385 10.8067 8.26842 10.8069C8.13107 10.8072 7.99372 10.8073 7.85637 10.8074C7.67997 10.8076 7.50358 10.8082 7.32718 10.809C7.192 10.8095 7.05682 10.8097 6.92163 10.8097C6.85658 10.8098 6.79152 10.81 6.72647 10.8104C6.63565 10.8108 6.54485 10.8108 6.45403 10.8106C6.42691 10.8109 6.39979 10.8111 6.37185 10.8114C6.3472 10.8112 6.32255 10.8111 6.29715 10.8109C6.26491 10.811 6.26491 10.811 6.23203 10.811C6.20611 10.806 6.20611 10.806 6.17968 10.8009C6.12499 10.7188 6.12499 10.7188 6.13183 10.647C6.1386 10.6256 6.14536 10.6042 6.15234 10.5821C6.21552 10.5505 6.25173 10.5512 6.32205 10.5509Z" fill="black"/>
<path d="M6.29368 5.38315C6.31826 5.38303 6.34283 5.38292 6.36816 5.3828C6.40892 5.38282 6.40892 5.38282 6.4505 5.38284C6.47895 5.38274 6.50741 5.38265 6.53672 5.38256C6.6313 5.3823 6.72587 5.38224 6.82045 5.38221C6.88588 5.38213 6.9513 5.38204 7.01673 5.38194C7.15408 5.38177 7.29143 5.38172 7.42877 5.38174C7.60517 5.38174 7.78157 5.38137 7.95797 5.3809C8.09315 5.3806 8.22833 5.38054 8.36352 5.38055C8.42857 5.38052 8.49363 5.3804 8.55868 5.38019C8.64949 5.37992 8.7403 5.38 8.83112 5.38017C8.85824 5.38001 8.88535 5.37986 8.91329 5.3797C8.93795 5.37981 8.9626 5.37993 8.988 5.38005C9.00949 5.38003 9.03098 5.38002 9.05312 5.38C9.10547 5.38681 9.10547 5.38681 9.16016 5.4415C9.14497 5.56606 9.14497 5.56606 9.10547 5.60556C9.06755 5.60828 9.02949 5.60913 8.99147 5.60921C8.9669 5.60933 8.94232 5.60945 8.917 5.60957C8.88983 5.60955 8.86265 5.60954 8.83465 5.60953C8.8062 5.60962 8.77775 5.60971 8.74843 5.60981C8.65386 5.61007 8.55928 5.61012 8.46471 5.61015C8.39928 5.61024 8.33385 5.61033 8.26843 5.61043C8.13108 5.61059 7.99373 5.61064 7.85638 5.61062C7.67998 5.61062 7.50358 5.611 7.32719 5.61147C7.192 5.61177 7.05682 5.61183 6.92164 5.61181C6.85659 5.61184 6.79153 5.61196 6.72648 5.61218C6.63566 5.61244 6.54485 5.61237 6.45404 5.6122C6.42692 5.61235 6.3998 5.61251 6.37186 5.61267C6.34721 5.61255 6.32255 5.61244 6.29715 5.61232C6.26492 5.61234 6.26492 5.61234 6.23203 5.61236C6.17969 5.60556 6.17969 5.60556 6.125 5.55087C6.14211 5.41056 6.15466 5.38345 6.29368 5.38315Z" fill="black"/>
<path d="M6.29369 7.98081C6.31826 7.98069 6.34284 7.98057 6.36816 7.98045C6.40892 7.98047 6.40892 7.98047 6.45051 7.98049C6.47896 7.9804 6.50741 7.98031 6.53673 7.98021C6.6313 7.97995 6.72588 7.9799 6.82046 7.97987C6.88588 7.97978 6.95131 7.97969 7.01674 7.9796C7.15408 7.97943 7.29143 7.97938 7.42878 7.9794C7.60518 7.9794 7.78158 7.97903 7.95798 7.97856C8.09316 7.97825 8.22834 7.9782 8.36352 7.97821C8.42858 7.97818 8.49363 7.97806 8.55869 7.97785C8.6495 7.97758 8.74031 7.97766 8.83112 7.97782C8.85824 7.97767 8.88536 7.97751 8.9133 7.97736C8.93795 7.97747 8.96261 7.97759 8.98801 7.9777C9.0095 7.97769 9.03099 7.97767 9.05313 7.97766C9.10547 7.98446 9.10547 7.98446 9.16016 8.03915C9.14497 8.16372 9.14497 8.16372 9.10547 8.20321C9.06756 8.206 9.0295 8.20691 8.99148 8.20705C8.9669 8.20721 8.94233 8.20737 8.91701 8.20753C8.87624 8.20757 8.87624 8.20757 8.83466 8.20762C8.79198 8.20782 8.79198 8.20782 8.74844 8.20803C8.65386 8.20843 8.55929 8.20862 8.46471 8.20877C8.39929 8.20893 8.33386 8.20908 8.26843 8.20924C8.13108 8.20953 7.99374 8.20969 7.85639 8.20978C7.67999 8.20993 7.50359 8.21059 7.32719 8.21137C7.19201 8.21188 7.05683 8.21202 6.92165 8.21206C6.85659 8.21214 6.79154 8.21237 6.72648 8.21272C6.63567 8.21319 6.54486 8.21314 6.45404 8.21296C6.42693 8.21321 6.39981 8.21346 6.37187 8.21372C6.34721 8.21357 6.32256 8.21342 6.29716 8.21326C6.26492 8.21332 6.26492 8.21332 6.23204 8.21338C6.20613 8.20835 6.20613 8.20835 6.17969 8.20321C6.12501 8.12118 6.12501 8.12118 6.13355 8.06308C6.16732 7.97099 6.20089 7.98101 6.29369 7.98081Z" fill="black"/>
<path d="M9.92224 10.5508C9.95591 10.5506 9.98959 10.5504 10.0243 10.5503C10.0612 10.5502 10.0981 10.5502 10.135 10.5502C10.1728 10.5501 10.2105 10.55 10.2482 10.5499C10.3274 10.5497 10.4065 10.5497 10.4856 10.5497C10.5871 10.5497 10.6885 10.5493 10.79 10.5488C10.8679 10.5485 10.9459 10.5485 11.0238 10.5485C11.0612 10.5485 11.0987 10.5483 11.1361 10.5481C11.1884 10.5479 11.2407 10.548 11.293 10.5481C11.3227 10.5481 11.3525 10.548 11.3832 10.548C11.457 10.5548 11.457 10.5548 11.5391 10.6094C11.5476 10.6778 11.5476 10.6778 11.5391 10.7462C11.4643 10.8209 11.423 10.8079 11.3184 10.8084C11.2661 10.8087 11.2661 10.8087 11.2128 10.8091C11.1746 10.8091 11.1363 10.8091 11.0981 10.8091C11.0591 10.8092 11.0201 10.8093 10.9811 10.8094C10.8992 10.8096 10.8174 10.8096 10.7356 10.8095C10.6306 10.8093 10.5256 10.8098 10.4205 10.8104C10.3399 10.8108 10.2593 10.8108 10.1787 10.8108C10.14 10.8108 10.1013 10.8109 10.0626 10.8112C10.0085 10.8115 9.95442 10.8113 9.90035 10.811C9.86955 10.811 9.83875 10.8111 9.80701 10.8111C9.78304 10.8077 9.75907 10.8043 9.73437 10.8008C9.67968 10.7188 9.67968 10.7188 9.68652 10.647C9.69328 10.6256 9.70005 10.6042 9.70702 10.5821C9.78109 10.5451 9.83931 10.5511 9.92224 10.5508Z" fill="black"/>
<path d="M8.25177 6.03554C8.30146 6.03514 8.30146 6.03514 8.35215 6.03475C8.3881 6.03477 8.42404 6.0348 8.46107 6.03482C8.4982 6.03471 8.53532 6.0346 8.57244 6.03447C8.6503 6.03426 8.72815 6.03427 8.806 6.03441C8.9058 6.03457 9.00559 6.03411 9.10539 6.03347C9.18207 6.03307 9.25875 6.03305 9.33543 6.03313C9.39013 6.03311 9.44482 6.03273 9.49952 6.03235C9.53273 6.03252 9.56594 6.03269 9.60016 6.03286C9.64409 6.03284 9.64409 6.03284 9.6889 6.03281C9.76172 6.04305 9.76172 6.04305 9.81315 6.08021C9.84375 6.12508 9.84375 6.12508 9.83862 6.19685C9.81641 6.2618 9.81641 6.2618 9.76172 6.28914C9.70994 6.29191 9.65806 6.29292 9.60621 6.29311C9.57363 6.29329 9.54105 6.29346 9.50749 6.29364C9.47214 6.29367 9.43679 6.2937 9.40038 6.29373C9.36387 6.29382 9.32736 6.29391 9.29085 6.29401C9.21428 6.29417 9.13772 6.29422 9.06115 6.29421C8.96301 6.2942 8.86487 6.29458 8.76673 6.29505C8.69131 6.29535 8.6159 6.29541 8.54048 6.29539C8.4867 6.29544 8.43291 6.29574 8.37912 6.29604C8.34646 6.29595 8.3138 6.29587 8.28014 6.29578C8.23695 6.29584 8.23695 6.29584 8.19287 6.2959C8.12109 6.28914 8.12109 6.28914 8.03906 6.23445C8.03052 6.16609 8.03052 6.16609 8.03906 6.09773C8.11243 6.02437 8.14921 6.03598 8.25177 6.03554Z" fill="black"/>
<path d="M9.9002 7.98091C9.93569 7.98083 9.97119 7.98074 10.0078 7.98065C10.0468 7.9807 10.0858 7.98076 10.1249 7.98082C10.1646 7.9808 10.2044 7.98077 10.2441 7.98074C10.3275 7.9807 10.4109 7.98076 10.4943 7.98089C10.6014 7.98104 10.7086 7.98095 10.8157 7.98079C10.8978 7.98069 10.9799 7.98072 11.062 7.98079C11.1015 7.98081 11.141 7.98079 11.1805 7.98072C11.2356 7.98066 11.2908 7.98078 11.3459 7.98091C11.393 7.98095 11.393 7.98095 11.4411 7.98098C11.5117 7.98445 11.5117 7.98445 11.5391 8.01179C11.5442 8.07845 11.5442 8.07845 11.5391 8.14851C11.4643 8.22329 11.423 8.21013 11.3184 8.21028C11.2661 8.21054 11.2661 8.21054 11.2128 8.2108C11.1746 8.2107 11.1364 8.21059 11.0981 8.21046C11.0591 8.2105 11.0201 8.21055 10.9811 8.21062C10.8992 8.2107 10.8174 8.21059 10.7356 8.21033C10.6306 8.21002 10.5256 8.2102 10.4205 8.21053C10.3399 8.21072 10.2594 8.21066 10.1788 8.21052C10.14 8.21048 10.1013 8.21053 10.0626 8.21065C10.0085 8.21079 9.95443 8.21054 9.90036 8.21028C9.85416 8.21021 9.85416 8.21021 9.80702 8.21015C9.73438 8.2032 9.73438 8.2032 9.67969 8.14851C9.70058 7.97717 9.73463 7.98103 9.9002 7.98091Z" fill="black"/>
<path d="M9.80514 5.38348C9.83665 5.38354 9.86817 5.38361 9.90063 5.38367C9.95401 5.38367 9.95401 5.38367 10.0085 5.38367C10.0476 5.38381 10.0867 5.38396 10.1258 5.3841C10.1656 5.38415 10.2055 5.38419 10.2453 5.38422C10.3502 5.38432 10.4552 5.38459 10.5602 5.38489C10.6672 5.38517 10.7742 5.3853 10.8813 5.38544C11.0914 5.38573 11.3016 5.3862 11.5117 5.38677C11.5288 5.46539 11.5288 5.46539 11.5391 5.55083C11.4643 5.62561 11.423 5.61245 11.3184 5.6126C11.2661 5.61286 11.2661 5.61286 11.2128 5.61312C11.1746 5.61302 11.1364 5.61291 11.0981 5.61279C11.0591 5.61282 11.0201 5.61288 10.9811 5.61294C10.8992 5.61302 10.8174 5.61291 10.7356 5.61265C10.6306 5.61234 10.5256 5.61252 10.4205 5.61285C10.3399 5.61304 10.2594 5.61298 10.1788 5.61284C10.14 5.6128 10.1013 5.61285 10.0626 5.61298C10.0085 5.61311 9.95443 5.61287 9.90036 5.6126C9.85416 5.61253 9.85416 5.61253 9.80702 5.61247C9.73438 5.60552 9.73438 5.60552 9.67969 5.55083C9.6995 5.38839 9.6995 5.38839 9.80514 5.38348Z" fill="black"/>
<path d="M8.22678 11.2339C8.26109 11.2337 8.2954 11.2334 8.33075 11.2331C8.36849 11.233 8.40624 11.2329 8.44398 11.2328C8.48244 11.2326 8.52089 11.2325 8.55934 11.2323C8.64005 11.232 8.72076 11.2318 8.80146 11.2318C8.90504 11.2316 9.0086 11.2309 9.11217 11.2302C9.19162 11.2297 9.27106 11.2295 9.35052 11.2295C9.38871 11.2294 9.4269 11.2292 9.46509 11.2288C9.51844 11.2283 9.5718 11.2284 9.62515 11.2286C9.65555 11.2285 9.68595 11.2284 9.71727 11.2283C9.75281 11.2332 9.75281 11.2332 9.78906 11.2383C9.84375 11.3204 9.84375 11.3204 9.83521 11.3785C9.81641 11.4297 9.81641 11.4297 9.78906 11.4571C9.73552 11.4598 9.68187 11.4606 9.62826 11.4606C9.57666 11.4607 9.57666 11.4607 9.52402 11.4609C9.48619 11.4608 9.44835 11.4608 9.41052 11.4607C9.372 11.4607 9.33349 11.4607 9.29497 11.4608C9.21415 11.4608 9.13333 11.4608 9.0525 11.4606C8.94869 11.4605 8.84487 11.4606 8.74105 11.4607C8.66149 11.4608 8.58192 11.4608 8.50236 11.4607C8.46407 11.4607 8.42578 11.4607 8.38749 11.4608C8.33406 11.4609 8.28064 11.4607 8.22721 11.4606C8.19675 11.4606 8.16629 11.4606 8.13491 11.4605C8.06641 11.4571 8.06641 11.4571 8.03906 11.4297C8.03564 11.3477 8.03564 11.3477 8.03906 11.2657C8.08797 11.2168 8.1607 11.2343 8.22678 11.2339Z" fill="black"/>
<path d="M8.25471 8.63319C8.28848 8.63293 8.32224 8.63267 8.35702 8.6324C8.39402 8.63241 8.43102 8.63243 8.46802 8.63247C8.50582 8.63237 8.54362 8.63225 8.58142 8.63212C8.66068 8.63191 8.73993 8.63192 8.81919 8.63207C8.92089 8.63223 9.02258 8.63176 9.12428 8.63113C9.20235 8.63073 9.28041 8.6307 9.35848 8.63079C9.39598 8.63077 9.43348 8.63063 9.47099 8.63035C9.52336 8.63002 9.57573 8.63025 9.6281 8.63052C9.65793 8.6305 9.68776 8.63048 9.71849 8.63047C9.74178 8.63384 9.76507 8.63722 9.78906 8.6407C9.84375 8.72273 9.84375 8.72273 9.83521 8.78084C9.81641 8.8321 9.81641 8.8321 9.78906 8.85945C9.73552 8.86216 9.68187 8.86295 9.62826 8.86299C9.57666 8.86312 9.57666 8.86312 9.52402 8.86325C9.48619 8.8632 9.44835 8.86314 9.41052 8.86308C9.372 8.8631 9.33349 8.86313 9.29497 8.86316C9.21415 8.8632 9.13333 8.86314 9.0525 8.86301C8.94869 8.86286 8.84487 8.86295 8.74105 8.86311C8.66149 8.86321 8.58192 8.86318 8.50236 8.86311C8.46407 8.86309 8.42578 8.86311 8.38749 8.86318C8.33406 8.86324 8.28064 8.86312 8.22721 8.86299C8.19675 8.86297 8.16629 8.86294 8.13491 8.86292C8.06641 8.85945 8.06641 8.85945 8.03906 8.8321C8.03394 8.76545 8.03394 8.76545 8.03906 8.69539C8.11293 8.62152 8.15139 8.63362 8.25471 8.63319Z" fill="black"/>
<path d="M6.30994 6.03906C6.33768 6.03888 6.36542 6.03871 6.394 6.03853C6.42419 6.0385 6.45438 6.03847 6.48549 6.03844C6.53167 6.0383 6.53167 6.0383 6.57878 6.03816C6.64404 6.03802 6.70929 6.03796 6.77455 6.03796C6.87472 6.0379 6.97487 6.03741 7.07504 6.03689C7.13829 6.03681 7.20154 6.03675 7.26479 6.03673C7.29492 6.03653 7.32506 6.03634 7.35611 6.03613C7.39785 6.03626 7.39785 6.03626 7.44043 6.03639C7.465 6.03635 7.48957 6.03631 7.51488 6.03627C7.57422 6.04303 7.57422 6.04303 7.62891 6.09772C7.63745 6.16608 7.63745 6.16608 7.62891 6.23444C7.54095 6.29307 7.51718 6.29609 7.41587 6.29663C7.37604 6.29702 7.37604 6.29702 7.3354 6.29742C7.30678 6.2974 7.27815 6.29737 7.24866 6.29735C7.21923 6.29747 7.1898 6.29758 7.15948 6.2977C7.09724 6.29786 7.03499 6.29787 6.97275 6.29776C6.87733 6.29767 6.78193 6.29831 6.68651 6.299C6.62609 6.29907 6.56567 6.29909 6.50525 6.29906C6.47662 6.29931 6.448 6.29956 6.4185 6.29982C6.39195 6.29965 6.36539 6.29948 6.33804 6.2993C6.31466 6.29932 6.29129 6.29934 6.26721 6.29936C6.19364 6.28685 6.16836 6.26714 6.125 6.20709C6.13943 6.05553 6.16424 6.03968 6.30994 6.03906Z" fill="black"/>
<path d="M6.31288 11.2348C6.34126 11.2347 6.36963 11.2346 6.39887 11.2346C6.44518 11.2346 6.44518 11.2346 6.49243 11.2347C6.52389 11.2347 6.55534 11.2347 6.58775 11.2346C6.65442 11.2346 6.72108 11.2347 6.78774 11.2348C6.89018 11.2349 6.99262 11.2348 7.09506 11.2346C7.15965 11.2346 7.22423 11.2347 7.28882 11.2347C7.31969 11.2347 7.35057 11.2346 7.38238 11.2346C7.41076 11.2346 7.43913 11.2347 7.46837 11.2348C7.49348 11.2348 7.5186 11.2349 7.54448 11.2349C7.60156 11.2384 7.60156 11.2384 7.62891 11.2657C7.63232 11.3477 7.63232 11.3477 7.62891 11.4298C7.58376 11.4749 7.53095 11.4608 7.4688 11.4611C7.44051 11.4613 7.41223 11.4614 7.38308 11.4616C7.3369 11.4617 7.3369 11.4617 7.28978 11.4617C7.25839 11.4618 7.227 11.4619 7.19465 11.462C7.12811 11.4621 7.06156 11.4622 6.99501 11.4622C6.89287 11.4622 6.79073 11.4627 6.68859 11.4632C6.62409 11.4633 6.5596 11.4634 6.4951 11.4634C6.46437 11.4636 6.43363 11.4638 6.40197 11.464C6.37359 11.4639 6.34522 11.4638 6.31599 11.4637C6.29093 11.4638 6.26587 11.4638 6.24006 11.4639C6.17969 11.4571 6.17969 11.4571 6.125 11.4024C6.14366 11.2494 6.16327 11.2349 6.31288 11.2348Z" fill="black"/>
<path d="M6.30994 8.63716C6.35155 8.63703 6.35155 8.63703 6.394 8.6369C6.43929 8.63698 6.43929 8.63698 6.48549 8.63707C6.53167 8.63703 6.53167 8.63703 6.57878 8.63699C6.64404 8.63697 6.70929 8.63702 6.77455 8.63714C6.87472 8.63728 6.97487 8.63714 7.07504 8.63696C7.13829 8.63698 7.20154 8.63702 7.26479 8.63707C7.29492 8.63701 7.32506 8.63696 7.35611 8.6369C7.39785 8.63703 7.39785 8.63703 7.44043 8.63716C7.465 8.63718 7.48957 8.63721 7.51488 8.63723C7.57422 8.6407 7.57422 8.6407 7.62891 8.66804C7.63007 8.72272 7.63002 8.77743 7.62891 8.83211C7.58376 8.87726 7.53095 8.86316 7.4688 8.86342C7.44051 8.8636 7.41223 8.86377 7.38308 8.86395C7.3369 8.864 7.3369 8.864 7.28978 8.86404C7.25839 8.86414 7.227 8.86423 7.19465 8.86432C7.12811 8.86446 7.06156 8.86452 6.99501 8.86452C6.89287 8.86458 6.79073 8.86507 6.68859 8.86559C6.62409 8.86567 6.5596 8.86573 6.4951 8.86575C6.46437 8.86595 6.43363 8.86615 6.40197 8.86635C6.37359 8.86626 6.34522 8.86618 6.31599 8.86609C6.29093 8.86613 6.26587 8.86617 6.24006 8.86621C6.17969 8.85945 6.17969 8.85945 6.125 8.80476C6.14344 8.65357 6.16189 8.63729 6.30994 8.63716Z" fill="black"/>
<path d="M4.78098 10.3098C4.83983 10.336 4.83983 10.336 4.86717 10.3634C4.88022 10.4546 4.87406 10.4905 4.81957 10.5662C4.74819 10.6393 4.6766 10.712 4.60399 10.7838C4.57928 10.8095 4.55457 10.8352 4.52911 10.8616C4.50497 10.8858 4.48082 10.9099 4.45595 10.9348C4.4339 10.957 4.41184 10.9792 4.38912 11.002C4.3203 11.0469 4.3203 11.0469 4.23347 11.0431C4.14457 11.016 4.1087 10.9871 4.04857 10.9171C4.03197 10.8986 4.01537 10.8801 3.99826 10.8611C3.96483 10.8009 3.96483 10.8009 3.97327 10.7252C3.97951 10.7051 3.98574 10.6849 3.99217 10.6641C4.0537 10.6453 4.0537 10.6453 4.12889 10.6368C4.19212 10.6761 4.19212 10.6761 4.23827 10.7188C4.31883 10.6828 4.37202 10.6452 4.43127 10.5801C4.44634 10.5641 4.46141 10.5481 4.47694 10.5316C4.5082 10.4979 4.53925 10.464 4.57008 10.4299C4.68569 10.3084 4.68569 10.3084 4.78098 10.3098Z" fill="black"/>
<path d="M4.73047 7.711C4.80225 7.73663 4.80225 7.73663 4.86719 7.76569C4.87806 7.8567 4.87413 7.8929 4.81916 7.96813C4.79711 7.99032 4.77507 8.01252 4.75237 8.03539C4.72831 8.05962 4.70425 8.08385 4.67947 8.10882C4.64127 8.14622 4.64127 8.14622 4.60229 8.18439C4.57736 8.20985 4.55242 8.23532 4.52673 8.26156C4.50249 8.28562 4.47826 8.30967 4.45329 8.33446C4.4311 8.3565 4.4089 8.37854 4.38603 8.40125C4.3101 8.45674 4.27551 8.46303 4.18359 8.44928C4.0836 8.38098 4.00723 8.29464 3.96143 8.18268C3.96484 8.12115 3.96484 8.12115 3.99561 8.06989C4.04688 8.03912 4.04688 8.03912 4.11353 8.04425C4.1779 8.06466 4.23315 8.09029 4.29297 8.12115C4.30993 8.10397 4.30993 8.10397 4.32724 8.08645C4.37841 8.03471 4.42968 7.98308 4.48096 7.93146C4.49876 7.91343 4.51656 7.8954 4.5349 7.87682C4.56054 7.85105 4.56054 7.85105 4.5867 7.82475C4.60245 7.80886 4.6182 7.79296 4.63443 7.77659C4.67578 7.73834 4.67578 7.73834 4.73047 7.711Z" fill="black"/>
<path d="M4.76871 5.12701C4.83984 5.14069 4.83984 5.14069 4.86719 5.16803C4.88034 5.25942 4.87432 5.29499 4.81916 5.37047C4.79711 5.39267 4.77507 5.41486 4.75237 5.43773C4.72831 5.46196 4.70425 5.48619 4.67947 5.51116C4.64127 5.54857 4.64127 5.54857 4.60229 5.58673C4.57736 5.6122 4.55242 5.63766 4.52673 5.6639C4.50249 5.68796 4.47826 5.71202 4.45329 5.7368C4.4311 5.75884 4.4089 5.78088 4.38603 5.80359C4.30996 5.85919 4.27568 5.86575 4.18359 5.85162C4.09546 5.79196 4.02619 5.71976 3.96484 5.63287C3.96484 5.53717 3.96484 5.53717 3.99219 5.46881C4.10879 5.46339 4.18642 5.47739 4.29297 5.5235C4.30371 5.5119 4.31444 5.50031 4.32551 5.48836C4.37461 5.43584 4.42435 5.38397 4.47412 5.33209C4.491 5.31383 4.50789 5.29558 4.52528 5.27676C4.6541 5.14388 4.6541 5.14388 4.76871 5.12701Z" fill="black"/>
<path d="M6.3838 7.29625C6.4145 7.29611 6.4145 7.29611 6.44583 7.29597C6.4892 7.29584 6.53258 7.29577 6.57595 7.29578C6.64245 7.29572 6.70893 7.29522 6.77543 7.2947C6.81749 7.29462 6.85956 7.29457 6.90163 7.29454C6.93158 7.29425 6.93158 7.29425 6.96213 7.29395C7.10312 7.29459 7.10312 7.29459 7.16406 7.35553C7.15381 7.44098 7.15381 7.44098 7.13672 7.51959C6.99761 7.56596 6.84963 7.5531 6.70403 7.55351C6.64654 7.55377 6.58907 7.55462 6.53158 7.55548C6.49492 7.55566 6.45827 7.5558 6.42162 7.55591C6.37171 7.55629 6.37171 7.55629 6.32079 7.55668C6.22861 7.54629 6.1916 7.52759 6.125 7.46491C6.15834 7.27915 6.20682 7.29652 6.3838 7.29625Z" fill="black"/>
<path d="M6.58047 4.69663C6.64247 4.69636 6.70444 4.69551 6.76644 4.69465C6.8058 4.69447 6.84516 4.69433 6.88452 4.69422C6.9204 4.69397 6.95628 4.69371 6.99324 4.69345C7.08201 4.7032 7.08201 4.7032 7.13569 4.74029C7.16404 4.78523 7.16404 4.78523 7.15891 4.85701C7.1367 4.92195 7.1367 4.92195 7.08201 4.94929C6.95761 4.95572 6.8331 4.95554 6.70855 4.95586C6.64655 4.95612 6.58458 4.95697 6.52258 4.95784C6.48322 4.95801 6.44386 4.95816 6.4045 4.95826C6.36862 4.95852 6.33274 4.95877 6.29578 4.95904C6.20701 4.94929 6.20701 4.94929 6.15333 4.9122C6.12498 4.86726 6.12498 4.86726 6.13011 4.79548C6.18426 4.6372 6.43762 4.697 6.58047 4.69663Z" fill="black"/>
<path d="M6.3838 9.89391C6.4145 9.89377 6.4145 9.89377 6.44583 9.89363C6.4892 9.89349 6.53258 9.89343 6.57595 9.89343C6.64245 9.89337 6.70893 9.89288 6.77543 9.89236C6.81749 9.89228 6.85956 9.89222 6.90163 9.8922C6.93158 9.8919 6.93158 9.8919 6.96213 9.8916C7.10312 9.89224 7.10312 9.89224 7.16406 9.95319C7.14887 10.0778 7.14887 10.0778 7.10938 10.1172C7.04108 10.1203 6.97357 10.1217 6.90526 10.1218C6.87456 10.122 6.87456 10.122 6.84324 10.1221C6.79986 10.1223 6.75649 10.1223 6.71311 10.1223C6.64661 10.1224 6.58013 10.1229 6.51363 10.1234C6.47157 10.1235 6.4295 10.1235 6.38744 10.1236C6.35748 10.1238 6.35748 10.1238 6.32693 10.1241C6.18594 10.1235 6.18594 10.1235 6.125 10.0626C6.14788 9.87492 6.21378 9.89416 6.3838 9.89391Z" fill="black"/>
</g>
<defs>
<clipPath id="clip0_26_18403">
<rect width="14" height="14" fill="white"/>
</clipPath>
</defs>
</svg>
