<svg width="232" height="209" viewBox="0 0 232 209" fill="none" xmlns="http://www.w3.org/2000/svg">
<g clip-path="url(#clip0_1_2833)">
<mask id="mask0_1_2833" style="mask-type:luminance" maskUnits="userSpaceOnUse" x="-23" y="-25" width="261" height="261">
<path d="M237.613 -24.881H-22.3928V235.125H237.613V-24.881Z" fill="white"/>
</mask>
<g mask="url(#mask0_1_2833)">
<path d="M131.966 121.262C131.966 121.262 139.671 124.146 147.032 131.423C154.019 138.328 157.852 144.901 157.852 144.901C152.219 143.203 146.866 140.246 142.23 136.013C137.595 131.781 134.165 126.719 131.964 121.262H131.966Z" fill="#F0F2F5"/>
<path d="M150.788 146.485C155.046 146.686 159.032 147.845 162.548 149.743C158.869 151.299 154.792 152.076 150.534 151.875C146.277 151.674 142.29 150.517 138.775 148.621C142.454 147.063 146.532 146.286 150.789 146.487L150.788 146.485Z" fill="#F0F2F5"/>
<path d="M166.254 124.516C167.096 128.421 167.096 132.573 166.101 136.716C165.106 140.861 163.221 144.56 160.699 147.658C159.859 143.753 159.861 139.602 160.856 135.456C161.851 131.313 163.734 127.614 166.256 124.516H166.254Z" fill="#F0F2F5"/>
<path d="M151.474 180.882C146.565 178.155 145.669 175.09 148.01 171.529C150.353 167.967 153.378 165.125 156.801 163.066C156.801 163.066 156.442 168.976 152.518 174.492C150.558 177.248 150.243 179.28 151.474 180.881V180.882Z" fill="#F0F2F5"/>
<path d="M153.941 158.172C154.053 158.14 154.167 158.108 154.281 158.079L154.863 157.927C155.058 157.878 155.253 157.834 155.448 157.787L155.741 157.718L156.035 157.655L156.624 157.531C157.411 157.376 158.203 157.244 158.998 157.133C160.59 156.928 162.192 156.808 163.797 156.785C165.385 156.762 166.977 156.817 168.552 157.017C168.517 156.97 168.481 156.921 168.446 156.874C167.374 155.456 166.266 154.063 165.125 152.701C163.983 151.338 162.806 150.004 161.596 148.701C160.993 148.048 160.378 147.405 159.757 146.769C159.134 146.134 158.503 145.508 157.853 144.902C158.507 145.503 159.142 146.126 159.77 146.756C160.396 147.387 161.015 148.027 161.622 148.677C162.837 149.977 164.016 151.309 165.162 152.669C166.308 154.029 167.419 155.42 168.495 156.836C168.794 157.231 169.091 157.627 169.384 158.025C169.449 157.491 169.539 156.958 169.665 156.434C169.794 155.896 169.944 155.363 170.119 154.839C170.296 154.315 170.488 153.795 170.702 153.286C170.917 152.776 171.146 152.273 171.405 151.785C171.289 152.035 171.176 152.287 171.069 152.542C170.961 152.796 170.855 153.052 170.755 153.308C170.553 153.821 170.361 154.339 170.19 154.864C170.01 155.385 169.861 155.917 169.721 156.45L169.622 156.851C169.59 156.985 169.564 157.121 169.534 157.256C169.473 157.511 169.436 157.771 169.386 158.03C170.149 159.061 170.894 160.106 171.612 161.171C171.865 161.536 172.107 161.91 172.35 162.282C172.593 162.655 172.842 163.023 173.075 163.402L173.784 164.532L174.472 165.675C174.585 165.867 174.702 166.056 174.813 166.248L175.144 166.827L175.475 167.406C175.585 167.6 175.697 167.792 175.801 167.988L176.437 169.161L176.596 169.455L176.748 169.751L177.052 170.346C177.465 171.133 177.84 171.94 178.228 172.741C178.417 173.143 178.594 173.552 178.777 173.957L179.05 174.566C179.14 174.769 179.223 174.976 179.308 175.182L179.816 176.416L180.29 177.663L180.526 178.287L180.744 178.918L181.02 179.722H181.074C181.042 178.629 181.004 177.535 180.96 176.442C180.85 173.632 180.71 170.824 180.535 168.019C180.36 165.213 180.153 162.408 179.914 159.607C179.77 157.94 179.612 156.272 179.443 154.607C178.907 154.955 178.351 155.248 177.79 155.441C174.084 156.721 170.086 155.209 170.086 155.209C171.791 153.541 173.889 152.219 176.3 151.402C177.204 151.096 178.117 150.872 179.028 150.728L178.846 149.12L178.589 147.027C178.57 146.866 178.549 146.706 178.529 146.547C175.079 150.2 171.405 151.786 171.405 151.786C172.18 147.868 173.825 144.057 176.382 140.645C176.748 140.157 177.127 139.736 177.52 139.381L177.411 138.676L177.247 137.635L177.072 136.595L176.897 135.555C176.838 135.208 176.782 134.861 176.717 134.516L176.339 132.442C176.278 132.095 176.209 131.751 176.142 131.406L175.939 130.372L175.735 129.338C175.667 128.993 175.59 128.65 175.518 128.306L175.479 128.122C175.252 128.063 169.657 126.56 165.073 121.768C162.735 119.325 160.797 118.633 158.993 119.542C162.594 115.233 165.775 114.93 168.831 117.899C171.872 120.854 174.085 124.338 175.466 128.064L175.076 126.244C174.704 124.574 174.303 122.91 173.88 121.253C173.873 121.258 173.866 121.262 173.858 121.266C173.858 121.266 173.863 121.249 173.871 121.221C173.602 120.166 173.325 119.112 173.034 118.062C173.034 118.062 168.124 112.25 163.955 103.355C159.562 93.9831 159.423 85.7575 159.423 85.7575C163.828 89.6576 167.451 94.5835 169.887 100.367C172.326 106.154 173.32 112.186 173.034 118.063C173.327 119.104 173.607 120.149 173.879 121.196C174.059 120.583 175.468 115.981 178.597 110.731C182.138 104.788 186.64 101.628 186.64 101.628C186.132 105.529 184.762 109.379 182.474 112.895C180.192 116.4 177.237 119.205 173.892 121.246C174.322 122.904 174.73 124.567 175.11 126.237L175.554 128.298C175.628 128.642 175.705 128.985 175.773 129.33L175.979 130.364L176.184 131.398C176.253 131.743 176.323 132.087 176.384 132.433L176.765 134.507C177.051 136.114 177.317 137.723 177.569 139.335C179.912 137.262 182.755 137.586 186.355 140.727C184.432 140.112 182.627 141.099 180.699 143.878C180.03 144.843 179.314 145.708 178.587 146.483C178.768 147.893 178.939 149.304 179.1 150.718C180.595 150.488 182.09 150.471 183.546 150.648C183.619 150.614 181.773 153.065 179.508 154.562C179.676 156.24 179.833 157.92 179.976 159.602C180.211 162.404 180.413 165.208 180.583 168.015C180.818 171.914 180.997 175.818 181.095 179.722H181.202L181.259 178.727L181.28 178.365L181.291 178.183L181.308 178.002L181.374 177.277L181.44 176.553L181.473 176.191L181.518 175.831L181.698 174.388L181.72 174.207L181.748 174.027L181.805 173.668L181.917 172.949L182.03 172.231L182.162 171.516C182.252 171.039 182.335 170.562 182.43 170.087L182.732 168.664C183.566 164.877 184.657 161.149 185.932 157.486C186.576 155.658 187.258 153.842 187.987 152.045C188.718 150.248 189.485 148.469 190.291 146.704C191.36 144.369 192.488 142.057 193.695 139.789C190.436 137.497 187.627 134.459 185.547 130.752C183.462 127.035 182.332 123.04 182.078 119.054C185.347 121.349 188.166 124.396 190.252 128.112C192.326 131.81 193.456 135.78 193.718 139.745C194.324 138.606 194.951 137.476 195.601 136.362C195.113 137.198 194.647 138.049 194.19 138.904C194.031 139.199 193.877 139.496 193.722 139.791C193.722 139.797 193.722 139.804 193.723 139.81C193.723 139.81 193.717 139.807 193.715 139.804C193.423 140.362 193.134 140.921 192.851 141.484C191.976 143.213 191.137 144.961 190.336 146.725C189.727 148.066 189.141 149.415 188.576 150.774C190.047 150.175 191.571 149.709 193.111 149.319C194.665 148.925 196.243 148.621 197.831 148.399C198.626 148.296 199.424 148.214 200.224 148.154L200.825 148.118L201.125 148.1L201.425 148.089C201.626 148.082 201.826 148.073 202.027 148.068L202.628 148.06C202.829 148.055 203.029 148.06 203.23 148.06C203.431 148.063 203.63 148.062 203.831 148.068C204.232 148.084 204.633 148.092 205.033 148.122C205.833 148.168 206.631 148.263 207.425 148.366C211.184 147.011 215.298 146.458 219.539 146.892C223.778 147.326 227.695 148.701 231.101 150.789C231.27 150.786 224.228 154.586 218.998 154.082C212.462 153.454 207.425 148.366 207.425 148.366C206.629 148.275 205.832 148.193 205.031 148.159C204.631 148.132 204.231 148.126 203.83 148.112C203.63 148.106 203.429 148.108 203.23 148.106C203.03 148.106 202.829 148.102 202.629 148.108L202.029 148.12C201.829 148.126 201.628 148.136 201.429 148.145L201.128 148.158L200.828 148.177L200.229 148.217C199.431 148.281 198.635 148.367 197.84 148.472C196.253 148.686 194.677 148.98 193.123 149.367C192.345 149.559 191.572 149.772 190.807 150.009C190.056 150.239 189.308 150.486 188.576 150.774C188.398 151.205 188.22 151.636 188.045 152.067C187.321 153.865 186.643 155.68 186.003 157.51C184.721 161.166 183.623 164.89 182.78 168.673L182.476 170.094C182.38 170.569 182.296 171.045 182.205 171.522L182.071 172.235L181.958 172.953L181.844 173.67L181.787 174.03L181.759 174.209L181.735 174.389L181.548 175.829L181.5 176.19L181.465 176.552L181.394 177.275L181.323 177.998L181.305 178.179L181.293 178.36L181.271 178.723L181.208 179.717H195.971V184.756V184.979V209.298H166.389V179.717H181.02L180.739 178.915L180.518 178.287L180.278 177.665L179.796 176.422L179.28 175.192C179.192 174.988 179.111 174.781 179.02 174.578L178.745 173.97C178.561 173.566 178.384 173.158 178.193 172.757C177.805 171.958 177.429 171.152 177.013 170.366L176.708 169.773L176.555 169.476L176.396 169.183L175.758 168.012C175.654 167.815 175.54 167.624 175.43 167.431L175.098 166.853L174.766 166.275C174.655 166.083 174.538 165.895 174.423 165.703L173.733 164.563L173.022 163.435C172.788 163.057 172.537 162.69 172.295 162.317C172.05 161.946 171.808 161.574 171.554 161.209C170.597 159.782 169.59 158.389 168.557 157.016C167.777 156.925 166.991 156.88 166.206 156.851C165.405 156.821 164.603 156.816 163.802 156.832C162.968 156.849 162.133 156.893 161.301 156.96C160.843 157.375 160.414 157.822 160.004 158.284C159.695 158.634 159.396 158.991 159.111 159.359C160.781 160.431 162.246 161.882 163.363 163.681C164.486 165.492 165.14 167.461 165.356 169.446C163.672 168.373 162.195 166.914 161.071 165.104C159.958 163.31 159.306 161.36 159.085 159.394C158.987 159.521 158.89 159.65 158.796 159.781C158.698 159.908 158.607 160.04 158.515 160.171C158.424 160.304 158.328 160.431 158.242 160.567L157.979 160.97C157.934 161.036 157.893 161.105 157.852 161.175L157.726 161.38C157.388 161.925 157.094 162.496 156.803 163.069L157.005 162.632C157.074 162.486 157.139 162.339 157.216 162.198L157.44 161.771C157.514 161.628 157.6 161.493 157.678 161.352C157.997 160.793 158.359 160.26 158.737 159.739C159.119 159.221 159.527 158.723 159.962 158.248C160.18 158.011 160.404 157.782 160.634 157.556C160.849 157.352 161.067 157.15 161.297 156.964C160.533 157.025 159.771 157.107 159.012 157.208C158.218 157.316 157.427 157.443 156.64 157.594L156.052 157.714L155.757 157.776L155.464 157.843C155.269 157.889 155.074 157.932 154.879 157.98L154.298 158.13C154.193 158.156 154.089 158.185 153.983 158.214C152.498 159.529 150.704 160.543 148.671 161.127C146.623 161.716 144.55 161.808 142.58 161.475C144.071 160.146 145.877 159.124 147.925 158.536C149.949 157.954 151.997 157.857 153.944 158.175L153.941 158.172Z" fill="#F0F2F5"/>
<path d="M214.077 106.57C213.444 112.419 211.522 118.223 208.214 123.556C204.904 128.892 200.559 133.194 195.601 136.361C195.601 136.361 197.501 128.993 202.344 120.447C207.448 111.443 214.077 106.57 214.077 106.57Z" fill="#F0F2F5"/>
<path d="M192.489 142.273C195.355 139.491 198.876 137.291 202.919 135.939C206.96 134.587 211.096 134.225 215.06 134.724C212.193 137.505 208.672 139.703 204.63 141.055C200.587 142.407 196.452 142.77 192.489 142.273Z" fill="#F0F2F5"/>
<path d="M195.413 155.931C195.998 153.896 197.012 152.102 198.327 150.615C197.953 150.338 197.567 150.076 197.176 149.823C196.636 149.477 196.082 149.153 195.505 148.87C195.802 148.996 196.088 149.142 196.373 149.291C196.655 149.446 196.934 149.605 197.207 149.774C197.754 150.112 198.284 150.48 198.792 150.875C199.296 151.273 199.791 151.688 200.249 152.138C200.363 152.252 200.483 152.359 200.592 152.477L200.924 152.827C201.036 152.942 201.139 153.066 201.244 153.188L201.557 153.554C201.121 153.082 200.683 152.613 200.209 152.181L200.033 152.016C199.975 151.961 199.916 151.907 199.854 151.855L199.493 151.538C199.373 151.431 199.246 151.335 199.122 151.232C198.997 151.13 198.873 151.028 198.745 150.933C198.618 150.832 198.49 150.734 198.36 150.638C198.683 152.591 198.587 154.645 198.005 156.674C197.416 158.722 196.393 160.527 195.063 162.018C194.73 160.049 194.823 157.975 195.412 155.928L195.413 155.931Z" fill="#F0F2F5"/>
<path d="M211.53 169.248C212.279 167.372 211.423 165.501 208.787 163.383C203.511 159.143 201.556 153.554 201.556 153.554C205.41 154.605 209.095 156.515 212.318 159.305C215.54 162.094 215.513 165.289 211.53 169.248Z" fill="#F0F2F5"/>
<path d="M96.1025 195.15H66.6072V209.299H96.1025V195.15Z" fill="white"/>
<path d="M66.6072 195.15H29.424V209.299H66.6072V195.15Z" fill="#F0F2F5"/>
<path d="M97.0515 195.15H66.6072V196.313H97.0515V195.15Z" fill="#F0F2F5"/>
<path d="M96.5551 198.926H82.9025V199.217H96.5551V198.926Z" fill="#F0F2F5"/>
<path d="M97.0515 208.136H66.6072V209.299H97.0515V208.136Z" fill="#F0F2F5"/>
<path d="M35.9135 195.15H33.1716V209.299H35.9135V195.15Z" fill="white"/>
<path d="M62.3005 195.15H61.615V209.299H62.3005V195.15Z" fill="white"/>
<path d="M59.9983 195.15H59.3129V209.299H59.9983V195.15Z" fill="white"/>
<path d="M95.8957 204.377H92.817L89.9545 199.217H93.0344L95.8957 204.377Z" fill="#F0F2F5"/>
<path d="M41.461 200.112V204.338H40.3619V202.563H40.0333V204.338H38.9342V200.112H40.0333V201.623H40.3619V200.112H41.461Z" fill="white"/>
<path d="M43.001 200.112V204.338H41.9019V200.112H43.001Z" fill="white"/>
<path d="M45.7712 201.39H44.7501V201.077C44.7501 200.931 44.7371 200.838 44.7111 200.798C44.6851 200.758 44.6414 200.738 44.5811 200.738C44.5149 200.738 44.4653 200.765 44.431 200.82C44.3967 200.874 44.3802 200.955 44.3802 201.065C44.3802 201.206 44.3991 201.312 44.4369 201.384C44.4735 201.455 44.5764 201.542 44.7477 201.643C45.237 201.934 45.5455 202.172 45.6719 202.358C45.7984 202.545 45.8622 202.845 45.8622 203.259C45.8622 203.56 45.8268 203.782 45.757 203.924C45.6861 204.067 45.5502 204.187 45.3481 204.284C45.146 204.38 44.9108 204.429 44.6437 204.429C44.3494 204.429 44.0989 204.373 43.8909 204.262C43.6829 204.151 43.547 204.009 43.482 203.837C43.417 203.664 43.3851 203.42 43.3851 203.103V202.826H44.4062V203.34C44.4062 203.499 44.4204 203.6 44.4487 203.647C44.4771 203.691 44.5279 203.714 44.6012 203.714C44.6745 203.714 44.7288 203.686 44.7643 203.628C44.7997 203.57 44.8175 203.485 44.8175 203.372C44.8175 203.123 44.7832 202.961 44.7158 202.884C44.6461 202.807 44.4747 202.68 44.2017 202.5C43.9287 202.319 43.7479 202.188 43.6581 202.105C43.5694 202.024 43.4962 201.91 43.4371 201.766C43.3792 201.622 43.3496 201.438 43.3496 201.213C43.3496 200.889 43.391 200.653 43.4737 200.503C43.5564 200.353 43.69 200.236 43.8743 200.152C44.0587 200.068 44.2821 200.025 44.5421 200.025C44.8269 200.025 45.0704 200.071 45.2713 200.164C45.4722 200.256 45.6057 200.372 45.6707 200.512C45.7357 200.653 45.7688 200.89 45.7688 201.226V201.393L45.7712 201.39Z" fill="white"/>
<path d="M48.4209 200.112V200.958H47.7685V204.339H46.6694V200.958H46.0194V200.112H48.4209Z" fill="white"/>
<path d="M51.1829 202.586C51.1829 203.011 51.1734 203.312 51.1534 203.488C51.1333 203.665 51.0706 203.826 50.9654 203.973C50.8603 204.119 50.7172 204.232 50.5388 204.31C50.3591 204.388 50.1511 204.427 49.9124 204.427C49.6867 204.427 49.4834 204.39 49.3026 204.315C49.1229 204.241 48.9776 204.131 48.8677 203.982C48.7578 203.834 48.6927 203.674 48.6715 203.499C48.6502 203.325 48.6407 203.02 48.6407 202.585V201.862C48.6407 201.438 48.6502 201.136 48.6703 200.96C48.6904 200.783 48.753 200.622 48.8582 200.476C48.9634 200.329 49.1064 200.217 49.2849 200.139C49.4645 200.061 49.6725 200.022 49.9112 200.022C50.15 200.022 50.3402 200.058 50.5211 200.133C50.7007 200.207 50.8461 200.317 50.956 200.466C51.0659 200.614 51.1309 200.775 51.1522 200.95C51.1734 201.123 51.1829 201.428 51.1829 201.863V202.586ZM50.0838 201.198C50.0838 201.002 50.0731 200.875 50.0507 200.821C50.0294 200.766 49.9845 200.738 49.916 200.738C49.8581 200.738 49.8143 200.76 49.7836 200.804C49.7529 200.849 49.7375 200.979 49.7375 201.197V203.17C49.7375 203.416 49.747 203.567 49.767 203.624C49.7871 203.682 49.8332 203.71 49.9065 203.71C49.9798 203.71 50.0294 203.677 50.0495 203.611C50.0708 203.545 50.0814 203.388 50.0814 203.138V201.197L50.0838 201.198Z" fill="white"/>
<path d="M51.593 200.112H52.3706C52.8895 200.112 53.2405 200.132 53.4237 200.172C53.6068 200.212 53.7569 200.314 53.8728 200.479C53.9886 200.643 54.0465 200.906 54.0465 201.266C54.0465 201.595 54.0051 201.816 53.9236 201.929C53.842 202.043 53.6813 202.11 53.4402 202.133C53.6577 202.187 53.8042 202.259 53.8787 202.349C53.9531 202.44 54.0004 202.523 54.0181 202.598C54.0358 202.674 54.0453 202.882 54.0453 203.223V204.338H53.0242V202.934C53.0242 202.708 53.0065 202.568 52.971 202.513C52.9356 202.459 52.8422 202.432 52.6909 202.432V204.338H51.5918V200.112H51.593ZM52.6921 200.835V201.775C52.8162 201.775 52.9025 201.758 52.9521 201.724C53.0017 201.689 53.0266 201.579 53.0266 201.394V201.161C53.0266 201.028 53.0029 200.939 52.9545 200.898C52.9072 200.856 52.8186 200.835 52.6921 200.835Z" fill="white"/>
<path d="M56.8143 200.112L56.013 202.809V204.338H54.9955V202.809L54.2225 200.112H55.2318C55.389 200.937 55.4788 201.492 55.4989 201.777C55.5592 201.325 55.662 200.771 55.805 200.112H56.8143Z" fill="white"/>
<path d="M94.8214 173.06H69.4991V185.207H94.8214V173.06Z" fill="white"/>
<path d="M69.4992 173.06H37.5775V185.207H69.4992V173.06Z" fill="#F0F2F5"/>
<path d="M95.6356 173.06H69.4991V174.058H95.6356V173.06Z" fill="#F0F2F5"/>
<path d="M95.2102 176.301H83.4898V176.55H95.2102V176.301Z" fill="#F0F2F5"/>
<path d="M95.6356 184.209H69.4991V185.206H95.6356V184.209Z" fill="#F0F2F5"/>
<path d="M43.1488 174.806H40.7946V183.462H43.1488V174.806Z" fill="white"/>
<path d="M64.4953 174.806H48.7212V183.462H64.4953V174.806Z" fill="white"/>
<path d="M94.6441 180.981H92.0015L89.5444 176.552H92.187L94.6441 180.981Z" fill="#F0F2F5"/>
<path d="M46.8266 185.206H87.878V195.15H46.8266C44.1084 195.15 41.9019 192.944 41.9019 190.226V190.131C41.9019 187.413 44.1084 185.206 46.8266 185.206Z" fill="#F0F2F5"/>
<path d="M72.1914 186.024H88.7668V194.335H72.1914C69.8986 194.335 68.036 192.473 68.036 190.179C68.036 187.887 69.8974 186.024 72.1914 186.024Z" fill="white"/>
<path d="M89.4333 185.206H68.036V186.023H89.4333V185.206Z" fill="#F0F2F5"/>
<path d="M89.0847 187.861H79.4893V188.065H89.0847V187.861Z" fill="#F0F2F5"/>
<path d="M89.4333 194.334H68.036V195.15H89.4333V194.334Z" fill="#F0F2F5"/>
<path d="M64.7682 193.496H47.076C45.2442 193.496 43.7598 192.01 43.7598 190.178C43.7598 189.262 44.1309 188.433 44.7312 187.833C45.3304 187.233 46.1601 186.862 47.076 186.862H64.7659C64.6122 186.979 64.4669 187.105 64.331 187.241C63.5793 187.993 63.1137 189.032 63.1137 190.179C63.1137 191.534 63.7625 192.738 64.7671 193.497L64.7682 193.496Z" fill="white"/>
<path d="M62.4825 193.996C62.4364 193.996 62.3892 193.981 62.3502 193.951C61.1553 193.048 60.4698 191.673 60.4698 190.178C60.4698 188.917 60.9615 187.731 61.8538 186.838C62.0074 186.685 62.1741 186.539 62.3478 186.408C62.4447 186.335 62.583 186.354 62.6574 186.451C62.7307 186.548 62.7118 186.686 62.6149 186.76C62.4577 186.88 62.3064 187.011 62.167 187.152C61.3574 187.961 60.9119 189.037 60.9119 190.179C60.9119 191.534 61.5335 192.781 62.6161 193.6C62.713 193.673 62.7331 193.811 62.6586 193.909C62.6149 193.967 62.5487 193.997 62.4825 193.997V193.996Z" fill="#F0F2F5"/>
<path d="M59.5669 114.882C59.21 114.357 58.3957 114.043 57.7221 114.278C57.2162 114.455 56.662 114.427 56.181 114.19C56.1762 114.188 56.1703 114.186 56.1656 114.183C55.8063 114.008 55.5179 113.719 55.3229 113.369C54.3385 111.61 52.4558 110.42 50.2965 110.42C48.7058 110.42 47.2663 111.067 46.2239 112.11C45.7677 111.912 45.3647 111.593 45.0681 111.18C43.6664 109.235 41.3807 107.968 38.7984 107.968C35.9028 107.968 33.3784 109.563 32.0571 111.922C31.7948 112.39 31.4083 112.779 30.9261 113.014C30.919 113.018 30.9131 113.021 30.906 113.024C30.2607 113.342 29.5185 113.38 28.8401 113.142C27.9384 112.826 26.8452 113.248 26.3665 113.952C24.5181 116.666 18.6243 117.612 18.6243 117.612H65.3391C65.3391 117.612 60.9438 116.907 59.5657 114.883L59.5669 114.882Z" fill="#F0F2F5"/>
<path d="M222.254 70.0224C222.006 69.6572 221.438 69.4386 220.97 69.6028C220.618 69.7257 220.233 69.7068 219.898 69.5414C219.895 69.5402 219.891 69.5378 219.888 69.5366C219.637 69.4149 219.438 69.2128 219.302 68.9705C218.616 67.7461 217.307 66.9189 215.804 66.9189C214.697 66.9189 213.696 67.3691 212.97 68.0948C212.653 67.9565 212.372 67.7343 212.166 67.4471C211.191 66.0927 209.6 65.2111 207.802 65.2111C205.787 65.2111 204.03 66.3208 203.111 67.9624C202.929 68.2886 202.66 68.5581 202.324 68.7224C202.32 68.7247 202.315 68.7271 202.31 68.7294C201.861 68.9505 201.345 68.9765 200.872 68.811C200.244 68.5912 199.483 68.8855 199.15 69.3747C197.864 71.2633 193.762 71.9216 193.762 71.9216H226.271C226.271 71.9216 223.212 71.4311 222.254 70.0224Z" fill="#F0F2F5"/>
<path d="M82.2466 4.90272C81.9984 4.53753 81.4311 4.31889 80.9631 4.48317C80.6109 4.60608 80.2256 4.58717 79.8912 4.42171C79.8876 4.42053 79.8841 4.41816 79.8805 4.41698C79.63 4.29525 79.4303 4.09316 79.2943 3.85088C78.6089 2.62649 77.2994 1.7992 75.7973 1.7992C74.6899 1.7992 73.6889 2.24948 72.9632 2.97513C72.6453 2.83686 72.3652 2.61467 72.1584 2.32748C71.1834 0.973087 69.5926 0.0914307 67.795 0.0914307C65.78 0.0914307 64.0225 1.20118 63.1043 2.84277C62.9222 3.16896 62.6528 3.43842 62.3171 3.60269C62.3124 3.60506 62.3077 3.60742 62.303 3.60978C61.8539 3.83079 61.3374 3.85679 60.8647 3.69133C60.2371 3.47151 59.476 3.76579 59.1439 4.25507C57.858 6.14366 53.7559 6.80195 53.7559 6.80195H86.2649C86.2649 6.80195 83.2063 6.31148 82.2478 4.90272H82.2466Z" fill="#F0F2F5"/>
<path d="M198.202 10.1123C198.031 9.86174 197.641 9.71047 197.319 9.82275C197.077 9.90784 196.812 9.89484 196.582 9.7802C196.579 9.77901 196.577 9.77783 196.575 9.77665C196.402 9.69274 196.265 9.55447 196.171 9.38664C195.699 8.54399 194.797 7.97552 193.764 7.97552C193.002 7.97552 192.313 8.28516 191.814 8.78508C191.596 8.69053 191.403 8.5369 191.261 8.33953C190.59 7.40823 189.495 6.80077 188.259 6.80077C186.873 6.80077 185.664 7.56424 185.032 8.69408C184.906 8.91863 184.721 9.10418 184.49 9.21646C184.487 9.21764 184.484 9.22 184.481 9.22118C184.172 9.37364 183.817 9.39137 183.492 9.27791C183.06 9.12664 182.537 9.32873 182.307 9.66556C181.422 10.9656 178.6 11.4182 178.6 11.4182H200.966C200.966 11.4182 198.863 11.0802 198.202 10.1123Z" fill="#F0F2F5"/>
</g>
<path d="M112.267 29.5418V92.3569C112.267 95.1236 110.025 97.3656 107.258 97.3656H4.73168C1.96498 97.3656 -0.276978 95.1236 -0.276978 92.3569V29.5418H112.267Z" fill="white"/>
<path d="M112.267 25.3924V29.5418H-0.276978V25.3924C-0.276978 22.6257 1.96498 20.3825 4.73168 20.3825H107.258C110.025 20.3825 112.267 22.6257 112.267 25.3924Z" fill="#F0F2F5"/>
<path d="M112.326 29.6009H-0.33606V25.3924C-0.33606 22.5973 1.93781 20.3235 4.73169 20.3235H107.258C110.052 20.3235 112.326 22.5973 112.326 25.3924V29.6009ZM-0.217875 29.4828H112.208V25.3924C112.208 22.6623 109.987 20.4416 107.258 20.4416H4.73169C2.00281 20.4416 -0.217875 22.6623 -0.217875 25.3924V29.4828Z" fill="#1F4168"/>
<path d="M107.258 97.4247H4.73169C1.93781 97.4247 -0.33606 95.1508 -0.33606 92.3569V29.4828H112.326V92.3569C112.326 95.1508 110.052 97.4247 107.258 97.4247ZM-0.217875 29.6009V92.3569C-0.217875 95.0858 2.00281 97.3065 4.73169 97.3065H107.258C109.987 97.3065 112.208 95.0858 112.208 92.3569V29.6009H-0.217875Z" fill="#1F4168"/>
<path d="M5.40302 26.3414C6.16474 26.3414 6.78223 25.7239 6.78223 24.9622C6.78223 24.2005 6.16474 23.583 5.40302 23.583C4.6413 23.583 4.0238 24.2005 4.0238 24.9622C4.0238 25.7239 4.6413 26.3414 5.40302 26.3414Z" fill="#1F4168"/>
<path d="M11.4374 26.3414C12.1992 26.3414 12.8167 25.7239 12.8167 24.9622C12.8167 24.2005 12.1992 23.583 11.4374 23.583C10.6757 23.583 10.0582 24.2005 10.0582 24.9622C10.0582 25.7239 10.6757 26.3414 11.4374 26.3414Z" fill="#1F4168"/>
<path d="M17.472 26.3414C18.2337 26.3414 18.8512 25.7239 18.8512 24.9622C18.8512 24.2005 18.2337 23.583 17.472 23.583C16.7103 23.583 16.0928 24.2005 16.0928 24.9622C16.0928 25.7239 16.7103 26.3414 17.472 26.3414Z" fill="#1F4168"/>
<path d="M73.9369 43.3694H37.2158C33.3772 43.3694 30.2654 46.4812 30.2654 50.3199V76.2271C30.2654 80.0657 33.3772 83.1775 37.2158 83.1775H73.9369C77.7755 83.1775 80.8874 80.0657 80.8874 76.2271V50.3199C80.8874 46.4812 77.7755 43.3694 73.9369 43.3694Z" fill="#F0F2F5"/>
<path d="M64.6395 71.5008C69.4141 66.7262 69.4141 58.985 64.6395 54.2104C59.8649 49.4357 52.1237 49.4357 47.3491 54.2104C42.5745 58.985 42.5745 66.7262 47.3491 71.5008C52.1237 76.2754 59.8649 76.2754 64.6395 71.5008Z" fill="#1F4168"/>
<path d="M53.9544 68.759L48.7838 63.9843L50.4644 62.1643L53.8929 65.3293L61.4922 57.7879L63.2378 59.5465L53.9544 68.759Z" fill="white"/>
<path d="M73.937 83.2366H37.217C33.3512 83.2366 30.2075 80.0917 30.2075 76.2271V50.321C30.2075 46.4552 33.3524 43.3115 37.217 43.3115H73.937C77.8028 43.3115 80.9465 46.4564 80.9465 50.321V76.2271C80.9465 80.0929 77.8016 83.2366 73.937 83.2366ZM37.217 43.4285C33.4174 43.4285 30.3257 46.5202 30.3257 50.3199V76.2259C30.3257 80.0255 33.4174 83.1172 37.217 83.1172H73.937C77.7366 83.1172 80.8283 80.0255 80.8283 76.2259V50.3199C80.8283 46.5202 77.7366 43.4285 73.937 43.4285H37.217Z" fill="#1F4168"/>
<path d="M171.171 176.136C171.523 161.243 172.596 149.765 172.596 149.765C186.494 149.765 197.401 143.656 197.401 143.656C196.393 107.564 188.242 91.6963 185.452 90.6539C184.925 86.7526 175.641 83.538 170.509 79.5103C169.605 78.176 168.041 77.4456 166.438 77.6087L148.493 79.4358C148.493 79.4358 139.247 79.8506 133.584 78.7184C131.68 78.3379 128.958 77.988 127.826 79.9026C117.097 83.8027 105.453 84.1537 103.012 87.5728C91.0903 89.4909 85.2709 113.455 78.3666 128.287C78.3666 128.287 85.7779 134.907 93.5403 134.634C93.5403 134.634 94.4893 146.188 97.4274 151.158L94.9443 172.607C94.9443 172.607 91.2121 177.985 93.8109 181.387L90.2075 209.299H181.945C177.701 197.52 173.791 186.195 173.791 186.195C176.67 181.694 171.172 176.136 171.172 176.136H171.171Z" fill="#F9A21B"/>
<path d="M106.192 106.103C106.568 106.446 106.916 106.81 107.256 107.182C107.428 107.366 107.59 107.558 107.757 107.747L108.242 108.324C108.561 108.711 108.87 109.11 109.169 109.515C109.468 109.92 109.756 110.334 110.019 110.769C109.643 110.427 109.294 110.062 108.955 109.69C108.616 109.318 108.286 108.937 107.968 108.548L107.498 107.958C107.345 107.758 107.189 107.561 107.043 107.357C106.744 106.952 106.455 106.538 106.193 106.103H106.192Z" fill="white"/>
<path d="M164.189 89.0536C164.564 89.3964 164.913 89.7604 165.252 90.1327C165.425 90.317 165.587 90.5085 165.753 90.6976L166.239 91.2743C166.558 91.662 166.867 92.0603 167.166 92.4656C167.465 92.871 167.753 93.2847 168.015 93.7196C167.64 93.378 167.291 93.0128 166.952 92.6406C166.613 92.2683 166.283 91.8877 165.965 91.4989L165.495 90.9091C165.342 90.7082 165.186 90.5121 165.04 90.3076C164.741 89.9022 164.452 89.4886 164.19 89.0536H164.189Z" fill="white"/>
<path d="M147.111 119.85C146.826 120.271 146.514 120.668 146.195 121.057C146.038 121.253 145.87 121.441 145.708 121.634L145.206 122.197C144.867 122.57 144.517 122.93 144.159 123.285C143.801 123.638 143.432 123.983 143.038 124.305C143.323 123.884 143.634 123.487 143.954 123.098C144.275 122.709 144.603 122.328 144.943 121.959L145.46 121.409C145.637 121.229 145.809 121.047 145.991 120.872C146.349 120.519 146.717 120.174 147.111 119.853V119.85Z" fill="white"/>
<path d="M189.783 107.808C189.44 108.184 189.076 108.533 188.704 108.872C188.519 109.045 188.328 109.206 188.139 109.373L187.562 109.859C187.174 110.178 186.776 110.486 186.371 110.785C185.965 111.084 185.552 111.373 185.117 111.635C185.458 111.259 185.823 110.911 186.196 110.572C186.568 110.232 186.949 109.903 187.337 109.585L187.927 109.114C188.128 108.962 188.324 108.806 188.529 108.659C188.934 108.36 189.348 108.072 189.783 107.81V107.808Z" fill="white"/>
<path d="M114.926 135.394C114.906 134.886 114.921 134.382 114.948 133.879C114.959 133.627 114.981 133.376 114.998 133.126L115.068 132.374C115.12 131.874 115.187 131.376 115.265 130.878C115.344 130.38 115.435 129.885 115.562 129.392C115.582 129.901 115.567 130.404 115.54 130.908C115.513 131.41 115.474 131.912 115.42 132.412L115.33 133.161C115.293 133.411 115.264 133.66 115.221 133.908C115.142 134.406 115.051 134.901 114.925 135.394H114.926Z" fill="white"/>
<path d="M128.902 169.905C129.278 170.248 129.627 170.612 129.966 170.984C130.138 171.168 130.3 171.36 130.467 171.549L130.953 172.126C131.272 172.513 131.58 172.912 131.879 173.317C132.178 173.722 132.467 174.136 132.729 174.571C132.353 174.229 132.005 173.864 131.665 173.492C131.326 173.12 130.996 172.739 130.679 172.35L130.208 171.76C130.056 171.559 129.9 171.363 129.753 171.159C129.454 170.753 129.166 170.34 128.903 169.905H128.902Z" fill="white"/>
<path d="M166.361 181.069C166.018 181.444 165.654 181.793 165.282 182.132C165.097 182.305 164.906 182.467 164.717 182.633L164.14 183.119C163.753 183.438 163.354 183.747 162.949 184.046C162.544 184.345 162.13 184.633 161.695 184.895C162.036 184.52 162.402 184.171 162.774 183.832C163.146 183.493 163.527 183.163 163.916 182.845L164.505 182.375C164.706 182.222 164.902 182.066 165.107 181.92C165.512 181.621 165.926 181.332 166.361 181.07V181.069Z" fill="white"/>
<path d="M103.386 191.797C103.043 192.173 102.679 192.522 102.307 192.861C102.123 193.034 101.931 193.196 101.742 193.362L101.166 193.848C100.778 194.167 100.38 194.475 99.9742 194.774C99.5688 195.073 99.1552 195.362 98.7203 195.624C99.0618 195.248 99.427 194.9 99.7993 194.561C100.172 194.221 100.552 193.892 100.941 193.574L101.531 193.103C101.732 192.951 101.928 192.795 102.132 192.648C102.538 192.349 102.951 192.061 103.386 191.799V191.797Z" fill="white"/>
<path d="M137.556 206.756C137.605 206.25 137.689 205.753 137.785 205.259C137.83 205.01 137.887 204.766 137.937 204.519L138.109 203.784C138.228 203.296 138.363 202.811 138.509 202.329C138.656 201.847 138.814 201.368 139.006 200.898C138.956 201.403 138.873 201.901 138.778 202.395C138.682 202.889 138.574 203.381 138.453 203.869L138.262 204.599C138.193 204.841 138.129 205.084 138.052 205.325C137.906 205.807 137.747 206.286 137.556 206.756Z" fill="white"/>
<path d="M96.268 164.227C96.7561 164.087 97.2501 163.981 97.7441 163.888C97.9911 163.838 98.2393 163.801 98.4875 163.758L99.2332 163.647C99.732 163.578 100.232 163.525 100.733 163.483C101.235 163.441 101.739 163.412 102.247 163.418C101.759 163.558 101.265 163.664 100.771 163.757C100.276 163.85 99.7793 163.932 99.2805 163.998L98.5312 164.089C98.2807 164.113 98.0313 164.143 97.7796 164.161C97.2773 164.202 96.7738 164.232 96.2656 164.227H96.268Z" fill="white"/>
<path d="M177.551 134.62C177.171 134.282 176.818 133.921 176.475 133.554C176.301 133.372 176.136 133.181 175.967 132.995L175.474 132.424C175.15 132.04 174.837 131.645 174.533 131.244C174.23 130.843 173.935 130.432 173.668 130C174.049 130.338 174.401 130.697 174.745 131.066C175.088 131.435 175.422 131.81 175.745 132.196L176.222 132.78C176.377 132.978 176.535 133.173 176.684 133.376C176.988 133.778 177.282 134.188 177.549 134.62H177.551Z" fill="white"/>
<g style="mix-blend-mode:multiply" opacity="0.4">
<path d="M141.581 202.959C141.581 202.959 170.222 195.026 171.523 180.153C171.523 180.153 165.224 195.676 141.581 202.959Z" fill="#A65B3C"/>
</g>
<g style="mix-blend-mode:multiply" opacity="0.4">
<path d="M109.975 187.628C109.975 187.628 94.9868 185.899 94.9868 175.013C94.9868 175.013 97.958 185.581 109.975 187.628Z" fill="#A65B3C"/>
</g>
<g style="mix-blend-mode:multiply" opacity="0.4">
<path d="M97.1898 103.77C97.1898 103.77 98.1908 109.094 96.0765 119.499L94.2872 118.973C94.2872 118.973 97.7464 112.462 97.1898 103.77Z" fill="#A65B3C"/>
</g>
<g style="mix-blend-mode:multiply" opacity="0.4">
<path d="M164.791 121.147C164.819 120.505 164.849 119.85 164.884 119.18C164.884 119.18 164.824 119.902 164.791 121.147Z" fill="#A65B3C"/>
</g>
<g style="mix-blend-mode:multiply" opacity="0.4">
<path d="M170.279 147.781C168.013 148.115 167.992 142.539 167.992 142.539C164.843 134.32 164.686 125.095 164.791 121.147C164.657 124.34 164.667 129.987 164.667 129.987C165.147 150.927 171.099 150.339 171.099 150.339L170.28 147.782L170.279 147.781Z" fill="#A65B3C"/>
</g>
<g style="mix-blend-mode:multiply" opacity="0.4">
<path d="M109.975 209.299C99.7119 207.453 93.2602 194.587 94.4078 186.61C94.7623 184.148 99.258 185.933 99.258 185.933C99.258 185.933 95.6168 184.126 93.8097 181.387L90.2063 209.299H109.974H109.975Z" fill="#A65B3C"/>
</g>
<g style="mix-blend-mode:multiply" opacity="0.4">
<path d="M94.2884 98.8488C94.2884 98.8488 109.681 96.9732 132.312 102.742C132.312 102.742 104.703 89.784 94.4881 93.3461L94.2884 98.8488Z" fill="#A65B3C"/>
</g>
<g style="mix-blend-mode:multiply" opacity="0.4">
<path d="M171.542 179.47C171.542 179.47 133.055 175.621 108.105 154.184C108.105 154.184 131.209 155.003 171.542 179.47Z" fill="#A65B3C"/>
</g>
<g style="mix-blend-mode:multiply" opacity="0.4">
<path d="M183.795 101.841C170.906 102.412 155.639 110.801 135.831 103.966L183.795 101.841Z" fill="#A65B3C"/>
</g>
<path d="M168.249 142.447C170.417 141.596 172.665 140.959 174.934 140.434C176.068 140.17 177.215 139.957 178.366 139.769C178.94 139.673 179.518 139.595 180.096 139.515C180.675 139.445 181.253 139.373 181.835 139.322C182.996 139.218 184.161 139.149 185.327 139.132L185.764 139.123C185.91 139.12 186.056 139.123 186.202 139.123L187.076 139.128C187.659 139.149 188.241 139.162 188.823 139.21C189.406 139.243 189.985 139.306 190.565 139.365C190.855 139.393 191.143 139.439 191.432 139.476C191.721 139.515 192.01 139.55 192.298 139.604L193.158 139.755C193.444 139.812 193.728 139.875 194.012 139.936L194.439 140.027L194.862 140.133L195.707 140.353L194.854 140.168L194.428 140.075L193.999 139.997C193.713 139.946 193.429 139.891 193.141 139.843L192.279 139.719C191.991 139.673 191.703 139.641 191.415 139.609C191.126 139.579 190.838 139.537 190.55 139.515C189.971 139.468 189.393 139.416 188.812 139.393C188.233 139.357 187.653 139.354 187.073 139.335H186.202C186.056 139.335 185.911 139.333 185.767 139.335L185.332 139.347C184.171 139.371 183.012 139.449 181.857 139.557C179.544 139.757 177.248 140.135 174.975 140.612C173.838 140.85 172.708 141.125 171.587 141.429C170.464 141.728 169.35 142.065 168.252 142.447H168.249Z" fill="#A65B3C"/>
<path d="M164.884 119.18C164.842 120.168 164.822 121.156 164.833 122.144C164.83 122.638 164.845 123.132 164.849 123.626L164.899 125.107C164.985 127.08 165.139 129.05 165.386 131.008C165.45 131.497 165.503 131.988 165.574 132.476L165.805 133.938L165.863 134.303L165.934 134.666L166.077 135.391C166.175 135.875 166.258 136.362 166.377 136.84L166.712 138.282C166.834 138.761 166.977 139.234 167.107 139.71L167.303 140.425C167.375 140.661 167.456 140.894 167.532 141.129C167.688 141.597 167.842 142.068 167.993 142.539C167.274 140.698 166.647 138.814 166.2 136.883C165.744 134.955 165.389 133.003 165.153 131.036C164.925 129.069 164.767 127.093 164.719 125.113C164.676 123.133 164.706 121.151 164.885 119.181L164.884 119.18Z" fill="#A65B3C"/>
<path d="M164.494 129.382C164.055 128.788 163.682 128.148 163.354 127.485C163.274 127.318 163.191 127.153 163.117 126.984L162.894 126.476C162.759 126.132 162.624 125.787 162.508 125.436C162.448 125.261 162.39 125.085 162.341 124.906C162.291 124.728 162.235 124.552 162.188 124.373C162.106 124.011 162.007 123.656 161.951 123.289C161.806 122.564 161.752 121.823 161.729 121.088C161.843 121.817 161.957 122.54 162.131 123.252C162.208 123.61 162.309 123.961 162.403 124.314L162.561 124.839C162.588 124.926 162.613 125.014 162.642 125.101L162.731 125.36C162.959 126.055 163.228 126.736 163.521 127.407C163.817 128.077 164.132 128.739 164.494 129.382Z" fill="#A65B3C"/>
<path d="M167.992 142.539C168.045 143.062 168.105 143.579 168.18 144.093C168.219 144.35 168.258 144.607 168.309 144.86C168.357 145.114 168.409 145.369 168.478 145.617C168.541 145.866 168.615 146.113 168.708 146.351C168.798 146.589 168.908 146.82 169.04 147.035C169.175 147.247 169.34 147.443 169.552 147.577C169.761 147.717 170.016 147.782 170.28 147.78C170.023 147.834 169.74 147.801 169.494 147.678C169.248 147.555 169.046 147.358 168.888 147.139C168.57 146.698 168.384 146.186 168.248 145.676C168.117 145.162 168.038 144.638 167.997 144.113C167.956 143.589 167.947 143.062 167.992 142.538V142.539Z" fill="#A65B3C"/>
<path d="M148.667 148.042C149.148 147.824 149.614 147.577 150.063 147.304C150.515 147.035 150.952 146.744 151.375 146.436C152.219 145.814 153.005 145.116 153.702 144.337C154.051 143.947 154.377 143.539 154.678 143.112C154.976 142.683 155.254 142.24 155.5 141.777C155.742 141.314 155.968 140.84 156.15 140.347C156.349 139.86 156.488 139.352 156.631 138.844C156.455 139.884 156.137 140.908 155.664 141.861L155.483 142.217C155.422 142.335 155.352 142.447 155.286 142.563C155.221 142.679 155.152 142.793 155.079 142.904C155.007 143.016 154.937 143.129 154.863 143.24C154.561 143.679 154.229 144.096 153.878 144.495C153.164 145.285 152.358 145.988 151.481 146.587C150.604 147.184 149.665 147.692 148.669 148.044L148.667 148.042Z" fill="#A65B3C"/>
<path d="M141.581 202.959C143.156 202.477 144.714 201.94 146.255 201.361C147.799 200.786 149.326 200.173 150.834 199.514C153.847 198.196 156.802 196.727 159.592 194.988C162.385 193.263 165.041 191.274 167.259 188.85C168.357 187.633 169.344 186.304 170.092 184.841C170.467 184.112 170.783 183.351 171.026 182.566C171.267 181.781 171.436 180.972 171.523 180.153C171.403 181.798 170.92 183.409 170.196 184.893C169.463 186.377 168.485 187.729 167.395 188.97C166.295 190.207 165.068 191.323 163.774 192.349C163.127 192.863 162.464 193.356 161.786 193.827C161.108 194.298 160.42 194.754 159.716 195.188C156.903 196.917 153.941 198.393 150.905 199.679C147.865 200.957 144.758 202.079 141.581 202.959Z" fill="#A65B3C"/>
<path d="M109.975 187.628C108.199 187.432 106.447 187.011 104.751 186.437C103.902 186.152 103.072 185.807 102.263 185.415C101.455 185.025 100.673 184.579 99.9293 184.073C99.1907 183.56 98.4946 182.982 97.8682 182.334C97.5562 182.009 97.2607 181.669 96.9866 181.311C96.7135 180.952 96.4665 180.573 96.2444 180.182C96.0198 179.791 95.8307 179.381 95.6641 178.964C95.4962 178.547 95.3627 178.115 95.2575 177.679C95.0495 176.805 94.9668 175.905 94.9869 175.013C95.0318 176.796 95.4903 178.57 96.4015 180.091C96.6296 180.471 96.8802 180.836 97.1485 181.187C97.4203 181.535 97.7134 181.869 98.0218 182.184C98.6411 182.817 99.3325 183.378 100.063 183.879C101.52 184.893 103.142 185.655 104.81 186.266C105.646 186.574 106.498 186.837 107.36 187.063C108.22 187.293 109.092 187.486 109.974 187.629L109.975 187.628Z" fill="#A65B3C"/>
<path d="M99.258 185.933C98.7037 185.704 98.1755 185.417 97.6637 185.103C97.1508 184.791 96.6603 184.443 96.19 184.069C95.7208 183.693 95.2799 183.281 94.8722 182.839C94.4668 182.395 94.1076 181.907 93.8109 181.387C94.1891 181.852 94.5803 182.297 95.0046 182.711C95.1086 182.817 95.222 182.913 95.3284 183.016L95.4903 183.169L95.6581 183.314C95.7704 183.41 95.8791 183.511 95.9938 183.606L96.3389 183.887C96.801 184.258 97.2784 184.611 97.7654 184.952C98.2535 185.291 98.751 185.619 99.2592 185.935L99.258 185.933Z" fill="#A65B3C"/>
<path d="M166.172 193.711C166.922 193.206 167.646 192.667 168.355 192.114C169.063 191.557 169.75 190.977 170.407 190.365C171.066 189.753 171.69 189.106 172.267 188.417C172.551 188.07 172.827 187.715 173.083 187.345C173.341 186.977 173.572 186.59 173.791 186.194C173.62 186.614 173.407 187.014 173.18 187.408C172.945 187.796 172.686 188.17 172.411 188.532C172.134 188.892 171.836 189.236 171.531 189.572C171.222 189.904 170.899 190.224 170.569 190.536C169.903 191.152 169.202 191.73 168.467 192.259C167.734 192.791 166.971 193.283 166.173 193.71L166.172 193.711Z" fill="#A65B3C"/>
<path d="M97.1898 103.77C97.321 104.418 97.3848 105.077 97.438 105.737C97.4675 106.066 97.4758 106.396 97.4947 106.727C97.5077 107.058 97.5101 107.388 97.5183 107.719C97.5301 109.041 97.4604 110.364 97.3505 111.681L97.2571 112.668L97.139 113.653L97.0775 114.144L97.0054 114.635L96.8553 115.614C96.7513 116.267 96.6225 116.916 96.5031 117.564C96.3625 118.21 96.2254 118.856 96.0765 119.499C96.1734 118.846 96.2868 118.196 96.3885 117.544L96.5315 116.566C96.5764 116.24 96.6355 115.915 96.6733 115.587C96.7501 114.933 96.8541 114.281 96.9168 113.625L97.0267 112.643L97.1141 111.66C97.2276 110.348 97.308 109.034 97.334 107.717L97.3399 106.729C97.334 106.401 97.3375 106.071 97.3221 105.741C97.308 105.083 97.2678 104.425 97.1886 103.769L97.1898 103.77Z" fill="#A65B3C"/>
<path d="M93.0368 95.4155C99.4802 90.2662 118.562 97.6256 133.703 103.259C137.725 104.756 142.011 105.403 146.303 105.352C155.688 105.241 165.081 102.957 183.337 101.858C191.105 101.39 193.8 109.507 193.763 110.603C193.763 110.603 193.763 98.6467 191.433 91.5757C191.067 90.466 190.115 89.6517 189.182 88.9662C189.182 88.9662 189.181 88.9654 189.18 88.9638C188.837 88.7109 188.472 88.4852 188.088 88.2914L181.949 85.1819L183.782 79.8684C184.132 78.8567 184.234 77.7777 184.083 76.7235C184.054 76.5202 184.016 76.3193 183.97 76.1207C182.842 71.3579 179.562 58.4687 174.278 45.5452C174.278 45.5452 174.898 40.884 174.28 38.2733C174.28 38.2733 179.359 27.2467 171.851 17.0994C171.851 17.0994 168.561 8.72718 159.264 4.78573C157.451 4.01753 155.409 3.41715 153.118 3.08032C128.457 -0.54676 123.16 26.9784 123.16 26.9784C123.16 26.9784 118.573 35.7938 118.899 46.9965C118.899 47.0119 118.9 47.0261 118.9 47.0426C118.917 47.6111 118.946 48.1866 118.99 48.7669C118.99 48.7775 118.992 48.787 118.992 48.7965C119.365 53.6775 120.723 58.932 123.806 64.0588L123.741 67.4271C123.741 67.4271 117.78 71.2042 111.792 77.4243C111.792 77.4243 106.923 78.1239 103.532 79.8684C102.138 80.5857 101.439 82.1812 101.837 83.6964C101.837 83.6964 94.2896 86.8353 93.038 95.4155H93.0368Z" fill="#1B1A2E"/>
<path d="M134.601 66.2535C140.204 67.3774 145.727 65.9368 149.952 62.7411C153.561 60.0122 156.224 56.0022 157.183 51.2181L161.791 28.2394C163.874 17.851 157.142 7.74152 146.754 5.65793C144.386 5.18283 142.03 5.16628 139.782 5.54684C138.338 5.79148 136.938 6.2004 135.606 6.75587C125.723 13.6389 123.156 26.9784 123.156 26.9784C123.156 26.9784 122.993 27.2904 122.731 27.8719L120.849 37.2569L119.562 43.6708C117.48 54.0592 124.211 64.1699 134.6 66.2535H134.601Z" fill="#FFC89F"/>
<path d="M129.191 31.9942C128.921 32.9656 129.491 33.9714 130.463 34.2408C131.436 34.5103 132.441 33.9407 132.71 32.968C132.98 31.9965 132.41 30.9908 131.437 30.7213C130.465 30.4518 129.46 31.0215 129.191 31.9942Z" fill="#1B1A2E"/>
<path d="M127.355 30.1469C127.672 30.0205 127.997 29.9236 128.328 29.8574C128.658 29.7853 128.992 29.7439 129.325 29.7238C129.993 29.6896 130.666 29.7546 131.304 29.9484C131.623 30.0406 131.936 30.1588 132.234 30.31L132.347 30.3632L132.457 30.4235C132.531 30.4637 132.604 30.5027 132.676 30.5452C132.815 30.6374 132.963 30.7178 133.098 30.8182C133.647 31.2023 134.152 31.6573 134.615 32.1584C134.224 31.5994 133.755 31.0889 133.208 30.6681C132.665 30.2415 132.038 29.9177 131.371 29.7203C130.705 29.5229 129.998 29.4662 129.311 29.5407C128.625 29.6139 127.951 29.8125 127.355 30.1481V30.1469Z" fill="#1B1A2E"/>
<path d="M150.318 39.1907C151.195 38.6938 151.504 37.5796 151.007 36.7021C150.51 35.8245 149.396 35.516 148.518 36.0129C147.641 36.5097 147.332 37.6239 147.829 38.5015C148.326 39.379 149.44 39.6876 150.318 39.1907Z" fill="#1B1A2E"/>
<path d="M145.822 35.2596C146.138 35.1332 146.463 35.0362 146.794 34.9701C147.124 34.898 147.458 34.8566 147.792 34.8365C148.459 34.8022 149.132 34.8672 149.77 35.0611C150.089 35.1532 150.402 35.2714 150.7 35.4227L150.814 35.4759L150.924 35.5362C150.997 35.5763 151.07 35.6153 151.142 35.6579C151.282 35.7501 151.429 35.8304 151.564 35.9309C152.114 36.315 152.618 36.77 153.082 37.2711C152.69 36.7121 152.221 36.2015 151.674 35.7808C151.132 35.3542 150.504 35.0292 149.837 34.833C149.171 34.6356 148.464 34.5789 147.777 34.6533C147.091 34.7266 146.417 34.9251 145.822 35.2608V35.2596Z" fill="#1B1A2E"/>
<path d="M136.369 39.4563C136.012 40.1619 135.668 40.8734 135.34 41.5919C135.008 42.3081 134.689 43.0302 134.371 43.7535C134.294 43.9367 134.212 44.1104 134.14 44.3043C134.069 44.4957 134.01 44.6907 133.974 44.8916C133.898 45.2911 133.885 45.7047 133.962 46.1066C134.036 46.5049 134.204 46.9008 134.497 47.1927C134.785 47.4645 135.069 47.7375 135.363 48.0034C135.108 47.7009 134.84 47.4101 134.582 47.1123C134.456 46.9705 134.361 46.8027 134.29 46.6266C134.221 46.4505 134.169 46.2661 134.145 46.0758C134.094 45.6977 134.111 45.31 134.195 44.9365C134.234 44.7498 134.288 44.5654 134.358 44.3882C134.425 44.2133 134.512 44.0289 134.589 43.8492C134.902 43.1236 135.212 42.3979 135.51 41.6664C135.81 40.936 136.097 40.1997 136.369 39.4575V39.4563Z" fill="#1B1A2E"/>
<path d="M132.562 51.8303C132.597 52.0737 132.658 52.3054 132.733 52.5323C132.815 52.7521 132.91 52.9719 133.022 53.1811C133.081 53.2827 133.145 53.3844 133.208 53.486C133.24 53.538 133.274 53.5865 133.307 53.6373C133.342 53.6858 133.38 53.7319 133.418 53.7803C133.494 53.8749 133.573 53.967 133.652 54.0604C133.736 54.1502 133.827 54.2341 133.918 54.3192C134.094 54.4941 134.307 54.6348 134.516 54.7837C134.739 54.9113 134.963 55.0449 135.212 55.1371C135.7 55.3356 136.24 55.4538 136.778 55.4538C137.317 55.4585 137.849 55.3616 138.335 55.1855C138.821 55.0094 139.264 54.7565 139.645 54.4492C140.028 54.1443 140.352 53.7839 140.616 53.3891C140.743 53.187 140.861 52.9826 140.956 52.7627C141.052 52.5441 141.132 52.3172 141.17 52.0702C140.933 52.1411 140.715 52.2096 140.504 52.2794L139.89 52.4744C139.762 52.5146 139.637 52.5535 139.512 52.589C139.252 52.667 139.001 52.7367 138.759 52.7994C138.04 52.9814 137.407 53.0747 136.805 53.0676C136.504 53.0676 136.207 53.031 135.896 52.9767C135.739 52.9566 135.583 52.9081 135.418 52.8774C135.257 52.823 135.086 52.7911 134.915 52.7273C134.832 52.6965 134.741 52.6753 134.653 52.6422C134.566 52.6091 134.478 52.5748 134.385 52.5429L134.247 52.4945C134.2 52.4755 134.156 52.4555 134.108 52.4377L134.095 52.4318L133.822 52.3255C133.721 52.2924 133.63 52.2439 133.53 52.2049C133.429 52.1647 133.329 52.1222 133.222 52.0832C133.017 51.9945 132.805 51.9083 132.564 51.8338L132.562 51.8303Z" fill="#E43F5A"/>
<path d="M134.094 52.4283C134.151 52.5488 134.21 52.6706 134.289 52.7793C134.339 52.8549 134.394 52.9294 134.449 53.0027C134.505 53.0736 134.569 53.1421 134.634 53.2095C134.758 53.3489 134.915 53.4636 135.068 53.5818C135.232 53.6858 135.4 53.7933 135.588 53.8678C135.957 54.0273 136.37 54.123 136.784 54.123C137.198 54.1266 137.604 54.0474 137.969 53.9044C138.335 53.7614 138.658 53.5558 138.929 53.3076C139.164 53.0948 139.359 52.8526 139.513 52.5843C139.253 52.6623 139.002 52.732 138.76 52.7946C138.041 52.9766 137.408 53.07 136.806 53.0629C136.505 53.0629 136.208 53.0263 135.898 52.9719C135.74 52.9518 135.584 52.9034 135.419 52.8727C135.258 52.8183 135.087 52.7864 134.917 52.7226C134.833 52.6918 134.742 52.6705 134.654 52.6375C134.567 52.6044 134.479 52.5701 134.386 52.5382L134.248 52.4897C134.202 52.4708 134.157 52.4507 134.109 52.433L134.096 52.4271L134.094 52.4283Z" fill="white"/>
<path d="M128.548 25.8379C128.941 25.8758 129.288 25.9065 129.623 25.9443C129.955 25.9774 130.271 26.0235 130.572 26.0696C131.175 26.1653 131.725 26.2788 132.262 26.4419C132.531 26.5222 132.8 26.6061 133.071 26.7101C133.209 26.755 133.341 26.8165 133.482 26.8661C133.618 26.9276 133.762 26.9761 133.903 27.0411C134.191 27.1581 134.482 27.294 134.796 27.4299C134.878 27.4606 134.952 27.5008 135.034 27.5351C135.115 27.5693 135.196 27.6072 135.282 27.6391C135.447 27.7123 135.618 27.7868 135.811 27.8483C135.697 27.0659 135.313 26.3958 134.793 25.8261C134.665 25.6807 134.516 25.5567 134.37 25.4278C134.293 25.3676 134.215 25.3085 134.134 25.2517L134.015 25.1666L133.888 25.0898C133.554 24.8795 133.184 24.7211 132.801 24.6088C132.034 24.3807 131.206 24.3713 130.453 24.5769C130.076 24.6785 129.718 24.8345 129.392 25.0414C129.228 25.1454 129.075 25.2612 128.932 25.3924C128.79 25.5236 128.655 25.6666 128.55 25.8391L128.548 25.8379Z" fill="#1B1A2E"/>
<path d="M147.014 30.9506C147.408 30.9884 147.754 31.0191 148.09 31.057C148.422 31.09 148.737 31.1361 149.039 31.1822C149.641 31.278 150.191 31.3914 150.729 31.5545C150.997 31.6349 151.266 31.7188 151.537 31.8228C151.675 31.8677 151.808 31.9292 151.948 31.9788C152.084 32.0403 152.228 32.0887 152.369 32.1537C152.657 32.2707 152.948 32.4066 153.262 32.5425C153.344 32.5733 153.418 32.6134 153.5 32.6477C153.582 32.682 153.662 32.7198 153.747 32.7517C153.912 32.825 154.083 32.8995 154.276 32.9609C154.162 32.1785 153.778 31.5084 153.258 30.9388C153.13 30.7934 152.981 30.6693 152.835 30.5405C152.758 30.4802 152.68 30.4211 152.599 30.3644L152.48 30.2793L152.354 30.2025C152.019 29.9921 151.649 29.8337 151.266 29.7215C150.5 29.4934 149.671 29.4839 148.918 29.6896C148.541 29.7912 148.183 29.9472 147.857 30.154C147.694 30.258 147.54 30.3739 147.397 30.505C147.255 30.6362 147.12 30.7792 147.015 30.9518L147.014 30.9506Z" fill="#1B1A2E"/>
<path d="M118.99 48.7882C118.92 44.2464 119.848 40.2328 120.85 37.2569C121.975 33.9147 123.195 31.8819 123.195 31.8819C125.694 21.9603 132.3 16.2094 137.271 13.1697C141.205 10.7635 146.312 11.3946 149.486 14.7392C149.58 14.8373 149.671 14.9366 149.763 15.0347C153.519 19.1239 155.689 24.3784 156.283 29.8988C159.245 57.4322 149.296 63.2161 149.296 63.2161C163.651 56.4075 169.733 39.2708 168.551 21.0727C168.076 13.7559 164.432 8.30644 159.264 4.78573C157.451 4.01753 155.409 3.41715 153.118 3.08032C145.625 1.97884 139.921 3.75161 135.608 6.75586C125.725 13.6389 123.159 26.9784 123.159 26.9784C123.159 26.9784 122.995 27.2904 122.733 27.8719C121.606 30.3798 118.633 37.901 118.897 46.9965C118.897 47.0119 118.898 47.0261 118.898 47.0426C118.94 48.0235 118.98 48.631 118.988 48.7669C118.989 48.7775 118.989 48.7846 118.99 48.7894V48.7882Z" fill="#1B1A2E"/>
<path d="M147.072 81.9307C160.335 75.5523 167.215 65.3671 170.735 57.3932C170.735 57.3932 164.949 70.1039 147.072 81.9307Z" fill="#1F4168"/>
<path d="M179.815 70.9702C178.851 74.4271 176.552 77.3569 173.427 79.1238C167.762 82.3254 157.787 87.3813 146.443 90.5251C146.443 90.5251 171.228 83.1551 179.815 70.9714V70.9702Z" fill="#1F4168"/>
<path d="M170.085 87.236C169.341 87.4002 182.937 85.4266 189.179 88.9638C188.836 88.7109 188.471 88.4852 188.087 88.2914L181.948 85.1819L183.781 79.8684C184.131 78.8567 184.233 77.7777 184.081 76.7235C184.346 78.1547 183.74 84.2104 170.085 87.2372V87.236Z" fill="#1F4168"/>
<path d="M170.048 87.2395C170.048 87.2395 170.061 87.2395 170.084 87.236C170.073 87.236 170.06 87.2395 170.048 87.2395Z" fill="#1F4168"/>
<path d="M174.297 22.5548C174.297 22.5548 177.416 35.4511 164.289 50.4168C164.289 50.4168 173.733 40.8734 174.297 22.5548Z" fill="#1F4168"/>
<path d="M145.075 72.847C136.892 77.5579 127.722 81.0727 115.692 83.1102C112.911 83.5817 110.052 83.1492 107.524 81.8964C107.524 81.8964 126.535 83.6834 145.073 72.847H145.075Z" fill="#1F4168"/>
<path d="M169.988 80.9982C168.346 81.8302 166.695 82.6445 165.025 83.4174C163.358 84.1963 161.676 84.942 159.979 85.6499C156.585 87.0682 153.137 88.3599 149.626 89.4543C147.873 90.0086 146.105 90.5168 144.324 90.9706C142.542 91.4244 140.744 91.8133 138.938 92.156C137.131 92.4952 135.313 92.7682 133.484 92.9679C131.657 93.1747 129.819 93.2977 127.979 93.3449C129.821 93.352 131.662 93.2528 133.496 93.0849C135.33 92.9088 137.156 92.6547 138.972 92.338C142.602 91.701 146.18 90.7803 149.698 89.6836C153.21 88.5679 156.666 87.2773 160.051 85.8201C161.742 85.0897 163.418 84.3251 165.076 83.5238C166.731 82.7142 168.371 81.8787 169.989 80.9994L169.988 80.9982Z" fill="#1F4168"/>
<path d="M174.277 45.5428C173.98 47.4881 173.498 49.4004 172.924 51.2795C172.355 53.161 171.667 55.0059 170.886 56.8082C170.098 58.6069 169.233 60.3738 168.253 62.0757C167.273 63.7775 166.194 65.4215 165.029 67.0004L164.141 68.1752L163.21 69.3157C162.905 69.7009 162.573 70.0626 162.247 70.4289L161.758 70.9785C161.675 71.0695 161.596 71.1629 161.511 71.2515L161.254 71.5162L160.228 72.5728C159.881 72.9203 159.517 73.25 159.162 73.5892L158.627 74.095C158.445 74.2593 158.256 74.4165 158.071 74.5784L156.959 75.544L155.805 76.4587L155.227 76.9161L154.629 77.3463L153.431 78.2055C153.025 78.4809 152.608 78.7409 152.198 79.0103C151.386 79.5658 150.523 80.0397 149.678 80.5408C149.258 80.7996 148.815 81.0112 148.381 81.2428L147.076 81.9307L148.398 81.2747C148.836 81.0514 149.284 80.8457 149.709 80.5952C150.564 80.1083 151.437 79.6497 152.26 79.1084C152.676 78.8449 153.096 78.586 153.507 78.3154L154.717 77.468L155.322 77.0426L155.907 76.5911L157.077 75.6858L158.205 74.7285C158.392 74.5678 158.582 74.4106 158.765 74.2463L159.305 73.7405C159.663 73.4013 160.03 73.0716 160.38 72.7241L161.414 71.6663L161.672 71.4016C161.758 71.313 161.838 71.2184 161.921 71.1274L162.415 70.5767C162.743 70.2091 163.079 69.8475 163.386 69.461L164.327 68.3194L165.223 67.1422C166.388 65.5503 167.466 63.8957 168.443 62.1832L169.156 60.8867L169.828 59.5702C169.943 59.3515 170.042 59.1258 170.149 58.9036L170.463 58.2347C170.569 58.0125 170.666 57.7856 170.763 57.5598L171.056 56.8815C171.82 55.0638 172.491 53.2083 173.037 51.315L173.238 50.6047L173.425 49.8897C173.489 49.6521 173.545 49.4122 173.602 49.1723C173.659 48.9324 173.718 48.6936 173.767 48.4525C173.979 47.4917 174.163 46.5226 174.279 45.5452L174.277 45.5428Z" fill="#1F4168"/>
<path d="M174.267 38.2686C173.841 39.7565 173.266 41.1972 172.659 42.6178C172.046 44.0372 171.364 45.427 170.636 46.7897C169.908 48.1535 169.128 49.489 168.293 50.7902C167.46 52.0914 166.591 53.3714 165.668 54.6123C164.752 55.8568 163.793 57.0717 162.789 58.2489C162.541 58.5455 162.286 58.835 162.029 59.1258L161.645 59.5607L161.253 59.9885C160.992 60.2745 160.729 60.5582 160.459 60.8347C160.189 61.1125 159.926 61.3961 159.649 61.6667C159.375 61.9386 159.103 62.2151 158.825 62.4846L157.986 63.2859C157.415 63.8083 156.846 64.3318 156.258 64.8353L155.821 65.2158L155.376 65.5881C155.077 65.8339 154.784 66.0857 154.479 66.3232L153.57 67.0441L152.646 67.7462C147.695 71.4619 142.256 74.4945 136.574 76.9279C130.88 79.346 124.937 81.1577 118.887 82.4767L118.892 82.5003C121.933 81.9141 124.948 81.1814 127.918 80.2938C130.887 79.4015 133.816 78.3709 136.669 77.1548C142.38 74.7368 147.809 71.6321 152.724 67.8502C155.178 65.958 157.514 63.9123 159.707 61.7235C159.986 61.454 160.251 61.1716 160.523 60.895C160.796 60.6196 161.058 60.336 161.324 60.0535L161.723 59.6304L162.114 59.2002C162.376 58.9142 162.637 58.627 162.889 58.3339C163.911 57.1686 164.893 55.9679 165.825 54.7281C167.687 52.2474 169.353 49.619 170.795 46.8724C171.157 46.1869 171.502 45.492 171.83 44.79C172.159 44.088 172.476 43.3801 172.772 42.6639C173.07 41.9488 173.347 41.2244 173.602 40.4916C173.856 39.7601 174.096 39.0226 174.289 38.2709L174.265 38.265L174.267 38.2686Z" fill="#1F4168"/>
<path d="M101.836 83.6963C102.139 84.448 102.6 85.1264 103.093 85.7681C103.589 86.4087 104.141 87.0067 104.721 87.574C105.898 88.692 107.192 89.6824 108.553 90.564C109.914 91.4492 111.351 92.2115 112.816 92.9041C114.284 93.5931 115.783 94.2171 117.311 94.7572C120.365 95.8481 123.502 96.6872 126.673 97.3478C128.259 97.6776 129.854 97.9624 131.453 98.2153L132.653 98.3902C133.054 98.447 133.454 98.5119 133.855 98.5569L136.265 98.8476L133.864 98.4942C133.463 98.441 133.065 98.3666 132.666 98.3004L131.47 98.0983C129.877 97.8229 128.289 97.518 126.711 97.167L126.119 97.0394L125.53 96.8964L124.351 96.6151C123.956 96.5265 123.567 96.4189 123.177 96.3149L122.006 96.0029C121.616 95.8953 121.231 95.7748 120.843 95.6625L120.263 95.49C120.069 95.4332 119.875 95.3753 119.685 95.3103C118.919 95.0551 118.147 94.8163 117.391 94.5315C115.866 93.9997 114.371 93.3851 112.907 92.7055C111.443 92.026 110.018 91.2637 108.65 90.408C107.284 89.55 105.986 88.5809 104.8 87.4877C104.211 86.9358 103.65 86.3543 103.142 85.7268C102.884 85.4159 102.65 85.0874 102.423 84.7529C102.204 84.4149 101.992 84.0674 101.836 83.6952V83.6963Z" fill="#1F4168"/>
<path d="M111.792 77.4361C113.695 77.1548 115.589 76.805 117.477 76.4304C118.42 76.2401 119.362 76.0415 120.303 75.8359C120.775 75.7366 121.243 75.6267 121.711 75.5168C122.18 75.4093 122.648 75.297 123.116 75.1835C124.986 74.7238 126.844 74.2191 128.699 73.7133C130.553 73.1992 132.408 72.6851 134.254 72.1391C136.099 71.5895 137.933 71.001 139.748 70.3592C141.561 69.7092 143.36 69.0166 145.127 68.2461C146.894 67.4767 148.624 66.621 150.301 65.6697C151.973 64.7136 153.593 63.6511 155.055 62.396L155.04 62.377L153.885 63.241L152.689 64.0434C152.286 64.3046 151.87 64.5445 151.461 64.7963C151.359 64.8577 151.257 64.9216 151.153 64.9818L150.837 65.1556L150.209 65.5054C149.998 65.62 149.793 65.7441 149.577 65.8505L148.937 66.179L148.296 66.5076C148.082 66.6175 147.864 66.7144 147.648 66.8184L146.996 67.1269C146.78 67.2309 146.565 67.3373 146.344 67.4318L145.029 68.0192C143.262 68.7732 141.476 69.4823 139.672 70.1465C137.865 70.8001 136.045 71.4205 134.216 72.0126C132.383 72.5953 130.538 73.1413 128.679 73.6318L127.283 73.9946L125.881 74.335C124.947 74.5583 124.009 74.777 123.072 74.9885C119.325 75.8536 115.568 76.6738 111.79 77.4101L111.794 77.4338L111.792 77.4361Z" fill="#1F4168"/>
<path d="M123.826 67.6729C123.95 68.0133 124.174 68.3111 124.423 68.5746C124.674 68.8382 124.963 69.0651 125.272 69.2601C125.424 69.3617 125.588 69.4409 125.749 69.5284C125.916 69.6017 126.079 69.6867 126.25 69.747L126.505 69.8451L126.767 69.9267C126.939 69.9858 127.118 70.0259 127.294 70.0708C128.003 70.2422 128.73 70.3202 129.457 70.3533C130.183 70.3876 130.91 70.3533 131.634 70.2954C133.079 70.1642 134.508 69.8983 135.909 69.5449C137.313 69.1939 138.691 68.7519 140.047 68.2555C138.662 68.6633 137.271 69.0438 135.867 69.3629C134.463 69.6785 133.043 69.9314 131.613 70.0567C130.898 70.1169 130.181 70.1536 129.465 70.1264C128.75 70.1075 128.035 70.0354 127.335 69.8888C127.161 69.8498 126.985 69.8144 126.815 69.7612L126.557 69.6879L126.305 69.6005C126.133 69.5473 125.972 69.4693 125.807 69.4043C125.647 69.3251 125.484 69.2518 125.332 69.1596C125.021 68.9847 124.727 68.7767 124.468 68.5297C124.212 68.2815 123.975 68.0026 123.827 67.6729H123.826Z" fill="#1F4168"/>
<path d="M123.804 64.0588C124.229 64.697 124.743 65.2773 125.302 65.8068C125.863 66.3362 126.475 66.8125 127.128 67.225C127.784 67.6327 128.482 67.979 129.213 68.2284C129.941 68.486 130.707 68.6325 131.47 68.6822C131.095 68.603 130.72 68.5345 130.356 68.4198C130.172 68.3725 129.992 68.3075 129.811 68.252C129.634 68.1846 129.452 68.1291 129.277 68.0534C128.573 67.7733 127.895 67.4259 127.255 67.0229C126.931 66.8255 126.621 66.6069 126.316 66.3811C126.01 66.1566 125.716 65.9167 125.426 65.6697C125.139 65.4215 124.858 65.1638 124.587 64.8956C124.313 64.6308 124.053 64.3507 123.803 64.06L123.804 64.0588Z" fill="#1F4168"/>
<path d="M174.297 22.5548C174.468 23.4341 174.536 24.3299 174.566 25.2234C174.592 26.1168 174.576 27.0127 174.503 27.9038L174.48 28.2383L174.446 28.5715L174.378 29.2381L174.287 29.9023C174.258 30.1233 174.228 30.3455 174.187 30.5641C174.108 31.0038 174.039 31.4458 173.939 31.8807L173.798 32.5354C173.75 32.7529 173.689 32.968 173.635 33.1855C172.75 36.6459 171.345 39.9704 169.51 43.0361C167.72 46.1314 165.5 48.9607 163.087 51.5974C162.936 51.7617 162.79 51.9319 162.636 52.0926L162.166 52.5724L161.229 53.5321C161.076 53.6952 160.911 53.8477 160.749 54.0013L160.263 54.4622L159.289 55.3852L157.278 57.1651L155.205 58.874L157.32 57.2136L159.368 55.4715L160.356 54.5591L160.85 54.1029C161.015 53.9505 161.181 53.8004 161.337 53.6397L162.288 52.6894L162.764 52.2144C162.922 52.0548 163.071 51.887 163.224 51.7227L164.138 50.7347L164.366 50.4865L164.583 50.23L165.018 49.7159L165.453 49.2018C165.596 49.0293 165.747 48.8626 165.882 48.683L166.708 47.6205C166.844 47.4421 166.988 47.2695 167.117 47.0851L167.508 46.5368L167.9 45.9884C168.027 45.804 168.166 45.6267 168.285 45.4365L169.02 44.3078L169.204 44.0253C169.263 43.9308 169.319 43.8327 169.377 43.737L169.721 43.1579L170.062 42.5776C170.179 42.3861 170.276 42.1828 170.385 41.9867C170.594 41.5896 170.812 41.196 171.013 40.7942L171.595 39.5792C171.785 39.1727 171.953 38.7555 172.133 38.3442C172.82 36.6849 173.399 34.9783 173.817 33.2304C173.869 33.0117 173.926 32.7943 173.973 32.5756L174.107 31.915C174.202 31.4765 174.267 31.031 174.341 30.5889C174.38 30.3679 174.407 30.1446 174.434 29.9224L174.518 29.2546L174.578 28.5845L174.608 28.2489L174.625 27.9132C174.681 27.0174 174.68 26.118 174.636 25.2234C174.589 24.3287 174.5 23.4329 174.304 22.5583L174.297 22.5548Z" fill="#1F4168"/>
<path d="M142.09 7.7947C144.166 7.26406 146.363 7.35624 148.412 7.90816C150.466 8.46126 152.367 9.53202 153.94 10.9597C155.516 12.3874 156.771 14.1648 157.668 16.1019C158.577 18.0378 159.139 20.1225 159.484 22.2286C159.828 24.337 159.96 26.4749 159.965 28.6105V29.0112L159.959 29.4118L159.943 30.2131L159.91 31.0132L159.894 31.4139L159.868 31.8133L159.818 32.6123L159.756 33.4112C159.718 33.9442 159.659 34.4749 159.605 35.0067C159.15 39.2578 158.333 43.464 157.354 47.6312L157.378 47.6371C157.941 45.5712 158.441 43.4876 158.861 41.3863C158.967 40.8616 159.059 40.3333 159.159 39.8073C159.253 39.2802 159.338 38.7508 159.428 38.2225C159.51 37.693 159.587 37.1624 159.66 36.6317C159.724 36.0999 159.798 35.5681 159.851 35.0351C160.083 32.9042 160.216 30.758 160.192 28.6129C160.173 26.4679 160.006 24.3204 159.615 22.2097C159.23 20.1013 158.636 18.0236 157.746 16.0712C157.521 15.5842 157.282 15.1044 157.017 14.6376L156.82 14.2866L156.609 13.9427C156.472 13.711 156.32 13.49 156.17 13.2678C156.021 13.0433 155.855 12.8317 155.698 12.6143L155.447 12.2987C155.364 12.1935 155.279 12.0883 155.189 11.9879L154.924 11.683C154.834 11.5825 154.74 11.4868 154.648 11.3887C154.466 11.1901 154.268 11.007 154.074 10.819C153.279 10.0922 152.408 9.44338 151.459 8.92809C150.513 8.40926 149.502 8.01098 148.461 7.73561C147.417 7.46497 146.34 7.33024 145.265 7.32551C144.727 7.32433 144.189 7.36215 143.658 7.43542C143.126 7.5087 142.599 7.61979 142.086 7.77697L142.093 7.79943L142.09 7.7947Z" fill="#1F4168"/>
<path d="M162.424 37.8136C162.208 38.6444 161.987 39.4729 161.747 40.2954C161.632 40.7079 161.514 41.1204 161.392 41.5316C161.274 41.9441 161.148 42.353 161.021 42.7619C160.514 44.3988 159.994 46.0321 159.399 47.6382C158.815 49.2479 158.185 50.8422 157.476 52.3999C157.393 52.5973 157.298 52.7887 157.205 52.9814L156.925 53.5593L156.645 54.1372L156.339 54.701L156.036 55.2682L155.885 55.5519C155.833 55.6452 155.774 55.7351 155.72 55.8273C155.495 56.1924 155.274 56.5588 155.053 56.9275C155.294 56.573 155.535 56.2173 155.773 55.8603C155.832 55.7705 155.894 55.6831 155.95 55.5909L156.113 55.3131L156.439 54.7577L156.762 54.1998L157.057 53.6267L157.353 53.0535C157.451 52.862 157.553 52.6729 157.64 52.4767C157.822 52.0879 158.004 51.6979 158.181 51.3067C158.359 50.9155 158.516 50.5149 158.684 50.1201L158.932 49.5257L159.163 48.9241C159.316 48.5223 159.479 48.124 159.621 47.7198L160.046 46.5037C160.185 46.0971 160.315 45.687 160.448 45.2793C160.585 44.8715 160.707 44.4603 160.833 44.0502L161.021 43.4344L161.195 42.8139C161.312 42.4003 161.428 41.9878 161.535 41.5718C161.646 41.157 161.756 40.7422 161.858 40.325C162.06 39.4906 162.259 38.655 162.422 37.8124L162.424 37.8136Z" fill="#1F4168"/>
<path d="M135.989 10.4338C134.514 11.3556 133.177 12.4878 131.925 13.6957C130.676 14.9094 129.536 16.2343 128.499 17.6359C127.475 19.0459 126.562 20.5374 125.782 22.095C125.406 22.881 125.04 23.6704 124.729 24.4835C124.412 25.2943 124.141 26.1204 123.897 26.9548L124.119 26.3426C124.193 26.1381 124.262 25.9325 124.345 25.7316C124.506 25.3286 124.658 24.9232 124.838 24.5273C125.169 23.726 125.553 22.9483 125.945 22.1778C126.359 21.4166 126.769 20.6544 127.234 19.924C127.693 19.1912 128.173 18.4703 128.691 17.7766C129.2 17.0781 129.732 16.3938 130.296 15.7367C130.857 15.0784 131.449 14.4461 132.053 13.8257C132.659 13.2076 133.292 12.6143 133.946 12.0458C134.6 11.4762 135.275 10.9301 135.987 10.4338H135.989Z" fill="#1F4168"/>
<path d="M115.206 76.0096C114.854 74.2357 114.954 72.2856 115.062 71.1783C115.118 70.5909 114.656 70.0839 114.067 70.0815C113.697 70.0791 113.431 70.1288 113.431 70.1288C113.386 69.1443 113.47 67.9802 113.549 67.1635C113.612 66.5218 113.318 65.8966 112.784 65.5361L109.118 63.0578C108.628 62.7257 108.003 62.6654 107.454 62.8912C105.174 63.8331 102.782 65.2714 101.617 66.0053C101.2 66.2677 100.654 66.1791 100.342 65.7973L100.01 65.3908C99.8241 65.1662 99.7509 64.8696 99.8064 64.5836L101.259 57.2254L103.192 50.4085C104.833 46.8949 104.413 45.0252 103.642 44.0407C103.023 43.2536 101.774 43.4793 101.455 44.4272L99.927 48.9714L97.8895 53.2556L95.748 58.061L94.9112 51.5053C95.3733 48.8213 95.1086 47.24 94.5909 46.3122C93.8996 45.0748 92.0251 45.4708 91.894 46.8819L91.4898 51.2181L91.3598 57.5126L90.6802 65.7666L87.2328 57.6438C87.1382 54.532 86.4173 53.0204 85.629 52.3065C84.797 51.5549 83.4709 52.2368 83.5714 53.3548L83.9118 57.1651L85.4777 62.2033L86.1206 65.5645C86.4669 67.3774 86.5189 69.2341 86.2778 71.0648C85.5049 76.948 85.1161 82.134 84.9459 84.8392C84.862 86.1901 84.6008 87.5232 84.1694 88.8067L83.3067 91.3724C82.9001 92.5826 82.6448 93.8366 82.5456 95.1094L82.4144 96.816C82.3884 97.1469 82.3529 97.4779 82.3056 97.8052C79.6229 116.367 73.7337 122.133 73.8992 149.434C72.7433 156.654 77.9659 158.147 77.9659 158.147C91.4437 163.822 97.4274 151.157 97.4274 151.157L95.3639 136.29C94.2836 127.864 96.0777 119.499 96.0777 119.499L94.2884 118.973L95.6853 97.466C95.794 95.7902 96.3377 94.1722 97.2643 92.7706L97.4817 92.4408C98.4757 90.9363 99.8797 89.7592 101.509 88.9875C103.887 87.8612 105.757 85.9466 108.631 84.8238C109.277 84.5721 109.821 84.1171 110.169 83.5191C111.444 81.3185 113.524 79.0233 114.662 77.8391C115.13 77.3534 115.337 76.6715 115.206 76.0096ZM110.104 75.2899C108.337 77.247 106.077 78.8709 106.077 78.8709C105.303 77.9644 104.106 76.948 103.081 76.1444C101.943 75.2521 101.717 73.6176 102.566 72.4476C103.368 71.3414 104.056 70.5483 104.056 70.5483C106.348 69.7364 108.242 67.9861 108.242 67.9861L109.658 68.2414C109.388 71.1688 111.44 72.2986 111.44 72.2986C110.311 73.7464 110.104 75.2899 110.104 75.2899Z" fill="#FFC89F"/>
<path d="M97.4274 151.157C97.4274 151.157 91.4437 163.822 77.9659 158.147C77.9659 158.147 72.7433 156.654 73.8992 149.434C73.7337 122.134 79.6229 116.367 82.3056 97.8052C82.3529 97.4778 82.3884 97.1469 82.4144 96.816L95.6853 97.466L94.2884 118.973L96.0777 119.499C96.0777 119.499 94.2836 127.864 95.3639 136.29L96.6272 145.393L97.4274 151.157Z" fill="#1F4168"/>
<g style="mix-blend-mode:multiply" opacity="0.4">
<path d="M97.4274 151.157C97.4274 151.157 91.4437 163.822 77.9659 158.147C77.9659 158.147 72.7433 156.654 73.8992 149.434C73.053 159.794 84.1789 156.288 85.8275 154.184C92.1126 153.955 95.1559 149.53 96.6272 145.393L97.4274 151.157Z" fill="#1F4168"/>
</g>
<path d="M107.416 139.976C107.388 140.627 106.85 141.14 106.201 141.14H106.177L99.1375 141.009L94.7233 140.926C93.8191 140.908 92.9304 140.693 92.1196 140.294L82.3753 135.501L75.7145 132.225C75.0562 131.901 74.639 131.231 74.639 130.499C74.639 129.766 75.224 129.21 75.9248 129.21C75.9709 129.21 76.017 129.213 76.0643 129.217L89.1 130.617C89.6011 130.671 90.0892 130.812 90.5431 131.032L106.797 138.936C107.193 139.127 107.436 139.536 107.416 139.976Z" fill="#1F4168"/>
<g style="mix-blend-mode:multiply" opacity="0.4">
<path d="M99.1375 141.009L94.7233 140.926C93.8192 140.908 92.9304 140.693 92.1197 140.294L82.3754 135.501C82.3754 135.501 92.089 136.537 99.1375 141.009Z" fill="#1F4168"/>
</g>
<path d="M90.1353 131.946L92.1799 132.908L94.2186 133.881L98.2889 135.844L102.346 137.833L104.371 138.835L106.39 139.849L104.346 138.887L102.307 137.915L98.2369 135.95L94.1796 133.963L92.1551 132.959L90.1353 131.946Z" fill="#1B1A2E"/>
<path d="M75.6577 130.131C76.8715 130.237 78.0841 130.356 79.2966 130.476L82.932 130.853L86.5638 131.257L88.3791 131.469C88.6805 131.504 88.9866 131.539 89.282 131.62C89.5775 131.697 89.8647 131.808 90.1353 131.946C89.8588 131.82 89.5692 131.719 89.2738 131.651C88.9783 131.578 88.6758 131.554 88.372 131.527L86.5532 131.348L82.9178 130.971L79.286 130.567C78.0758 130.428 76.8656 130.286 75.6566 130.132L75.6577 130.131Z" fill="#1B1A2E"/>
<path d="M78.3441 132.355L81.2668 132.594C81.6757 132.627 82.0728 132.745 82.4344 132.94L84.9955 134.327C85.2272 134.452 85.1196 134.804 84.8572 134.779L82.0314 134.503C81.6698 134.467 81.3188 134.366 80.9938 134.204L78.2176 132.811C77.9801 132.692 78.0805 132.334 78.3453 132.355H78.3441Z" fill="#1B1A2E"/>
<path d="M74.6384 130.499C74.6384 130.263 74.6999 130.025 74.8228 129.821C74.9457 129.618 75.123 129.447 75.3369 129.338C75.5473 129.225 75.7919 129.178 76.0306 129.194C76.267 129.213 76.501 129.239 76.7362 129.26L79.5549 129.546L85.1911 130.137L88.0075 130.444L88.7118 130.521C88.9458 130.548 89.1822 130.566 89.4186 130.61C89.6538 130.652 89.8854 130.714 90.11 130.795C90.3345 130.874 90.5508 130.981 90.7612 131.086L93.3021 132.34L95.8372 133.605L93.2761 132.392L90.721 131.168C90.3002 130.954 89.8618 130.791 89.3997 130.71C89.1704 130.669 88.9352 130.652 88.7 130.625L87.9956 130.551L85.1781 130.253L79.5454 129.634L76.7303 129.314C76.4963 129.287 76.2611 129.258 76.0271 129.234C75.7966 129.214 75.5579 129.254 75.3499 129.362C75.1395 129.463 74.9611 129.629 74.8358 129.826C74.7093 130.025 74.6443 130.26 74.6396 130.495L74.6384 130.499Z" fill="#1B1A2E"/>
<path d="M94.7233 140.926C93.7589 140.919 92.7969 140.677 91.9365 140.237L89.3352 138.976L84.141 136.436L78.9586 133.873L76.3716 132.582L75.7263 132.257C75.5088 132.15 75.3091 132.002 75.146 131.822C74.8151 131.465 74.6343 130.981 74.6378 130.5C74.6437 130.982 74.834 131.458 75.1673 131.803C75.4946 132.163 75.9721 132.31 76.3976 132.531L78.9988 133.792L84.193 136.332L89.3754 138.897L91.9625 140.187C92.8099 140.641 93.7601 140.901 94.7244 140.928L94.7233 140.926Z" fill="#1B1A2E"/>
<path d="M196.309 143.453C196.309 143.453 196.127 159.707 194.732 167.652C194.732 167.652 197.825 184.938 182.602 181.905C182.602 181.905 156.43 178.064 135.116 163.135C131.233 160.415 126.724 158.72 122.016 158.161C117.612 157.639 112.041 156.816 107.435 155.618C106.822 155.458 106.23 155.228 105.671 154.929C104.371 154.231 101.566 152.795 98.517 151.662C97.9131 151.437 97.3411 151.137 96.8093 150.772C95.8295 150.098 94.0508 148.951 92.1339 148.075C91.4898 147.781 90.9828 147.251 90.711 146.598L88.6829 141.725L87.2741 141.355C86.9988 141.283 86.7423 141.151 86.5237 140.969C85.9339 140.479 84.5831 139.404 82.8682 138.337C82.1071 137.863 82.2584 136.706 83.1188 136.452C84.3184 136.097 86.3535 136.19 89.6768 138.02C89.6768 138.02 98.4107 140.098 102.084 142.507L108.348 143.892L112.263 143.772C112.263 143.772 111.582 143.517 108.323 142.995C103.874 142.285 101.508 140.248 102.837 137.837C104.469 134.874 109.955 137.801 112.263 138.291C117.644 139.431 124.735 137.993 129.311 145.552C129.311 145.552 141.943 157.755 171.523 156.985C171.523 156.985 171.164 150.462 169.982 146.714C169.982 146.714 182.218 141.574 196.308 143.45L196.309 143.453Z" fill="#FFC89F"/>
<path d="M194.732 167.653C194.732 167.653 197.825 184.939 182.602 181.907C182.602 181.907 156.43 178.066 135.116 163.135L139.234 151.521C146.087 154.49 156.669 157.375 171.523 156.987C171.523 156.987 171.164 150.466 169.983 146.717C169.983 146.717 176.593 143.94 185.693 143.213H185.695C188.973 142.951 192.577 142.955 196.309 143.453C196.309 143.453 196.127 159.708 194.732 167.653Z" fill="#1F4168"/>
<g style="mix-blend-mode:multiply" opacity="0.4">
<path d="M183.877 163.822C183.877 163.822 178.797 157.062 171.523 156.987C171.523 156.987 185.12 156.457 183.877 163.822Z" fill="#1F4168"/>
</g>
<g style="mix-blend-mode:multiply" opacity="0.4">
<path d="M194.732 167.653C194.732 167.653 197.825 184.939 182.602 181.907C194.412 183.956 194.863 170.706 192.502 166.392C192.502 166.392 194.691 162.145 194.111 152.812C193.536 143.551 185.816 143.218 185.695 143.213C188.973 142.951 192.577 142.955 196.309 143.453C196.309 143.453 196.127 159.708 194.732 167.653Z" fill="#1F4168"/>
</g>
<path d="M88.6864 141.715C89.3034 141.939 89.9014 142.213 90.4828 142.516C91.0643 142.819 91.6328 143.154 92.167 143.537C92.3017 143.631 92.4317 143.733 92.5605 143.835C92.6917 143.934 92.817 144.04 92.9423 144.147C93.0699 144.253 93.1881 144.359 93.3193 144.454C93.4505 144.547 93.5887 144.632 93.7317 144.707C94.0177 144.857 94.3345 144.943 94.6441 145.049L95.5766 145.356C96.8223 145.76 98.0478 146.228 99.2486 146.755C100.442 147.296 101.615 147.9 102.69 148.652L102.677 148.672C101.526 148.049 100.342 147.505 99.147 146.985C98.5489 146.727 97.9509 146.467 97.347 146.216L95.5329 145.477C95.2291 145.358 94.9254 145.236 94.6181 145.126C94.3144 145.01 93.9953 144.924 93.6975 144.776C93.3996 144.637 93.1195 144.448 92.8595 144.251C92.7283 144.154 92.5972 144.058 92.4613 143.968L92.2603 143.831L92.0547 143.699C90.9698 142.982 89.8352 142.342 88.6746 141.738L88.6841 141.717L88.6864 141.715Z" fill="#FF9A6C"/>
<path d="M107.011 151.384C106.647 151.426 106.268 151.371 105.917 151.239C105.564 151.108 105.242 150.895 104.975 150.628C104.725 150.36 104.476 150.111 104.21 149.867C103.944 149.624 103.668 149.393 103.386 149.159C103.721 149.31 104.034 149.504 104.328 149.724C104.477 149.832 104.615 149.953 104.754 150.075C104.89 150.196 105.021 150.336 105.144 150.46C105.387 150.709 105.675 150.913 105.99 151.069C106.305 151.223 106.649 151.326 107.011 151.383V151.384Z" fill="#FF9A6C"/>
<path d="M112.263 143.774C112.651 143.798 113.032 143.9 113.396 144.041C113.486 144.079 113.578 144.115 113.666 144.156L113.929 144.287C114.1 144.385 114.269 144.486 114.427 144.6L114.546 144.687L114.66 144.78C114.734 144.844 114.813 144.903 114.884 144.97C115.021 145.111 115.167 145.242 115.285 145.401C115.54 145.697 115.735 146.041 115.893 146.393C115.65 146.09 115.421 145.788 115.148 145.523C114.884 145.253 114.596 145.008 114.29 144.792C113.986 144.57 113.661 144.378 113.322 144.208C112.983 144.039 112.632 143.892 112.263 143.773V143.774Z" fill="#FF9A6C"/>
<path d="M95.7479 58.0609C95.8389 58.5597 95.8933 59.0631 95.9311 59.5678C95.9701 60.0724 95.9819 60.5795 95.9784 61.0865C95.9749 61.3394 95.9642 61.5935 95.95 61.8464C95.9418 61.9728 95.9288 62.0993 95.9181 62.2258L95.9004 62.4149L95.8744 62.604C95.8047 63.1051 95.7078 63.6144 95.4903 64.0765C95.6144 63.5849 95.6546 63.085 95.69 62.585C95.7208 62.0851 95.7397 61.584 95.742 61.0817C95.7574 60.0772 95.7373 59.0714 95.7479 58.0586V58.0609Z" fill="#FF9A6C"/>
<path d="M97.7807 64.3803C97.4202 64.3791 97.061 64.3862 96.7029 64.411C96.3448 64.4323 95.9878 64.4642 95.6333 64.5055C94.923 64.5906 94.2186 64.7159 93.532 64.9015C93.1869 64.9889 92.8489 65.1 92.5144 65.2217C92.1788 65.3387 91.8538 65.4865 91.5335 65.6413C90.8953 65.9568 90.2937 66.348 89.7465 66.8184C89.8706 66.6884 89.9888 66.5501 90.1259 66.4331C90.1933 66.3729 90.2583 66.309 90.3268 66.2511L90.5372 66.0786C90.8255 65.8588 91.1257 65.6507 91.446 65.4794C92.0818 65.1236 92.7685 64.8648 93.4693 64.6745C93.8215 64.5835 94.1761 64.5055 94.5342 64.4464C94.8923 64.3909 95.2527 64.346 95.6144 64.3235C96.3365 64.2727 97.0633 64.2834 97.7783 64.3803H97.7807Z" fill="#FF9A6C"/>
<path d="M98.972 75.9742C98.5383 76.5084 98.1825 77.0957 97.8622 77.6961C97.7842 77.8474 97.7039 77.9975 97.633 78.1523C97.5632 78.3071 97.4829 78.4572 97.4226 78.6168C97.3588 78.7751 97.2891 78.93 97.2276 79.0883L97.0562 79.5682C96.9948 79.7265 96.9534 79.892 96.9014 80.0539L96.8269 80.2985C96.8009 80.3801 96.7868 80.464 96.7643 80.5456L96.6402 81.0407L96.5421 81.543C96.509 81.7109 96.4748 81.8775 96.4558 82.0477L96.3849 82.5559C96.3365 82.8951 96.3258 83.2378 96.2833 83.5805C96.2762 83.4092 96.2715 83.2366 96.2691 83.0641L96.2644 82.8052L96.262 82.6752L96.2679 82.5464C96.2928 82.2025 96.2998 81.855 96.3589 81.5135C96.4381 80.8245 96.6201 80.1508 96.8329 79.4913C97.0562 78.8342 97.3505 78.202 97.7027 77.6051C98.0549 77.0095 98.4709 76.4457 98.972 75.973V75.9742Z" fill="#FF9A6C"/>
<path d="M100.851 69.7494C100.802 70.2895 100.819 70.826 100.88 71.3567C100.91 71.6214 100.953 71.885 101.007 72.145L101.097 72.5338C101.132 72.6615 101.173 72.7891 101.21 72.9167C101.244 73.0456 101.293 73.1696 101.338 73.2949C101.385 73.419 101.424 73.5467 101.482 73.6672L101.642 74.0336C101.697 74.1541 101.765 74.2699 101.824 74.3893C101.94 74.6316 102.09 74.8526 102.226 75.0842C102.289 75.2036 102.376 75.3064 102.45 75.4187C102.527 75.5286 102.604 75.6409 102.678 75.7543C102.584 75.6574 102.49 75.5593 102.398 75.4589C102.307 75.3572 102.209 75.2615 102.13 75.1516C101.969 74.933 101.794 74.7202 101.662 74.4803C101.365 74.0194 101.154 73.5077 100.982 72.9876C100.816 72.4641 100.722 71.9193 100.695 71.3721C100.668 70.826 100.703 70.2741 100.85 69.7494H100.851Z" fill="#FF9A6C"/>
<path d="M106.077 78.8709C106.361 79.2136 106.588 79.6001 106.782 80.0019C106.975 80.4037 107.124 80.828 107.233 81.2629C107.342 81.6979 107.388 82.1493 107.382 82.5984L107.363 82.9341C107.352 83.0452 107.329 83.1563 107.312 83.2662L107.283 83.4304C107.27 83.4848 107.253 83.538 107.237 83.5912C107.205 83.6975 107.17 83.8039 107.135 83.9091C107.146 83.798 107.157 83.6881 107.172 83.5793C107.178 83.525 107.187 83.4706 107.192 83.4163L107.196 83.252C107.2 83.1433 107.211 83.0345 107.208 82.9258L107.198 82.6008C107.198 82.4921 107.178 82.3845 107.17 82.277C107.16 82.1694 107.152 82.0619 107.129 81.9555L107.076 81.6352L107.003 81.3185C106.901 80.8966 106.767 80.4829 106.611 80.0752C106.453 79.6686 106.276 79.2668 106.075 78.8721L106.077 78.8709Z" fill="#FF9A6C"/>
<path d="M110.14 75.3312C110.19 75.5853 110.252 75.83 110.326 76.0675C110.404 76.3039 110.496 76.5332 110.611 76.7495C110.72 76.9693 110.857 77.1737 111.013 77.3652C111.164 77.5637 111.349 77.7292 111.535 77.9124C111.297 77.8131 111.065 77.6772 110.878 77.4905C110.775 77.4054 110.698 77.2967 110.611 77.1962C110.538 77.0863 110.461 76.9764 110.402 76.8582C110.281 76.6218 110.192 76.3701 110.148 76.1113C110.103 75.8536 110.091 75.5877 110.14 75.3312Z" fill="#FF9A6C"/>
<path d="M113.431 70.1288C113.211 70.254 113.03 70.4195 112.854 70.5873C112.681 70.7587 112.515 70.9372 112.362 71.1286C112.203 71.3142 112.056 71.5115 111.903 71.7054C111.83 71.8058 111.752 71.9027 111.677 72.002C111.601 72.1013 111.526 72.2017 111.44 72.2975C111.479 72.1769 111.528 72.0599 111.576 71.9417C111.63 71.8271 111.687 71.7148 111.748 71.6025C111.81 71.4926 111.879 71.3863 111.949 71.2799C112.024 71.1771 112.096 71.0731 112.18 70.9762C112.343 70.7812 112.527 70.598 112.735 70.4467C112.94 70.2966 113.173 70.1619 113.43 70.1276L113.431 70.1288Z" fill="#FF9A6C"/>
<path d="M106.351 65.5846C106.439 65.8446 106.536 66.094 106.646 66.335C106.758 66.575 106.883 66.8042 107.033 67.0158L107.149 67.1718C107.189 67.2226 107.235 67.2663 107.278 67.316C107.318 67.368 107.367 67.4093 107.414 67.4531C107.462 67.4944 107.506 67.5453 107.559 67.5807C107.611 67.6197 107.663 67.6575 107.715 67.6989C107.77 67.7344 107.828 67.7663 107.883 67.8005L107.968 67.8537L108.059 67.8951C108.12 67.9234 108.181 67.953 108.242 67.9861C108.175 67.979 108.107 67.9695 108.038 67.9577L107.935 67.94L107.836 67.9081C107.771 67.8844 107.704 67.862 107.638 67.8348C107.576 67.8029 107.516 67.7674 107.453 67.7332C107.213 67.5843 107.003 67.3845 106.841 67.1529C106.681 66.9201 106.556 66.666 106.474 66.4012C106.393 66.1365 106.342 65.8611 106.351 65.5858V65.5846Z" fill="#FF9A6C"/>
<path d="M93.0368 90.453C92.4554 90.4931 91.8715 90.4754 91.2901 90.4305C90.7086 90.3856 90.1295 90.3029 89.5563 90.193C88.9831 90.083 88.417 89.9306 87.8627 89.745C87.3084 89.5607 86.7719 89.3196 86.2637 89.0371C86.8132 89.2309 87.3581 89.4188 87.9171 89.5689C88.0553 89.6115 88.1972 89.6398 88.3354 89.6789C88.4749 89.7143 88.6144 89.7533 88.755 89.7817L89.1769 89.8786L89.6012 89.9625C90.7334 90.1859 91.8786 90.3383 93.0368 90.4541V90.453Z" fill="#FF9A6C"/>
<path d="M94.2884 118.973C94.3357 120.037 94.3746 121.102 94.4006 122.165C94.4302 123.229 94.4491 124.293 94.468 125.356C94.4834 126.42 94.4976 127.484 94.5023 128.549C94.5094 129.612 94.5058 130.677 94.4881 131.742C94.4136 130.679 94.3557 129.616 94.3179 128.552C94.2754 127.488 94.2517 126.424 94.2316 125.36C94.2163 124.295 94.208 123.231 94.2163 122.167C94.221 121.102 94.2435 120.037 94.2884 118.973Z" fill="#1B1A2E"/>
<path d="M171.523 156.987C171.826 156.955 172.132 156.957 172.436 156.971C172.74 156.985 173.044 157.013 173.347 157.055C173.952 157.139 174.55 157.276 175.135 157.451C175.721 157.624 176.293 157.844 176.853 158.091C177.412 158.341 177.951 158.631 178.478 158.94C179.005 159.249 179.508 159.6 180.001 159.961C180.24 160.15 180.486 160.331 180.718 160.53L181.069 160.825L181.408 161.132C182.311 161.952 183.135 162.858 183.877 163.82C183.064 162.917 182.201 162.061 181.285 161.27C180.369 160.481 179.395 159.759 178.358 159.143C177.324 158.521 176.226 158.006 175.079 157.626C174.506 157.438 173.922 157.278 173.328 157.168C172.735 157.052 172.131 156.98 171.523 156.986V156.987Z" fill="#1B1A2E"/>
<path d="M94.4881 83.9091C94.5578 82.8289 94.3604 81.7629 94.0366 80.7441C93.9468 80.4912 93.8641 80.2371 93.7707 79.9854C93.6738 79.7348 93.5828 79.4831 93.4788 79.2349L92.8701 77.7375C92.6692 77.2364 92.4707 76.7341 92.2839 76.2271C92.0972 75.7201 91.9258 75.2072 91.7627 74.6919C91.4436 73.6578 91.1978 72.6036 91.0087 71.5411C91.2876 72.5835 91.5914 73.6164 91.9377 74.634C92.291 75.6492 92.6822 76.6514 93.0888 77.6489C93.4882 78.6487 93.909 79.6474 94.2115 80.6909C94.3498 81.2157 94.4798 81.7463 94.5235 82.2888C94.585 82.8289 94.5554 83.3749 94.4869 83.9091H94.4881Z" fill="#FF9A6C"/>
<path d="M138.611 164.395C139.091 163.526 139.512 162.629 139.916 161.728C140.016 161.502 140.116 161.275 140.211 161.047C140.307 160.819 140.406 160.593 140.495 160.363C140.585 160.132 140.683 159.905 140.77 159.675L141.032 158.981C141.121 158.751 141.199 158.517 141.283 158.284C141.367 158.051 141.45 157.818 141.526 157.583L141.761 156.88L141.981 156.171C142.133 155.699 142.259 155.222 142.399 154.747C142.54 154.271 142.65 153.788 142.788 153.311C142.746 153.555 142.702 153.8 142.655 154.043C142.608 154.287 142.568 154.533 142.511 154.774C142.399 155.257 142.295 155.744 142.158 156.221C141.91 157.185 141.591 158.128 141.254 159.063C140.906 159.995 140.517 160.911 140.083 161.806C139.648 162.699 139.17 163.575 138.611 164.395Z" fill="#1B1A2E"/>
<path d="M82.6094 100.664C83.101 100.749 83.5915 100.837 84.0855 100.904C84.5772 100.978 85.0712 101.043 85.564 101.107C86.5509 101.228 87.5412 101.325 88.5328 101.39L89.2762 101.435L90.0207 101.459C90.2689 101.472 90.5171 101.472 90.7653 101.472L91.1376 101.475C91.2617 101.477 91.3858 101.478 91.5099 101.474L92.2544 101.455C92.5026 101.452 92.7508 101.426 92.999 101.415C93.4977 101.402 93.9894 101.325 94.4869 101.286C93.5096 101.483 92.5144 101.614 91.5146 101.659C90.5159 101.702 89.5137 101.696 88.5151 101.627C87.5176 101.558 86.5225 101.45 85.5368 101.292C84.55 101.134 83.5702 100.934 82.6082 100.668L82.6094 100.664Z" fill="#1B1A2E"/>
<path d="M204.999 27.0623C200.818 22.4508 193.69 22.1021 189.078 26.2847C185.607 29.4319 184.552 34.2491 186.026 38.4057L182.316 41.9122L188.301 42.2053C192.482 46.8169 199.61 47.1655 204.221 42.9842C208.833 38.8028 209.181 31.6751 204.999 27.0635V27.0623Z" fill="white"/>
<path d="M182.316 41.9111C182.611 41.605 182.911 41.3024 183.215 41.0058C183.519 40.7079 183.826 40.4136 184.135 40.1206C184.444 39.8286 184.755 39.5379 185.069 39.2519C185.383 38.9647 185.702 38.6822 186.024 38.4045C185.729 38.7106 185.429 39.0132 185.124 39.3098C184.82 39.6076 184.513 39.9019 184.204 40.195C183.895 40.4869 183.584 40.7777 183.27 41.0637C182.956 41.3509 182.637 41.6333 182.315 41.9111H182.316Z" fill="#1B1A2E"/>
<path d="M188.299 42.2041C187.799 42.1994 187.301 42.1888 186.801 42.171C186.302 42.1545 185.803 42.1321 185.305 42.1096C184.806 42.0848 184.307 42.0576 183.81 42.0257C183.311 41.995 182.813 41.9571 182.316 41.9134C182.816 41.9181 183.314 41.9288 183.814 41.9465C184.313 41.963 184.812 41.9855 185.311 42.008C185.809 42.0328 186.308 42.06 186.806 42.0919C187.304 42.1226 187.802 42.1604 188.299 42.2053V42.2041Z" fill="#1B1A2E"/>
<path d="M186.024 38.4045C185.793 37.7533 185.619 37.0808 185.507 36.3989C185.399 35.7158 185.348 35.0221 185.364 34.3307C185.396 32.9468 185.68 31.5664 186.209 30.2829C186.736 28.9994 187.509 27.8175 188.466 26.813C189.428 25.8131 190.563 24.9728 191.821 24.3819C192.45 24.0853 193.105 23.8454 193.777 23.6693C194.45 23.4932 195.139 23.3797 195.831 23.3289C197.218 23.2284 198.623 23.3833 199.955 23.7863C201.288 24.1857 202.543 24.8417 203.636 25.7009C204.183 26.1299 204.692 26.6097 205.153 27.1309C205.613 27.6521 206.031 28.2123 206.386 28.8115C207.1 30.0063 207.589 31.3347 207.823 32.7057C208.059 34.0766 208.039 35.4913 207.767 36.8551C207.497 38.2201 206.968 39.532 206.221 40.7056C205.474 41.8791 204.508 42.9109 203.392 43.737C202.272 44.5619 201.002 45.1777 199.663 45.5429C198.324 45.9092 196.917 46.0262 195.537 45.8868C194.157 45.7449 192.805 45.3467 191.571 44.7179C190.336 44.0904 189.224 43.2312 188.297 42.2041C189.233 43.2217 190.352 44.0703 191.588 44.6837C192.824 45.2994 194.172 45.6835 195.545 45.8111C196.917 45.9411 198.312 45.8182 199.638 45.4483C200.964 45.0796 202.219 44.4626 203.323 43.6413C203.875 43.2312 204.386 42.7655 204.854 42.2621C205.32 41.7574 205.743 41.2126 206.111 40.6323C206.847 39.4717 207.368 38.1752 207.632 36.8267C207.898 35.4783 207.916 34.0825 207.68 32.7293C207.448 31.3761 206.962 30.0666 206.256 28.8883C205.905 28.2974 205.496 27.7431 205.041 27.229C204.586 26.7149 204.087 26.2398 203.546 25.8155C202.467 24.9658 201.23 24.3169 199.915 23.9198C198.6 23.5204 197.212 23.3644 195.841 23.4613C194.47 23.5582 193.117 23.9068 191.871 24.4883C190.622 25.0674 189.494 25.8935 188.535 26.8803C187.58 27.8719 186.809 29.0408 186.277 30.3124C185.741 31.5817 185.445 32.9527 185.4 34.3319C185.378 35.0221 185.423 35.7134 185.524 36.3966C185.631 37.0797 185.799 37.7521 186.024 38.4057V38.4045Z" fill="#1B1A2E"/>
<path d="M195.386 37.784L192.695 35.093L193.517 34.2704L195.386 36.1389L199.645 31.8795L200.469 32.7021L195.386 37.784Z" fill="#1F4068"/>
<path d="M46.1672 175.824C46.1672 175.824 55.9706 172.835 59.996 168.809C59.996 168.809 48.0795 163.509 46.1672 175.824Z" fill="#1F4168"/>
<path d="M45.2666 173.721C45.2666 173.721 44.3022 166.248 37.3991 168.156C33.0924 169.345 31.7061 174.144 29.3436 176.517C32.9483 177.511 41.3382 183.022 45.2666 173.721Z" fill="#1F4168"/>
<path d="M45.2666 163.108C45.2666 163.108 51.8601 171.335 59.7277 160.542C59.7277 160.542 47.9033 154.21 45.2666 163.108Z" fill="#1F4168"/>
<path d="M44.9061 166.259C44.9061 166.259 46.0088 155.153 32.4152 160.057C32.4152 160.057 31.8727 169.962 44.9061 166.259Z" fill="#1F4168"/>
<path d="M45.0243 158.144C45.0243 158.144 48.0357 154.175 58.3697 152.532C55.4151 148.955 44.3164 146.71 45.0243 158.144Z" fill="#1F4168"/>
<path d="M44.3093 154.575C41.0912 141.588 32.5642 146.159 28.0661 144.031C28.0661 144.031 27.9502 163.105 44.3093 154.575Z" fill="#1F4168"/>
<path d="M44.1167 150.401C44.1167 150.401 53.4226 146.936 57.5838 143.226C57.5838 143.226 47.8655 134.967 44.1167 150.401Z" fill="#1F4168"/>
<path d="M43.1996 142.582C43.5943 146.043 43.891 149.516 44.1498 152.988C44.4027 156.461 44.6166 159.937 44.7691 163.415C44.9215 166.894 45.0444 170.372 45.0976 173.851C45.1697 177.329 45.165 180.809 45.1414 184.286L46.6541 184.275C46.5513 180.784 46.4296 177.295 46.231 173.811C46.0514 170.326 45.802 166.845 45.5231 163.368C45.2442 159.891 44.9038 156.42 44.5256 152.955C44.1415 149.49 43.7184 146.029 43.1996 142.583V142.582Z" fill="#1B1A2E"/>
<path d="M43.4691 142.55C43.4691 142.55 49.5745 133.839 50.442 128.213C50.442 128.213 37.7348 131.485 43.4691 142.55Z" fill="#1F4168"/>
<path d="M43.5542 145.678C43.5542 145.678 40.076 141.094 28.1417 139.197C31.5537 135.068 44.3708 132.473 43.5542 145.678Z" fill="#1F4168"/>
<path d="M36.8306 209.299H54.42V187.571H36.8306V209.299Z" fill="#F9A21B"/>
<path d="M35.7457 187.572H55.505V184.28H35.7457V187.572Z" fill="#1F4168"/>
</g>
<defs>
<clipPath id="clip0_1_2833">
<rect width="231.393" height="209" fill="white"/>
</clipPath>
</defs>
</svg>
