<svg width="310" height="209" viewBox="0 0 310 209" fill="none" xmlns="http://www.w3.org/2000/svg">
<g clip-path="url(#clip0_32_17928)">
<path d="M35.1953 168.284H284.804L249.596 131.166H0L35.1953 168.284Z" fill="#08646D"/>
<path d="M36.7911 133.039H154.096C159.657 133.039 165.018 130.794 166.077 128.028L181.3 88.2919C182.36 85.5254 178.707 83.2799 173.159 83.2799H55.8536C50.2932 83.2799 44.9322 85.5254 43.8725 88.2919L28.6499 128.028C27.5902 130.794 31.2431 133.039 36.7911 133.039Z" fill="#000001"/>
<path d="M187.484 142.567C186.274 145.867 183.182 148.112 179.218 148.112H61.9252C56.3523 148.112 51.2407 143.622 50.5052 138.101L39.6087 58.6297C38.8607 53.0843 42.763 48.5934 48.3109 48.5934H165.628C171.164 48.5934 176.276 53.0967 177.048 58.6297L187.92 138.101C188.132 139.701 187.982 141.215 187.484 142.567Z" fill="#248385"/>
<path d="M85.7628 59.2872C85.7628 59.2872 64.5184 81.1089 71.5625 81.2454L78.594 81.3818C78.594 81.3818 73.2206 105.263 79.0055 102.658L84.8028 100.053C84.8028 100.053 86.2864 111.044 101.409 111.726L136.604 77.6353L140.706 86.2697C140.706 86.2697 147.289 73.5662 138.736 65.6017C130.184 57.6372 121.419 58.3319 121.419 58.3319C121.419 58.3319 107.568 42.6883 85.7752 59.2872H85.7628Z" fill="#000001"/>
<path d="M149.907 147.864C122.504 147.939 95.1008 148.026 67.6851 148.1C68.2586 145.21 71.2134 132.022 83.6807 123.686C95.9236 115.498 108.852 117.669 113.104 118.376C137.116 122.395 148.536 145.036 149.895 147.852L149.907 147.864Z" fill="#000001"/>
<path d="M124.349 111.156V131.588C124.349 131.588 125.82 144.242 117.667 143.101C109.513 141.959 100.873 119.567 100.873 119.567L102.22 99.6928L124.349 111.156Z" fill="#4CA296"/>
<path d="M100.325 99.9037C100.649 108.662 123.676 120.671 135.246 112.644C144.895 105.945 144.908 89.3712 135.283 75.638C130.845 69.2986 124.474 62.339 120.995 63.8029C117.903 65.1055 119.973 71.7674 116.096 80.0916C113.291 86.1084 108.777 90.0039 105.299 92.4106C102.382 94.6064 100.225 97.1496 100.325 99.9037Z" fill="#4CA296"/>
<path d="M94.2031 99.9905C97.0083 104.208 101.297 106.305 103.766 104.68C106.247 103.055 105.985 98.3033 103.18 94.0854C100.374 89.8674 96.0857 87.7708 93.6172 89.396C91.1362 91.0211 91.398 95.7725 94.2031 99.9905Z" fill="#4CA296"/>
<path d="M128.812 99.2462C128.551 99.2462 128.289 99.1841 128.052 99.0477C127.329 98.6259 127.079 97.7078 127.503 96.9883L129.461 93.6387C129.236 93.6636 128.987 93.6636 128.738 93.6387C126.768 93.3658 126.095 91.3065 125.883 90.6365L123.938 84.6446C123.676 83.8506 124.112 82.9946 124.91 82.7465C125.721 82.4984 126.568 82.9202 126.818 83.7141L128.763 89.7061C129.012 90.4877 129.199 90.6614 129.236 90.6862C129.199 90.649 129.386 90.6117 129.523 90.5869C130.097 90.4753 131.069 90.2768 131.967 90.9591C132.839 91.6166 133.363 93.006 132.253 94.9041L130.146 98.5142C129.86 98.998 129.361 99.271 128.837 99.271L128.812 99.2462Z" fill="#000001"/>
<path d="M124.935 102.658C121.669 103.005 118.402 103.34 115.148 103.687C115.622 106.156 117.816 107.893 120.185 107.806C122.791 107.719 124.985 105.437 124.948 102.658H124.935Z" fill="white"/>
<path d="M111.034 138.262L96.0109 143.175L100.861 119.567L111.034 138.262Z" fill="#030E13"/>
<path d="M124.349 121.911L124.062 137.766L135.919 143.175L129.162 124.517L124.349 121.911Z" fill="#030E13"/>
<path d="M205.736 164.587C203.866 169.686 199.078 173.16 192.957 173.16H169.107L176.861 137.381C176.861 137.381 180.602 137.381 170.353 137.245C160.105 137.146 161.826 119.852 161.826 119.852L165.853 113.612L159.819 115.324C156.814 116.168 154.495 115.349 154.133 114.183C153.784 113.029 155.355 111.602 155.555 111.416C160.105 108.364 164.656 105.313 169.206 102.273C174.468 104.779 179.741 107.297 185.003 109.803L205.736 164.6V164.587Z" fill="#89BDC1"/>
<path d="M276.376 203.988C262.3 206.271 245.781 207.97 227.279 208.045C204.576 208.132 184.666 205.75 168.371 202.71C169.456 192.724 170.902 182.315 172.797 171.522C177.422 145.222 183.856 121.564 190.887 100.809C194.652 97.683 200.013 94.135 207.045 91.7779C216.907 88.4779 225.247 89.5448 229.723 89.5448C232.279 89.5448 236.281 90.1403 241.218 91.7158C250.194 94.5816 256.341 99.5191 259.769 102.782C265.205 113.302 271.439 128.102 275.116 146.562C279.854 170.368 278.408 190.602 276.363 203.976L276.376 203.988Z" fill="#000001"/>
<path d="M124.723 163.955C124.723 163.955 117.529 155.37 114.039 154.898C110.548 154.439 98.9531 155.903 98.9531 155.903L94.9137 159.389L86.4484 160.853L81.6609 168.297L95.0883 172.936L108.241 181.447L124.723 163.967V163.955Z" fill="#89BDC1"/>
<path d="M190.887 100.809C189.578 101.43 187.521 102.472 185.202 104.022C176.799 109.642 170.416 118.19 160.928 144.093C158.036 151.995 154.458 162.59 150.992 175.38C144.185 171.361 137.39 167.329 130.583 163.297C129.174 163.248 119.998 163.037 113.478 170.158C109.538 174.475 108.54 179.313 108.241 181.41C109.962 183.432 137.178 214.781 161.427 208.02C184.766 201.507 191.161 163.669 196.41 132.642C197.358 127.06 197.37 122.358 196.772 118.004C195.762 110.498 193.056 104.618 190.875 100.784L190.887 100.809Z" fill="#000001"/>
<path d="M159.357 191.793C158.958 191.793 158.559 191.582 158.36 191.198L150.007 175.939C149.708 175.393 149.907 174.698 150.456 174.4C151.017 174.103 151.702 174.301 152.002 174.847L160.355 190.106C160.654 190.652 160.454 191.347 159.906 191.644C159.731 191.744 159.544 191.781 159.357 191.781V191.793Z" fill="#00696B"/>
<path d="M241.231 51.7332C248.7 29.3521 241.856 6.94625 225.944 1.68842C210.032 -3.5694 191.078 10.3118 183.609 32.693C176.14 55.0741 182.984 77.48 198.896 82.7378C214.808 87.9956 233.762 74.1144 241.231 51.7332Z" fill="#89BDC1"/>
<path d="M174.904 43.9164C174.306 39.6364 173.558 29.7863 178.931 19.9981C187.708 4.03188 207.444 -1.9477 222.716 0.545856C241.704 3.6597 251.379 19.4895 251.416 19.5763C251.441 19.6383 251.466 19.7004 251.466 19.7004C251.503 19.7872 251.528 19.874 251.541 19.9733C255.468 37.0808 264.27 52.4888 275.989 65.6141C284.442 75.0797 288.943 87.1629 288.082 99.3702C287.958 101.119 286.275 120.46 269.88 131.762C250.705 144.974 223.053 139.205 209.189 124.082C197.669 111.503 193.443 89.9914 198.978 74.6703C201.048 68.9389 204.813 63.2694 203.666 54.9079C202.669 47.6133 198.467 42.1052 195.001 38.5323C194.578 39.5 192.658 43.6311 187.945 45.5788C181.312 48.3205 175.291 44.2142 174.892 43.9288L174.904 43.9164Z" fill="#000001"/>
<path d="M207.431 55.9004C208.067 62.8849 206.21 68.7528 203.292 69.0133C200.375 69.2738 197.495 63.8277 196.872 56.8432C196.248 49.8588 198.093 43.9909 201.011 43.7303C203.928 43.4698 206.808 48.916 207.431 55.9004Z" fill="#89BDC1"/>
<path d="M175.49 208.045H298.991L309.476 156.275C312.755 140.086 300.325 124.976 283.731 124.976H213.827C201.322 124.976 190.551 133.747 188.082 145.941L175.503 208.045H175.49Z" fill="#89BDC1"/>
</g>
<defs>
<clipPath id="clip0_32_17928">
<rect width="310" height="209" fill="white"/>
</clipPath>
</defs>
</svg>
