<svg width="89" height="209" viewBox="0 0 89 209" fill="none" xmlns="http://www.w3.org/2000/svg">
<path d="M34.6962 29.6123C33.3489 30.1465 32.3597 31.5143 32.2629 32.982C32.166 34.4496 32.9644 35.9407 34.2324 36.6539C33.0554 37.4112 32.4859 39.0256 32.9262 40.3729C33.3665 41.7172 34.7695 42.6682 36.1608 42.5567C36.469 43.3375 37.2351 43.9098 38.0599 43.9773C38.8847 44.0448 39.7301 43.6046 40.1557 42.8854C40.3142 42.6154 40.4434 42.2925 40.7222 42.1604C41.0715 41.9931 41.4707 42.2074 41.8464 42.2955C43.1467 42.5978 44.3208 41.2916 44.6349 39.9708C44.9489 38.6499 44.7317 37.2527 44.9871 35.9201C45.4773 36.2225 46.1406 36.0669 46.5809 35.6941C47.0212 35.3213 47.2824 34.7783 47.5026 34.2382C48.0075 33.0143 48.3773 31.6905 48.2217 30.3725C48.0661 29.0546 47.2824 27.7514 46.0584 27.2993L34.6962 29.6123Z" fill="black"/>
<path d="M70.0393 23.3397C67.9905 30.6983 65.8419 38.0276 63.5935 45.3276C63.1327 46.8216 62.6425 48.3626 61.6181 49.5279C59.6838 51.7293 51.8526 49.5719 51.8526 49.5719C51.8526 49.5719 48.4242 61.2043 48.3685 61.2072C45.3951 61.4743 42.542 62.0202 39.6655 61.2072C37.7018 60.6524 35.4681 59.8306 34.8018 57.8698C34.338 56.5079 34.8018 55.0197 35.2597 53.6578C37.1118 48.1718 37.8222 45.3011 39.6743 39.8152C36.8389 40.3964 33.8479 37.6666 34.1062 34.7372C34.3645 31.8079 37.787 29.6651 40.4727 30.7482C42.6536 26.093 44.8315 21.4377 47.0124 16.7824L70.0393 23.3338V23.3397Z" fill="#CB7748"/>
<path d="M68.425 30.3197C68.1579 30.8158 67.5532 31.0946 67.0102 30.9743C66.2235 29.0223 66.2499 26.7446 67.0865 24.8162C66.385 25.9022 64.935 26.4217 63.7198 26.0225C62.5046 25.6233 61.627 24.3436 61.6798 23.0433C60.7464 23.9825 59.2612 24.3054 58.0313 23.8387C56.8014 23.372 55.8886 22.1392 55.7858 20.8066C53.9924 22.7204 50.2529 21.7899 49.5309 19.248C49.2461 20.607 48.2922 21.8017 47.0447 22.3623C46.8334 23.6832 46.6044 25.048 45.8823 26.1664C45.1603 27.2847 43.8042 28.0977 42.5332 27.7455C42.5332 28.5292 42.5186 29.3716 42.0695 30.0115C41.6204 30.6485 40.5637 30.8921 40.0941 30.2698C40.5285 30.6749 39.5276 31.0007 38.9611 30.8334C37.5199 30.4078 35.8497 30.9831 34.9574 32.21C34.7725 30.669 34.1121 29.1896 34.1326 27.6369C34.1532 26.0842 35.2656 24.3406 36.7861 24.4991C36.6276 22.3593 37.5081 20.1667 39.0902 18.749C38.4944 16.21 40.5872 13.9118 42.4922 12.1624C43.6516 11.0998 44.8814 9.99907 46.4048 9.6439C47.9253 9.28874 49.8068 9.98439 50.2236 11.5136C51.5327 9.96678 53.8251 9.37387 55.7036 10.093C56.2701 10.3102 56.8073 10.636 57.409 10.7241C58.1546 10.8327 58.8972 10.5626 59.6457 10.4482C61.8324 10.1135 64.0485 11.179 65.6453 12.7377C67.245 14.2933 68.334 16.2981 69.4024 18.2706C69.602 18.6404 69.8104 19.0514 69.7253 19.4652C69.6401 19.8791 69.0971 20.1932 68.7948 19.9026C71.2751 21.1001 72.3318 24.6253 70.9258 27.0293C71.7212 28.0713 71.6302 29.7063 70.7262 30.6514C69.8221 31.5965 68.2195 31.7374 67.1746 30.9596L68.425 30.3168V30.3197Z" fill="black"/>
<path d="M65.8919 21.4641C66.7049 22.5942 66.3644 24.3318 65.1404 25.3063C66.1443 26.3454 66.0239 28.1447 64.8762 29.2425C64.6414 29.4656 64.1336 29.6065 64.0896 29.3217C64.072 29.9147 63.2443 30.3667 62.6161 30.2228C61.988 30.079 61.6064 29.5125 61.533 28.9284C61.4597 28.3443 61.6358 27.7426 61.8119 27.1555C60.6906 26.5832 60.3237 25.1155 61.034 24.0383C60.4411 24.4903 59.5136 24.1792 59.1936 23.6039C58.8766 23.0286 58.9823 22.3153 59.0997 21.649C59.2054 21.0356 59.311 20.4192 59.4196 19.8057L65.8919 21.4641Z" fill="black"/>
<path d="M57.1771 20.2108C57.9902 20.9387 58.68 21.8516 58.7005 22.8642C58.7211 23.8769 57.8434 24.9424 56.6781 24.96C57.3914 25.186 57.5734 26.0049 57.4354 26.6536C57.3532 27.0381 57.1712 27.4432 56.7809 27.6369C56.3905 27.8306 55.7682 27.6721 55.7095 27.2847C55.5745 27.6809 54.9669 27.8218 54.5266 27.6692C54.0863 27.5166 53.7869 27.1614 53.5286 26.815C53.1001 26.2397 52.7067 25.6263 52.5864 24.9482C52.4631 24.2731 52.6539 23.5217 53.238 23.0609C52.7831 23.4249 51.9818 23.1225 51.7293 22.6323C51.4769 22.1421 51.6031 21.5756 51.7293 21.0532C51.9142 20.3047 52.0962 19.5562 52.2812 18.8077L57.1771 20.2108Z" fill="black"/>
<path d="M49.0553 17.9712C50.3469 19.6266 50.0915 22.0629 48.4771 23.4894C49.0993 24.3553 49.114 25.5265 48.5123 26.4041C48.1571 26.9207 47.2619 27.3199 46.8304 26.8532C46.7658 27.3874 45.9469 27.6633 45.3951 27.4197C44.8433 27.1761 44.585 26.5949 44.5996 26.0607C44.6055 25.7995 44.6613 25.5236 44.5204 25.2946C44.4088 25.1126 44.1975 25.0011 44.0243 24.8602C43.0704 24.0882 43.4285 22.7351 43.857 21.6667C44.2063 20.7978 44.5556 19.9261 44.9049 19.0572L49.0524 17.9741L49.0553 17.9712Z" fill="black"/>
<path d="M68.1021 25.4912C67.4886 27.0704 66.8781 28.6496 66.2646 30.2287C66.0592 30.7571 65.8537 31.3206 66.0151 31.8578C66.1765 32.3949 66.8722 32.8499 67.4563 32.618C66.8047 32.8646 66.4789 33.616 66.7841 34.1737C67.0894 34.7314 67.9641 34.9867 68.5981 34.7049C68.965 34.5406 69.2204 34.2412 69.4611 33.9535C69.8368 33.5074 70.2096 33.0612 70.5853 32.6151C71.2897 31.7785 72.0265 30.7013 71.4981 29.7708C73.0538 28.9049 73.9989 27.2729 73.8698 25.6732C73.7406 24.0735 72.5431 22.5707 70.8641 21.9014C70.0041 21.558 68.877 21.2675 68.7273 20.4573L68.1021 25.4883V25.4912Z" fill="black"/>
<path d="M70.9757 23.2575C73.1419 21.5492 73.1624 17.7246 71.0138 15.9928C70.5148 15.5907 69.9249 15.2884 69.5081 14.7982C68.8594 14.0321 68.7449 12.9549 68.5013 11.9745C67.7939 9.1009 65.7099 6.61181 63.03 5.44652C62.6484 5.27921 62.2404 5.12952 61.9498 4.83013C61.5624 4.43094 61.445 3.84388 61.2072 3.33608C60.4617 1.75399 58.2778 1.09358 56.8044 2.00937C55.9091 0.68558 54.3006 -0.101062 52.7244 0.0104765C52.1197 0.0545051 51.5327 0.218866 50.9486 0.383239C49.2403 0.864618 47.532 1.34307 45.8237 1.82445C44.177 2.28822 42.5127 2.75785 41.0245 3.61494C38.4327 5.10897 36.5278 7.78591 35.9437 10.7564C34.5612 10.592 33.2315 11.6839 32.7971 13.0312C32.3627 14.3784 32.6738 15.8784 33.3137 17.1376C33.5397 17.5837 33.8127 18.0504 33.7569 18.5465C33.6483 19.5181 32.4478 19.8908 31.8784 20.6775C30.8099 22.151 32.2893 24.0882 32.6503 25.8816C33.0114 27.6751 32.4947 30.1524 34.159 30.848C35.2128 31.2883 36.4456 30.4665 36.8888 29.398C37.332 28.3296 37.1999 27.1173 37.062 25.9667C39.9737 26.2221 42.8209 23.6215 42.8855 20.6481C45.0106 20.064 46.7805 18.297 47.394 16.1455C51.9289 16.4683 56.5284 16.8059 60.808 18.3616C63.2736 19.2568 65.8596 20.5718 68.378 19.8497L70.9698 23.2634L70.9757 23.2575Z" fill="black"/>
<path d="M37.1823 32.6121C38.192 33.795 38.8671 35.2303 39.1753 36.7508C39.2517 37.1236 39.8211 36.9651 39.7477 36.5923C39.4219 34.9662 38.6764 33.4516 37.6021 32.1895C37.3555 31.8989 36.9357 32.3186 37.1823 32.6092V32.6121Z" fill="#571F1F"/>
<path d="M36.9035 35.2274C36.9945 35.1599 37.1001 35.0865 37.2087 35.0513C37.1324 35.0777 37.2263 35.0454 37.241 35.0396C37.2674 35.0308 37.2968 35.022 37.3232 35.0132C37.3761 34.9985 37.4289 34.9838 37.4847 34.975C37.5023 34.9721 37.5844 34.9515 37.5023 34.9691C37.5287 34.9633 37.561 34.9632 37.5903 34.9603C37.649 34.9574 37.7077 34.9544 37.7664 34.9603C37.7958 34.9603 37.8251 34.9633 37.8545 34.9662C37.8545 34.9662 37.8516 34.9662 37.8838 34.9691C37.9425 34.9809 37.9983 34.9926 38.0541 35.0073C38.2038 35.0484 38.3828 34.9545 38.4181 34.8018C38.4533 34.6433 38.3711 34.4819 38.2126 34.4378C37.6725 34.2852 37.062 34.385 36.607 34.7167C36.4808 34.8077 36.4074 34.9779 36.5014 35.1218C36.5806 35.245 36.7714 35.3243 36.9064 35.2274H36.9035Z" fill="#571F1F"/>
<path opacity="0.58" d="M51.8526 49.5719L43 47.4967L51.0396 52.5864L51.8526 49.5719Z" fill="#7F4924"/>
<path d="M51.5121 51.4182C50.6345 53.875 48.1073 56.5783 45.5565 56.8836C43.0058 57.1918 40.3348 55.9296 38.917 53.7517C37.7752 51.9964 38.3065 49.7187 37.1765 47.9546C33.0642 48.5739 29.2865 48.5886 26.7828 51.9671C25.9404 53.1001 24.3113 56.7339 23.3045 57.7201C19.5034 61.4361 12.6438 60.2679 9.08331 64.2217C8.02369 65.3987 7.39555 66.9015 6.81144 68.3809C2.15322 80.1923 1.86851 87.8503 0.37741 100.486C-0.218443 105.532 -0.236063 112.48 1.26678 117.326C2.76962 122.172 6.45921 126.604 11.3581 127.602C12.1154 127.758 13.0136 127.916 13.3453 128.627C13.5155 128.991 13.4832 129.416 13.448 129.818C12.77 137.447 10.3631 184.243 9.68503 191.872C9.61458 192.676 33.3577 216.816 49.751 206.393C68.5541 194.435 77.7796 191.132 80.0045 191.872C84.0522 176.142 81.6629 137.4 77.1455 121.802C80.9349 122.336 84.8623 118.336 87.1811 115.239C89.5 112.142 88.5108 105.189 87.7183 101.382C86.7555 96.7558 87.1136 91.8628 85.7458 87.3425C83.4945 79.8988 79.3352 72.2143 75.5429 65.4486C72.1762 59.4431 66.9926 57.6027 60.2533 56.7251C56.9599 56.2965 56.185 56.141 54.2037 53.4259L51.5151 51.4211L51.5121 51.4182Z" fill="#FAFFB7"/>
<path d="M47.1973 32.3274C47.4087 33.4927 48.3362 34.52 49.5015 34.7871C50.7079 35.063 51.97 34.5347 52.6833 33.5367C52.9064 33.2256 52.3927 32.9291 52.1726 33.2373C51.6061 34.0298 50.5435 34.4437 49.5925 34.1971C48.6444 33.9506 47.9429 33.1169 47.7726 32.1659C47.7051 31.7902 47.1327 31.9487 47.2003 32.3244L47.1973 32.3274Z" fill="black"/>
<path d="M59.0263 35.609C59.2377 36.7743 60.1652 37.8016 61.3305 38.0687C62.5369 38.3446 63.799 37.8163 64.5123 36.8183C64.7354 36.5072 64.2217 36.2107 64.0016 36.5189C63.4351 37.3114 62.3725 37.7253 61.4215 37.4787C60.4734 37.2322 59.7719 36.3986 59.6016 35.4475C59.5341 35.0718 58.9618 35.2304 59.0293 35.6061L59.0263 35.609Z" fill="black"/>
<path d="M56.3259 34.115C55.6655 36.2283 56.637 38.7262 58.589 39.7946C58.5538 39.6596 58.5185 39.5246 58.4833 39.3896C58.1164 39.8915 57.6291 40.276 57.0656 40.5372C56.7192 40.6958 57.0215 41.2065 57.365 41.048C58.0225 40.7427 58.5684 40.2731 58.994 39.689C59.088 39.5627 59.0175 39.3543 58.8884 39.2839C57.1595 38.3388 56.3142 36.1432 56.8983 34.2735C57.0128 33.9095 56.4404 33.7539 56.3259 34.115Z" fill="#571F1F"/>
<path d="M51.4622 39.3103C51.6794 40.8513 53.1794 42.1076 54.7409 42.0107C55.1195 41.9873 55.1225 41.3943 54.7409 41.4178C53.4142 41.5 52.2166 40.4521 52.0346 39.1548C52.0111 38.9963 51.8115 38.9082 51.6706 38.9493C51.5004 38.9963 51.4417 39.1548 51.4652 39.3133L51.4622 39.3103Z" fill="#571F1F"/>
<path d="M53.3525 29.0371C53.2733 29.3188 53.197 29.6036 53.1177 29.8853C51.0484 29.4861 48.9203 29.4127 46.8275 29.6681C48.5006 28.1418 51.1159 27.7984 53.1148 28.8404L53.3525 29.0341V29.0371Z" fill="black"/>
<path d="M59.5928 31.1181C59.5312 31.4057 59.4696 31.6934 59.405 31.981C61.4127 32.6238 63.3265 33.5807 65.0495 34.8106C64.2834 32.662 62.1347 31.1034 59.8893 31.0623L59.5899 31.121L59.5928 31.1181Z" fill="black"/>
<path d="M38.1803 7.18712C35.838 7.57457 33.3137 8.14107 31.714 10.049C31.0183 10.8796 30.5692 11.8923 30.5311 12.9842C30.4958 14.035 30.8393 15.08 31.394 15.9635C32.0368 16.9879 32.9556 17.8361 34.0211 18.4056C34.071 18.2207 34.1209 18.0387 34.1708 17.8538C31.7433 18.1326 29.7327 20.1139 29.1926 22.4709C28.6349 24.8983 29.856 27.3199 31.9605 28.5732C33.1082 29.2571 34.4584 29.5448 35.7793 29.3129C36.155 29.2454 35.9965 28.676 35.6208 28.7406C33.5162 29.1104 31.3412 27.8952 30.2904 26.0871C29.1632 24.1469 29.6065 21.7371 31.0858 20.111C31.8871 19.2304 32.9732 18.5846 34.1678 18.4467C34.4349 18.4173 34.6022 18.0475 34.3175 17.8948C32.6444 16.9967 31.2032 15.2707 31.121 13.3071C31.033 11.1908 32.6591 9.55879 34.476 8.75454C35.6941 8.21446 37.0267 7.97376 38.3329 7.75949C38.7086 7.69785 38.5501 7.12548 38.1744 7.18712H38.1803Z" fill="black"/>
<path d="M62.7511 6.05705C64.3097 5.6696 66.0063 6.05705 67.2802 7.02862C68.6216 8.05008 69.3407 9.68502 69.3349 11.3552C69.3319 12.3121 69.0912 13.2513 68.6128 14.082C68.5101 14.261 68.6128 14.4518 68.7889 14.5164C69.5462 14.8011 70.2712 15.1651 70.9522 15.5995C71.6009 16.0134 72.2877 16.4918 72.7515 17.117C73.6966 18.3909 73.2123 20.0728 72.364 21.2557C71.8503 21.9719 71.1958 22.5765 70.553 23.1753C70.2741 23.4366 70.6939 23.8534 70.9727 23.5951C72.1908 22.4562 73.4882 21.197 73.7905 19.4799C73.9343 18.6668 73.858 17.8127 73.4383 17.0877C73.0186 16.3627 72.3259 15.8285 71.6508 15.3559C70.8142 14.7688 69.9014 14.3021 68.9445 13.944C69.0032 14.0879 69.0619 14.2346 69.1206 14.3784C70.0481 12.7611 70.1743 10.7211 69.4787 8.99523C68.7948 7.29573 67.3389 6.03063 65.5807 5.53751C64.6062 5.26454 63.573 5.24106 62.5897 5.48468C62.2199 5.57567 62.3754 6.14805 62.7482 6.05705H62.7511Z" fill="black"/>
<path d="M24.0559 58.1692C24.4962 60.7757 26.3102 63.1327 28.7435 64.1835C31.5672 65.4046 34.7314 64.5915 37.6197 65.4868C38.3623 65.7157 39.0198 66.0885 39.6626 66.52C40.3083 66.9514 40.9424 67.4035 41.6674 67.6999C43.1702 68.3163 44.8403 68.1931 46.4048 67.926C47.8519 67.6794 49.3518 67.4005 50.7225 66.8546C52.0992 66.3086 53.2292 65.4339 53.9777 64.1395C54.6675 62.9419 55.0315 61.5858 55.5569 60.3119C56.0177 59.1936 56.596 57.9227 56.4169 56.684C56.3788 56.4139 56.2936 56.1557 56.1586 55.9179C55.9708 55.5862 55.4571 55.8856 55.6479 56.2173C55.9032 56.6693 55.8915 57.2123 55.8005 57.7113C55.6919 58.313 55.4864 58.8972 55.2633 59.4666C55.0491 60.0184 54.8055 60.5614 54.6 61.1191C54.3564 61.7766 54.145 62.4459 53.8545 63.0858C53.5639 63.7227 53.2116 64.342 52.7361 64.8586C52.2723 65.3635 51.7088 65.7509 51.0953 66.0533C49.842 66.6697 48.4331 66.9338 47.0741 67.2039C45.5888 67.5003 44.0126 67.7557 42.5215 67.3653C41.048 66.9808 39.9796 65.8419 38.6118 65.2343C35.9026 64.0309 32.8616 64.7412 30.0526 64.0133C27.5753 63.3704 25.5705 61.3745 24.8396 58.9295C24.7487 58.6301 24.6812 58.3248 24.6283 58.0166C24.5637 57.6409 23.9943 57.7994 24.0559 58.1751V58.1692Z" fill="#AE660A"/>
<path d="M46.167 58.8443C48.2305 60.9841 49.3841 63.9194 49.3635 66.8898C49.3635 67.2714 49.9535 67.2714 49.9564 66.8898C49.977 63.7638 48.7589 60.6759 46.5868 58.4246C46.3226 58.1487 45.9029 58.5684 46.167 58.8443Z" fill="#AE660A"/>
<path d="M48.7648 57.453C51.0279 59.2024 52.2636 62.079 52.0141 64.9232C51.9818 65.3019 52.5747 65.3019 52.607 64.9232C52.8682 61.944 51.5562 58.8649 49.1845 57.0333C49.0583 56.9335 48.891 56.91 48.7648 57.0333C48.6621 57.1331 48.6386 57.3532 48.7648 57.453Z" fill="#AE660A"/>
<path d="M50.705 54.4973C52.8536 56.2467 54.1157 58.9529 54.0981 61.7238C54.0981 62.1054 54.6881 62.1054 54.691 61.7238C54.7116 58.812 53.3878 55.9238 51.1247 54.0775C50.8312 53.8397 50.4085 54.2566 50.705 54.4973Z" fill="#AE660A"/>
<path d="M43.5723 58.2661C44.6378 61.125 44.7846 64.2745 43.9774 67.2186C43.8776 67.5855 44.447 67.744 44.5497 67.3771C45.3804 64.3391 45.2425 61.0634 44.1447 58.1105C44.0126 57.7553 43.4402 57.9109 43.5723 58.269V58.2661Z" fill="#AE660A"/>
<path d="M41.6116 56.9981C41.3298 58.4334 41.0186 59.8746 40.4786 61.2366C39.9473 62.575 39.1577 63.7814 38.1333 64.7911C37.8603 65.0582 38.2801 65.478 38.5531 65.2109C39.6215 64.1601 40.4316 62.9126 40.9981 61.5271C41.5734 60.1241 41.8963 58.6359 42.1869 57.1536C42.2603 56.7809 41.6879 56.6224 41.6145 56.9951L41.6116 56.9981Z" fill="#AE660A"/>
<path d="M38.512 54.4591C35.7 56.0559 33.5749 58.7504 32.571 61.8148C32.2834 62.6954 32.0955 63.6024 32.0016 64.5211C31.9635 64.8997 32.5564 64.8968 32.5945 64.5211C32.9145 61.4508 34.4291 58.542 36.7156 56.4785C37.3584 55.9003 38.0599 55.3954 38.8114 54.9698C39.143 54.782 38.8436 54.2683 38.512 54.4591Z" fill="#AE660A"/>
<path d="M28.1799 63.2589C28.0068 59.493 30.5193 56.3758 33.3401 54.1832C33.7363 53.875 34.1444 53.5785 34.5582 53.2909C34.9574 53.012 35.4212 52.5893 35.9319 52.6011C36.3135 52.6099 36.3135 52.017 35.9319 52.0082C35.4447 51.9964 35.0367 52.2459 34.6463 52.513C34.2324 52.7919 33.8244 53.0825 33.4223 53.3789C32.6356 53.966 31.8754 54.5912 31.1739 55.278C29.809 56.6223 28.6789 58.2191 28.0596 60.0449C27.7103 61.0751 27.5371 62.167 27.587 63.256C27.6046 63.6346 28.1976 63.6376 28.1799 63.256V63.2589Z" fill="#AE660A"/>
<path d="M24.9042 59.0615C25.5236 55.7212 27.9892 53.1265 30.9625 51.653C31.8461 51.2156 32.7706 50.8751 33.7187 50.6022C34.0856 50.4965 33.9301 49.9241 33.5602 50.0298C30.1759 50.9984 26.9794 52.9856 25.2946 56.1674C24.8396 57.0245 24.508 57.9461 24.3318 58.9001C24.2614 59.2729 24.8338 59.4313 24.9042 59.0586V59.0615Z" fill="#AE660A"/>
<path d="M31.0799 94.798C33.5984 93.6709 35.9202 92.0947 37.9073 90.1633C38.1979 89.8815 38.4856 89.5821 38.647 89.2094C38.8466 88.7456 38.829 88.2202 38.8114 87.7153C38.6852 83.9964 38.8319 80.0661 40.7457 76.899C41.3679 75.8687 43.8189 70.4943 44.9959 69.2351C46.0085 69.9395 45.9587 71.4835 45.5653 72.6635C45.1691 73.8434 44.268 76.943 44.4793 78.1729C49.3723 76.1006 52.2342 68.6011 56.5607 65.5924C57.183 65.158 57.9755 65.839 57.6644 66.5406C56.7016 68.7009 52.1696 73.2945 51.1951 75.5547C52.9533 73.1184 59.1144 65.3782 60.1975 65.6688C60.6671 65.795 60.764 65.9858 60.7023 66.476C60.221 70.2331 54.9434 73.6878 53.7664 77.4449C55.1283 75.1819 59.0616 70.465 60.9108 68.5952C61.7385 67.7557 62.4899 68.4426 62.1964 69.5961C61.5213 72.2613 57.5763 78.2433 55.9091 80.5005C57.6204 78.7012 60.1916 75.1173 62.1964 73.6673C62.4018 73.5205 64.1982 73.0861 63.2501 74.7269C59.0704 81.9681 55.4043 89.5146 48.7237 94.4517C47.8196 95.1209 46.8745 95.7373 46.0497 96.5064C45.2102 97.2871 44.5116 98.2059 43.8159 99.1187C42.3865 101 40.957 102.879 39.5276 104.76L37.3437 104.032C34.1854 102.979 31.8783 100.202 31.3823 96.8586L31.077 94.8039L31.0799 94.798Z" fill="#A55B35"/>
<path d="M70.0951 99.9875C68.9944 98.0943 67.3037 97.0787 66.203 95.1855C64.7852 92.7434 62.7922 90.3159 62.7746 87.4805C62.7688 86.4179 64.0896 84.3222 64.0573 83.2596C64.0162 81.9035 63.6024 80.5915 63.3558 79.2559C63.0124 77.3862 63.0036 75.4548 63.3235 73.5792C63.4791 72.6605 62.3754 72.094 61.7326 72.7573C61.1397 73.3679 60.6612 74.2074 60.2004 74.9735C59.3198 76.4381 59.0821 78.9301 59.1995 80.6443C58.5537 80.9584 57.1536 79.1209 56.6253 78.6337C52.6451 74.9646 50.7225 69.4435 46.7776 65.7216C46.6044 65.5601 46.3696 65.4721 46.1377 65.5073C45.4802 65.6071 45.5272 66.4759 45.7121 67.0659C46.7394 70.3035 48.119 73.4236 49.8185 76.3559C45.6945 73.9168 43.5341 68.8094 39.4454 66.4319C39.0403 66.1971 38.5266 66.473 38.4943 66.9456C38.4268 67.9377 38.8877 68.9767 39.7183 69.5139C39.19 68.9445 38.5296 68.5013 37.8075 68.2283C37.6402 68.1637 37.4523 68.1109 37.288 68.1784C37.0561 68.2723 36.968 68.557 36.9475 68.8095C36.8682 69.8162 37.4171 70.7526 37.9455 71.6096C40.2819 75.4049 42.6213 79.1972 44.9577 82.9925L37.3995 78.6454C36.877 78.346 36.2724 78.8773 36.4896 79.4438C37.0649 80.9496 38.4063 82.1941 39.6684 83.2714C44.0772 87.0431 48.4859 90.8149 52.8975 94.5896C53.6108 95.2001 54.3299 95.8165 54.9346 96.5386C55.8621 97.6423 56.4961 98.9602 57.1771 100.237C58.4657 102.659 59.9421 104.977 61.5858 107.161C61.7678 107.402 61.9615 107.651 62.2345 107.772C62.5046 107.889 62.8157 107.866 63.1063 107.822C66.3497 107.34 69.1587 104.634 69.8045 101.364L70.0921 99.9875H70.0951Z" fill="#CB7748"/>
<path d="M38.5384 68.5776C39.1489 70.2536 40.2584 71.6772 41.2769 73.1184C42.3982 74.7063 43.5224 76.2943 44.6437 77.8823C45.2747 78.7775 45.9087 79.6698 46.5398 80.5651C46.757 80.8733 47.2736 80.5797 47.0505 80.2657C45.9469 78.7041 44.8433 77.1426 43.7396 75.584C42.6595 74.0547 41.5529 72.5401 40.4991 70.9903C39.9502 70.1831 39.4424 69.3437 39.1078 68.4249C38.9787 68.0698 38.4063 68.2224 38.5354 68.5835L38.5384 68.5776Z" fill="#571F1F"/>
<path d="M43.9157 84.3398C46.8128 81.7039 49.6688 79.0212 52.4807 76.2973C52.7537 76.0302 52.3369 75.6133 52.061 75.8775C49.2491 78.6043 46.3931 81.2842 43.496 83.9201C43.2142 84.1784 43.6339 84.5951 43.9157 84.3398Z" fill="#571F1F"/>
<path d="M55.6244 94.167C56.7486 93.257 57.8728 92.3471 58.997 91.4372C59.1203 91.3374 59.1026 91.1231 58.997 91.0174C58.8737 90.8942 58.7034 90.9176 58.5772 91.0174C57.453 91.9274 56.3288 92.8373 55.2046 93.7472C55.0814 93.847 55.099 94.0613 55.2046 94.167C55.3279 94.2903 55.4982 94.2668 55.6244 94.167Z" fill="#571F1F"/>
<path d="M45.3452 66.6022C46.0585 69.6724 47.165 72.6517 48.6356 75.4402C49.0524 76.2297 49.5044 76.9988 49.9682 77.7649C50.1649 78.0907 50.6785 77.7942 50.4789 77.4655C48.8557 74.7944 47.5261 71.9825 46.6015 68.9915C46.3432 68.152 46.1142 67.3007 45.9146 66.4437C45.8295 66.0738 45.2571 66.2294 45.3423 66.6022H45.3452Z" fill="#571F1F"/>
<path d="M61.6475 107.954C63.4115 108.464 65.1287 107.587 66.4701 106.495C67.1569 105.937 67.8174 105.327 68.422 104.681C69.0237 104.038 69.558 103.325 69.8984 102.512C70.28 101.602 70.415 100.595 70.1538 99.6353C70.054 99.2684 69.4816 99.4239 69.5814 99.7938C70.0158 101.385 69.1881 102.949 68.1461 104.106C67.6089 104.702 67.0131 105.25 66.4084 105.776C65.8038 106.298 65.158 106.786 64.4301 107.12C63.6112 107.496 62.6777 107.64 61.803 107.387C61.4361 107.282 61.2806 107.854 61.6446 107.96L61.6475 107.954Z" fill="#AE660A"/>
<path d="M61.8618 108.435C62.534 109.33 63.1621 110.261 63.7374 111.221C63.934 111.546 64.4448 111.25 64.2481 110.921C63.6728 109.961 63.0476 109.031 62.3725 108.136C62.2757 108.01 62.1172 107.942 61.9675 108.03C61.8413 108.103 61.7649 108.306 61.8618 108.435Z" fill="#AE660A"/>
<path d="M64.662 107.666C65.2226 108.591 65.8654 109.465 66.5757 110.281C66.6814 110.402 66.8869 110.39 66.9955 110.281C67.1158 110.161 67.1012 109.982 66.9955 109.862C66.3175 109.084 65.7098 108.25 65.1727 107.367C64.976 107.041 64.4624 107.337 64.662 107.666Z" fill="#AE660A"/>
<path d="M67.2039 105.744C67.8291 106.504 68.5336 107.194 69.3055 107.798C69.4317 107.898 69.602 107.921 69.7252 107.798C69.828 107.695 69.8515 107.478 69.7252 107.378C68.9533 106.771 68.2459 106.081 67.6236 105.324C67.5209 105.2 67.3096 105.218 67.2039 105.324C67.0806 105.447 67.1012 105.617 67.2039 105.744Z" fill="#AE660A"/>
<path d="M69.3642 103.002C70.2976 103.313 71.1694 103.8 71.9237 104.431C72.047 104.534 72.2231 104.552 72.3435 104.431C72.4492 104.326 72.4668 104.114 72.3435 104.012C71.5069 103.313 70.5559 102.776 69.5227 102.433C69.1588 102.312 69.0032 102.885 69.3642 103.005V103.002Z" fill="#AE660A"/>
<path d="M69.8456 100.337C70.6264 100.695 71.4512 100.909 72.3083 100.974C72.4668 100.985 72.6047 100.83 72.6047 100.677C72.6047 100.507 72.4697 100.393 72.3083 100.381C71.5627 100.328 70.826 100.137 70.145 99.8261C70.0012 99.7586 69.8251 99.785 69.7399 99.9317C69.6666 100.058 69.6988 100.269 69.8456 100.337Z" fill="#AE660A"/>
<path d="M31.0477 94.5427C30.9156 98.4788 33.1229 102.268 36.6921 103.974C37.6637 104.437 38.691 104.737 39.7595 104.872C40.1381 104.919 40.1322 104.326 39.7595 104.279C36.1168 103.818 33.0701 101.132 32.0339 97.6305C31.7375 96.6267 31.6054 95.5876 31.6406 94.5397C31.6523 94.1581 31.0594 94.1581 31.0477 94.5397V94.5427Z" fill="#AE660A"/>
<path d="M38.8466 104.54C38.3975 105.738 37.9513 106.932 37.5023 108.13C37.4465 108.28 37.5639 108.456 37.7077 108.494C37.875 108.541 38.0159 108.438 38.0717 108.288C38.5208 107.091 38.9669 105.896 39.416 104.699C39.4718 104.549 39.3544 104.373 39.2106 104.335C39.0433 104.288 38.9024 104.39 38.8466 104.54Z" fill="#AE660A"/>
<path d="M36.7274 104.138C35.8732 105.262 34.9339 106.325 33.933 107.323C33.663 107.593 34.0798 108.01 34.3528 107.742C35.3918 106.709 36.3546 105.606 37.241 104.437C37.3379 104.311 37.2616 104.106 37.1354 104.032C36.9827 103.944 36.8272 104.012 36.7303 104.138H36.7274Z" fill="#AE660A"/>
<path d="M34.4966 101.875C33.1933 102.529 32.0192 103.439 31.0594 104.537C30.8099 104.822 31.2267 105.245 31.4791 104.957C32.4096 103.894 33.5338 103.023 34.796 102.386C35.1365 102.215 34.8371 101.702 34.4966 101.875Z" fill="#AE660A"/>
<path d="M31.849 99.4592C30.7424 99.6588 29.674 99.9993 28.6496 100.46C28.5028 100.525 28.4676 100.739 28.5439 100.865C28.632 101.015 28.8022 101.038 28.949 100.971C29.9235 100.531 30.9537 100.219 32.0046 100.029C32.1631 99.9993 32.2511 99.8085 32.21 99.6647C32.1631 99.4973 32.0045 99.4298 31.846 99.4592H31.849Z" fill="#AE660A"/>
<path d="M31.4322 95.5084C30.7483 95.0945 29.8883 94.9918 29.1251 95.2442C28.9725 95.2941 28.8756 95.4496 28.9196 95.6082C28.9607 95.7578 29.131 95.8665 29.2836 95.8136C29.9088 95.6052 30.5692 95.6757 31.1328 96.0191C31.2707 96.1013 31.4586 96.0484 31.5378 95.9134C31.62 95.7725 31.5701 95.5905 31.4322 95.5084Z" fill="#AE660A"/>
<path d="M30.989 93.5535C29.1603 93.4331 27.317 93.574 25.5294 93.9732C23.7213 94.3754 22.0336 95.071 20.384 95.9046C19.5562 96.3214 18.7285 96.7559 17.8655 97.1022C16.9967 97.4515 16.0927 97.6922 15.1769 97.883C13.3746 98.2557 11.5695 98.5258 9.82593 99.1275C7.93564 99.7821 6.13927 100.701 4.50141 101.851C4.19321 102.069 4.48674 102.582 4.80081 102.362C6.24201 101.349 7.80355 100.51 9.45315 99.8907C11.1438 99.2537 12.8874 98.922 14.6573 98.5874C15.5643 98.4142 16.4684 98.2235 17.3431 97.927C18.2148 97.6305 19.0484 97.2372 19.8703 96.8263C20.6834 96.4183 21.4905 95.9927 22.3271 95.6317C23.1607 95.2706 24.0237 94.9742 24.8984 94.7393C26.8826 94.2081 28.9402 94.0114 30.989 94.1464C31.3705 94.1728 31.3676 93.5799 30.989 93.5535Z" fill="#AE660A"/>
<path d="M5.51993 99.5561C6.51204 99.9464 7.54818 100.196 8.6078 100.319C8.76631 100.337 8.90427 100.17 8.90427 100.023C8.90427 99.8466 8.76631 99.7439 8.6078 99.7263C7.60395 99.6089 6.61772 99.3535 5.67844 98.9837C5.52875 98.925 5.35264 99.0483 5.31448 99.1891C5.26751 99.3565 5.37317 99.4944 5.52287 99.5531L5.51993 99.5561Z" fill="#AE660A"/>
<path d="M39.5364 105.644C39.1959 107.898 37.7664 109.759 36.4573 111.549C35.0866 113.428 33.6806 115.286 32.1543 117.044C29.1985 120.452 25.7408 123.51 21.5522 125.295C19.2862 126.258 16.8441 126.81 14.3785 126.769C13.9969 126.763 13.9969 127.356 14.3785 127.362C18.9076 127.435 23.2576 125.577 26.8415 122.903C30.6426 120.07 33.6512 116.349 36.4456 112.559C37.9484 110.522 39.7154 108.382 40.1058 105.799C40.1616 105.427 39.5921 105.265 39.5334 105.641L39.5364 105.644Z" fill="#AE660A"/>
<path d="M13.7239 62.9654C15.1123 64.2921 16.5241 65.6423 17.5691 67.2685C18.1092 68.1079 18.526 69.009 18.7989 69.9689C19.0925 70.9933 19.2363 72.05 19.3302 73.1066C19.5298 75.3345 19.6296 77.5741 19.7734 79.8048C19.9202 82.0826 20.067 84.3603 20.2108 86.6381C20.3781 89.2269 20.5425 91.8158 20.7098 94.4047C20.7333 94.7833 21.3262 94.7863 21.3027 94.4047C21.0033 89.7523 20.7068 85.1 20.4075 80.4447C20.2607 78.1494 20.1374 75.854 19.9613 73.5616C19.7999 71.4658 19.4652 69.3848 18.4174 67.5297C17.3313 65.61 15.7228 64.0573 14.1407 62.5456C13.8648 62.2815 13.4451 62.7012 13.721 62.9654H13.7239Z" fill="#AE660A"/>
<path d="M69.6959 99.5854C73.9696 99.6559 78.211 100.536 82.1648 102.163C83.2948 102.626 84.3956 103.158 85.4699 103.742C85.8045 103.924 86.1039 103.413 85.7693 103.231C81.9417 101.147 77.7414 99.7967 73.4178 99.2537C72.185 99.0982 70.9434 99.013 69.6988 98.9925C69.3173 98.9866 69.3173 99.5795 69.6988 99.5854H69.6959Z" fill="#AE660A"/>
<path d="M83.8966 100.569C83.2332 100.657 82.5904 100.892 82.021 101.244C81.8889 101.326 81.8272 101.514 81.9153 101.649C82.0004 101.781 82.1795 101.843 82.3204 101.755C82.5933 101.587 82.8604 101.458 83.1334 101.361C83.4328 101.256 83.741 101.182 84.0551 101.141C84.2107 101.121 84.3075 100.915 84.2605 100.777C84.2048 100.607 84.0609 100.548 83.8966 100.572V100.569Z" fill="#AE660A"/>
<path d="M65.6042 113.39C67.791 116.037 70.0158 118.711 72.8072 120.751C73.4442 121.215 74.1193 121.699 74.8326 122.04C75.1525 122.193 75.537 122.21 75.8863 122.219C76.9782 122.254 78.0819 122.122 79.1591 121.961C79.7461 121.873 80.3332 121.767 80.9085 121.62C81.2754 121.526 81.6981 121.429 82.0151 121.212C82.3262 120.998 82.0297 120.481 81.7157 120.701C81.475 120.869 81.1903 120.933 80.8762 121.018C80.3948 121.148 79.9046 121.242 79.4145 121.324C78.3607 121.5 77.2864 121.626 76.218 121.632C75.857 121.632 75.5106 121.632 75.1907 121.544C75.1613 121.535 75.129 121.526 75.0997 121.515C75.1701 121.544 75.0791 121.5 75.0586 121.491C74.8795 121.388 74.6976 121.289 74.5185 121.18C74.1633 120.966 73.817 120.743 73.4765 120.505C72.1204 119.56 70.8935 118.438 69.7488 117.25C68.4367 115.888 67.2274 114.429 66.0239 112.97C65.7803 112.677 65.3635 113.096 65.6042 113.39Z" fill="#AE660A"/>
<path d="M68.6392 65.1844C69.5403 69.5168 70.5999 73.8199 71.8151 78.076C72.9687 82.109 74.4774 86.1303 74.8795 90.3335C75.0967 92.6201 74.9382 94.9301 74.1398 97.0963C74.0078 97.4544 74.5801 97.61 74.7122 97.2548C76.171 93.2981 75.5106 89.0039 74.4657 85.0325C73.9197 82.9544 73.2563 80.9085 72.6546 78.845C72.0294 76.6964 71.4424 74.539 70.8964 72.3699C70.2829 69.9337 69.7223 67.4857 69.2116 65.0289C69.1353 64.6561 68.5629 64.8146 68.6392 65.1873V65.1844Z" fill="#AE660A"/>
<path d="M43.9803 104.922C47.033 103.921 50.1414 103.09 53.2879 102.435C53.6607 102.359 53.5022 101.787 53.1295 101.863C49.9829 102.518 46.8744 103.348 43.8218 104.349C43.4608 104.467 43.6163 105.039 43.9803 104.922Z" fill="#AE660A"/>
<path d="M46.7101 107.249C48.3656 106.618 50.068 106.122 51.8027 105.764C52.1755 105.688 52.017 105.115 51.6442 105.192C49.9095 105.55 48.207 106.046 46.5516 106.677C46.1993 106.812 46.352 107.384 46.7101 107.249Z" fill="#AE660A"/>
<path d="M69.4523 137.036C70.0393 138.686 70.1039 140.473 69.6313 142.161C69.5286 142.528 70.098 142.686 70.2037 142.319C70.7056 140.538 70.6469 138.624 70.0246 136.88C69.8984 136.522 69.3261 136.678 69.4523 137.039V137.036Z" fill="#AE660A"/>
<path d="M73.2182 142.146C73.0773 143.094 72.9394 144.045 72.7985 144.993C72.775 145.152 72.8366 145.31 73.0039 145.357C73.1448 145.396 73.3444 145.31 73.3679 145.152C73.5088 144.204 73.6468 143.253 73.7876 142.305C73.8111 142.146 73.7495 141.988 73.5822 141.941C73.4413 141.903 73.2417 141.988 73.2182 142.146Z" fill="#AE660A"/>
<path d="M73.9344 130.003V132.037C73.9344 132.199 74.0694 132.334 74.2308 132.334C74.3923 132.334 74.5273 132.199 74.5273 132.037V130.003C74.5273 129.842 74.3923 129.707 74.2308 129.707C74.0694 129.707 73.9344 129.842 73.9344 130.003Z" fill="#AE660A"/>
<path d="M75.1731 154.909L75.6016 157.345C75.628 157.503 75.8217 157.591 75.9656 157.55C76.1329 157.503 76.2004 157.345 76.171 157.186C76.0272 156.373 75.8863 155.56 75.7425 154.75C75.7161 154.592 75.5223 154.504 75.3785 154.545C75.2112 154.592 75.1437 154.75 75.1731 154.909Z" fill="#AE660A"/>
<path d="M17.889 139.267C17.4458 140.353 17.3401 141.548 17.5544 142.698C17.5837 142.857 17.7746 142.945 17.9184 142.904C18.0827 142.86 18.1561 142.698 18.1238 142.54C17.9301 141.492 18.0563 140.409 18.4584 139.425C18.5201 139.279 18.3939 139.1 18.253 139.061C18.0827 139.014 17.9507 139.12 17.889 139.267Z" fill="#AE660A"/>
<path d="M20.337 149.464C20.2049 150.007 20.0699 150.55 19.9378 151.093C19.8996 151.243 19.9848 151.422 20.1433 151.457C20.2959 151.492 20.4691 151.41 20.5072 151.251C20.6393 150.708 20.7743 150.165 20.9064 149.622C20.9446 149.473 20.8595 149.294 20.701 149.258C20.5483 149.223 20.3752 149.305 20.337 149.464Z" fill="#AE660A"/>
<path d="M24.326 130.816V133.666C24.326 134.048 24.9189 134.048 24.9189 133.666V130.816C24.9189 130.435 24.326 130.435 24.326 130.816Z" fill="#AE660A"/>
<path d="M6.37995 116.63C6.89362 117.995 7.40728 119.36 7.91801 120.725C8.0501 121.077 8.62539 120.925 8.49037 120.566C7.9767 119.202 7.46304 117.837 6.95231 116.472C6.82022 116.12 6.24787 116.272 6.37995 116.63Z" fill="#AE660A"/>
<path d="M11.5929 116.704C11.9921 117.517 12.3913 118.333 12.7934 119.146C12.8639 119.29 13.0664 119.328 13.1985 119.251C13.3453 119.166 13.3746 118.99 13.3042 118.846C12.905 118.033 12.5058 117.217 12.1037 116.404C12.0332 116.26 11.8307 116.222 11.6986 116.299C11.5518 116.384 11.5225 116.56 11.5929 116.704Z" fill="#AE660A"/>
<path d="M6.29484 79.752C5.77237 80.885 5.80467 82.2176 6.41226 83.3124C6.59718 83.6471 7.10791 83.3477 6.92299 83.0131C6.42693 82.1149 6.37409 80.9848 6.80557 80.0514C6.87308 79.9076 6.84667 79.7315 6.69991 79.6463C6.57076 79.57 6.36235 79.6052 6.29484 79.752Z" fill="#AE660A"/>
<path d="M8.72227 81.563V83.5972C8.72227 83.7586 8.8573 83.8936 9.01874 83.8936C9.18017 83.8936 9.3152 83.7586 9.3152 83.5972V81.563C9.3152 81.4016 9.18017 81.2666 9.01874 81.2666C8.8573 81.2666 8.72227 81.4016 8.72227 81.563Z" fill="#AE660A"/>
<path d="M11.5225 70.5706V71.3837C11.5225 71.5392 11.6575 71.686 11.8189 71.6801C11.9804 71.6742 12.1154 71.551 12.1154 71.3837V70.5706C12.1154 70.415 11.9804 70.2683 11.8189 70.2741C11.6575 70.28 11.5225 70.4033 11.5225 70.5706Z" fill="#AE660A"/>
<path d="M79.57 86.5177C79.981 87.8122 80.0954 89.1682 79.9193 90.5155C79.8988 90.677 80.072 90.809 80.2158 90.812C80.3919 90.812 80.4917 90.674 80.5122 90.5155C80.6972 89.1242 80.568 87.6977 80.1424 86.3592C80.0279 85.9982 79.4556 86.1508 79.57 86.5177Z" fill="#AE660A"/>
<path d="M79.4732 79.2119C79.6405 80.1541 79.8107 81.0993 79.978 82.0415C80.0074 82.2 80.1982 82.288 80.342 82.2469C80.5093 82.2 80.5768 82.0415 80.5475 81.883C80.3801 80.9407 80.2099 79.9956 80.0426 79.0534C80.0132 78.8949 79.8225 78.8068 79.6786 78.8479C79.5113 78.8949 79.4438 79.0534 79.4732 79.2119Z" fill="#AE660A"/>
<path d="M84.8065 90.2895C84.3016 90.8472 84.3163 91.7835 84.8682 92.3031C84.9797 92.4087 85.1763 92.4234 85.2879 92.3031C85.3935 92.1886 85.4082 91.9978 85.2879 91.8833C85.2615 91.8599 85.238 91.8334 85.2145 91.807C85.2145 91.8305 85.2028 91.7924 85.191 91.7747C85.1617 91.7278 85.1 91.6573 85.0941 91.6015C85.1029 91.628 85.1029 91.6602 85.0941 91.6015C85.0648 91.5164 85.056 91.4842 85.0501 91.4489C85.0296 91.2376 85.0443 91.1701 85.0413 91.1026C85.0589 91.0321 85.0677 90.9969 85.0795 90.9646C85.0971 90.8971 85.1235 90.8589 85.1382 90.8325C85.1558 90.8032 85.1764 90.7738 85.194 90.7445C85.191 90.7386 85.2174 90.7181 85.2262 90.7063C85.329 90.5918 85.3495 90.3981 85.2262 90.2866C85.1118 90.1838 84.918 90.1633 84.8065 90.2866V90.2895Z" fill="#AE660A"/>
<path d="M78.4165 72.9393L81.1668 71.6097C81.3106 71.5392 81.3488 71.3337 81.2725 71.2046C81.1874 71.0578 81.0113 71.0285 80.8674 71.0989C79.9516 71.5422 79.0358 71.9854 78.1171 72.4286C77.9733 72.499 77.9351 72.7045 78.0114 72.8337C78.0965 72.9804 78.2727 73.0098 78.4165 72.9393Z" fill="#F59F18"/>
<path d="M79.9986 74.1164C80.5328 73.8463 81.0641 73.5733 81.5983 73.3033C81.7362 73.2328 81.7891 73.0274 81.704 72.8982C81.613 72.7573 81.4456 72.7162 81.2989 72.7926L79.6992 73.6056C79.5612 73.6761 79.5084 73.8815 79.5935 74.0107C79.6845 74.1516 79.8518 74.1927 79.9986 74.1164Z" fill="#F59F18"/>
<path d="M6.82904 63.03C7.61275 63.9927 8.39646 64.9555 9.18017 65.9212C9.27996 66.0444 9.49423 66.0268 9.5999 65.9212C9.72318 65.7979 9.70264 65.6277 9.5999 65.5014C8.81619 64.5387 8.03248 63.5759 7.24878 62.6102C7.14898 62.487 6.93471 62.5046 6.82904 62.6102C6.70576 62.7335 6.72631 62.9037 6.82904 63.03Z" fill="#F59F18"/>
<path d="M9.27996 62.1612C10.0872 63.0036 10.5891 64.119 10.686 65.2813C10.7182 65.66 11.3111 65.6629 11.2789 65.2813C11.1703 63.9575 10.6184 62.7042 9.69972 61.7414C9.43555 61.4655 9.01579 61.8852 9.27996 62.1612Z" fill="#F59F18"/>
<path d="M5.9749 124.062C5.33208 124.834 4.93874 125.759 4.82133 126.757C4.80372 126.915 4.97103 127.053 5.1178 127.053C5.29391 127.053 5.39371 126.915 5.41426 126.757C5.51112 125.929 5.86042 125.122 6.39463 124.482C6.49737 124.359 6.51498 124.183 6.39463 124.062C6.28897 123.957 6.07763 123.939 5.9749 124.062Z" fill="#F59F18"/>
<path d="M7.60689 124.235L7.18715 127.083C7.16367 127.241 7.22529 127.4 7.3926 127.447C7.53349 127.485 7.73309 127.4 7.75657 127.241C7.89746 126.293 8.03543 125.342 8.17632 124.394C8.1998 124.236 8.13816 124.077 7.97085 124.03C7.82996 123.992 7.63037 124.077 7.60689 124.235Z" fill="#F59F18"/>
<path d="M43.8599 117.429C45.0428 122.213 45.9704 127.062 46.6249 131.946C47.2766 136.801 47.6611 141.691 47.7756 146.587C47.8401 149.326 47.8166 152.064 47.7139 154.803C47.6992 155.185 48.2922 155.185 48.3068 154.803C48.4947 149.901 48.4125 144.991 48.0603 140.098C47.7051 135.193 47.0829 130.309 46.1964 125.474C45.6916 122.724 45.1045 119.988 44.4323 117.27C44.3413 116.9 43.7689 117.056 43.8599 117.429Z" fill="#AE660A"/>
<path d="M48.709 132.031C49.3782 135.527 50.0475 139.026 50.7167 142.522C51.3859 146.018 52.0552 149.517 52.7244 153.013C53.1001 154.979 53.4758 156.943 53.8545 158.909C53.9249 159.282 54.4973 159.124 54.4268 158.751C53.7576 155.255 53.0884 151.756 52.4191 148.26L50.4114 137.77C50.0357 135.803 49.66 133.84 49.2814 131.873C49.2109 131.5 48.6386 131.659 48.709 132.031Z" fill="#AE660A"/>
</svg>
